<?xml version="1.0" encoding="UTF-8"?>
<svg id="Layer_2" data-name="Layer 2" xmlns="http://www.w3.org/2000/svg" viewBox="0 0 1720.99 1107.04">
  <defs>
    <style>
      .cls-1 {
        fill: #3c66b6;
      }
    </style>
  </defs>
  <g id="Layer_1-2" data-name="Layer 1">
    <path class="cls-1" d="M56.61,461.36l-5.55-29.58-.56-.19-22.51,19.97-5.93-2.03,27.66-24.06,5.58,1.91,7.11,35.96-5.79-1.98h-.01Z"/>
    <path class="cls-1" d="M71.47,420.33l-1.96-30.03-.54-.26-24.74,17.13-5.65-2.73,30.34-20.58,5.32,2.57,2.74,36.56-5.51-2.66h0Z"/>
    <path class="cls-1" d="M131.16,336.87c-1.66,2.14-3.5,3.79-5.55,4.94-2.05,1.16-4.2,1.8-6.46,1.95-2.26.15-4.61-.21-7.05-1.08-2.44-.86-4.87-2.23-7.28-4.1-3.03-2.35-5.53-5.01-7.48-7.99-1.96-2.98-3.48-6.03-4.58-9.15s-1.81-6.21-2.15-9.27c-.33-3.06-.38-5.83-.13-8.32l4.88-6.3c-.12,3.45-.1,6.63.08,9.54.17,2.91.58,5.66,1.2,8.26.63,2.6,1.54,5.08,2.73,7.44s2.75,4.74,4.67,7.16l.34-.2c-.92-2.26-1.32-4.63-1.19-7.08s1.17-4.94,3.13-7.47c1.38-1.79,2.94-3.2,4.67-4.22,1.73-1.02,3.56-1.66,5.49-1.91,1.93-.24,3.91-.07,5.93.54,2.02.6,3.99,1.64,5.89,3.12,1.99,1.54,3.55,3.28,4.69,5.22,1.14,1.94,1.84,3.97,2.11,6.07.27,2.11.08,4.26-.57,6.46s-1.77,4.34-3.37,6.4h0ZM126.98,333.72c2.17-2.8,3.09-5.56,2.76-8.26-.33-2.71-1.87-5.14-4.63-7.27l-.47-.36c-2.76-2.14-5.5-3.03-8.2-2.66-2.71.36-5.15,1.94-7.31,4.74-2.17,2.8-3.09,5.56-2.76,8.26.32,2.71,1.87,5.14,4.63,7.27l.47.36c2.76,2.14,5.49,3.03,8.2,2.67,2.71-.36,5.15-1.94,7.31-4.74h0Z"/>
    <path class="cls-1" d="M134.93,285.03c2.44-2.63,3.69-5.15,3.74-7.55.06-2.4-.83-4.45-2.67-6.14l-.38-.35c-2.01-1.86-4.11-2.62-6.31-2.27-2.19.35-4.24,1.55-6.14,3.61-1.87,2.02-2.94,4.06-3.22,6.12-.27,2.06-.05,4.16.66,6.29l-5.76,1c-.32-1.17-.54-2.44-.64-3.81-.11-1.37-.02-2.78.26-4.24.27-1.46.79-2.95,1.55-4.5.76-1.54,1.86-3.09,3.3-4.64,1.5-1.62,3.11-2.95,4.83-3.97,1.72-1.02,3.47-1.68,5.25-1.98,1.78-.29,3.54-.19,5.28.32,1.74.5,3.37,1.46,4.88,2.86,1.22,1.13,2.15,2.34,2.77,3.62.62,1.28.98,2.59,1.08,3.92.1,1.34,0,2.69-.34,4.06s-.84,2.67-1.52,3.92l.22.2c1.19-.84,2.48-1.53,3.86-2.05,1.39-.52,2.83-.8,4.31-.84,1.48-.04,2.97.23,4.5.8,1.52.57,2.98,1.51,4.39,2.81,1.63,1.51,2.83,3.21,3.59,5.09.77,1.89,1.11,3.84,1.01,5.86-.1,2.03-.62,4.09-1.56,6.2-.95,2.1-2.32,4.13-4.13,6.08-1.54,1.66-3.08,2.96-4.63,3.91-1.54.95-3.09,1.63-4.62,2.06-1.53.42-3.03.65-4.47.69s-2.85-.04-4.21-.23l.56-5.82c1.22.2,2.4.31,3.51.34,1.12.03,2.23-.1,3.33-.39,1.1-.29,2.2-.76,3.28-1.43,1.09-.67,2.19-1.6,3.29-2.79,2.48-2.67,3.76-5.28,3.85-7.85.09-2.56-.99-4.89-3.27-7l-.43-.4c-2.23-2.07-4.61-2.98-7.12-2.73-2.52.25-5.06,1.77-7.64,4.54l-4.16,4.49-3.95-3.66,3.86-4.17v.02Z"/>
    <path class="cls-1" d="M204.99,249.04l11.28-27.9-.37-.46-29.73,4.69-3.91-4.91,36.27-5.36,3.67,4.62-13.41,34.12-3.81-4.79h.01Z"/>
    <path class="cls-1" d="M239.61,222.07l13.07-27.12-.34-.48-29.97,2.75-3.57-5.15,36.53-2.99,3.37,4.85-15.59,33.18-3.49-5.03h-.01Z"/>
    <path class="cls-1" d="M331.67,174.38c-2.38,1.28-4.74,2.03-7.08,2.25s-4.57-.06-6.7-.85c-2.12-.78-4.12-2.07-6-3.85s-3.54-4.02-4.98-6.71c-1.81-3.38-3.01-6.83-3.58-10.34-.57-3.51-.73-6.92-.46-10.22.27-3.3.87-6.41,1.81-9.34.94-2.93,2.03-5.48,3.26-7.65l7.02-3.77c-1.52,3.1-2.78,6.02-3.81,8.74s-1.78,5.4-2.26,8.04c-.48,2.63-.66,5.27-.53,7.9.13,2.64.58,5.45,1.35,8.44l.39-.05c.09-2.44.68-4.76,1.8-6.95s3.08-4.04,5.9-5.55c2-1.07,3.99-1.72,5.99-1.95,2-.23,3.93-.07,5.79.49,1.87.56,3.6,1.53,5.2,2.91,1.6,1.37,2.97,3.12,4.11,5.24,1.18,2.21,1.9,4.44,2.16,6.67.25,2.24.07,4.37-.55,6.4-.61,2.03-1.66,3.92-3.15,5.67s-3.39,3.24-5.68,4.47h0ZM329.13,169.8c3.12-1.68,5.08-3.82,5.89-6.43.81-2.61.38-5.45-1.27-8.53l-.28-.52c-1.65-3.07-3.78-5-6.4-5.77s-5.49-.32-8.61,1.35-5.08,3.82-5.89,6.42c-.81,2.61-.38,5.45,1.27,8.53l.28.52c1.65,3.08,3.78,5,6.4,5.77s5.49.32,8.61-1.35h0Z"/>
    <path class="cls-1" d="M375.28,151.57l-4.32-9.14-22.94,10.85-2.34-4.94,4.78-42.01,8.14-3.85,15.52,32.81,6.93-3.28,2.18,4.6-6.93,3.28,4.32,9.14-5.33,2.52v.02ZM350.84,146.32l17.94-8.48-13.47-28.48-.26.13-4.2,36.84h0Z"/>
    <path class="cls-1" d="M433.27,119.02l19.52-22.91-.21-.56-29.68-4.95-2.15-5.89,36.1,6.38,2.02,5.55-23.51,28.13-2.1-5.75h.01Z"/>
    <path class="cls-1" d="M474.75,104.18l20.47-22.06-.17-.56-29.45-6.21-1.9-5.98,35.8,7.91,1.79,5.62-24.68,27.11-1.85-5.84h0Z"/>
    <path class="cls-1" d="M576.74,84.06c-2.63.61-5.11.72-7.42.32-2.32-.4-4.39-1.25-6.24-2.56-1.84-1.31-3.44-3.07-4.79-5.29-1.35-2.21-2.37-4.8-3.06-7.77-.87-3.74-1.12-7.38-.76-10.92s1.1-6.87,2.22-9.98c1.12-3.11,2.51-5.96,4.18-8.55s3.39-4.76,5.15-6.54l7.76-1.8c-2.27,2.6-4.26,5.08-5.95,7.44-1.7,2.36-3.13,4.75-4.28,7.17-1.16,2.41-2.02,4.91-2.58,7.49s-.86,5.41-.9,8.5l.39.06c.72-2.34,1.9-4.42,3.55-6.24,1.65-1.82,4.02-3.1,7.14-3.82,2.2-.51,4.3-.62,6.28-.32,1.99.29,3.81.96,5.46,1.99,1.66,1.03,3.08,2.42,4.27,4.16,1.18,1.74,2.05,3.79,2.6,6.14.57,2.44.68,4.78.34,7-.34,2.23-1.08,4.24-2.19,6.04-1.13,1.8-2.63,3.35-4.53,4.65-1.89,1.3-4.11,2.24-6.65,2.83h.01ZM575.49,78.97c3.45-.8,5.9-2.36,7.36-4.67,1.46-2.31,1.79-5.16,1-8.56l-.13-.58c-.79-3.4-2.35-5.82-4.68-7.24-2.33-1.43-5.21-1.74-8.66-.94-3.45.8-5.91,2.36-7.36,4.67-1.46,2.31-1.79,5.16-1,8.56l.13.58c.79,3.4,2.35,5.82,4.67,7.25,2.33,1.43,5.21,1.74,8.67.94h0Z"/>
    <path class="cls-1" d="M611.48,45.33c3.53-.68,6.02-1.97,7.48-3.88,1.46-1.9,1.96-4.08,1.48-6.53l-.1-.51c-.52-2.69-1.77-4.54-3.74-5.56-1.98-1.01-4.34-1.26-7.09-.72-2.7.52-4.78,1.54-6.21,3.04-1.44,1.51-2.5,3.33-3.19,5.46l-5.23-2.59c.43-1.14,1.01-2.29,1.74-3.46.72-1.17,1.63-2.26,2.71-3.27,1.08-1.01,2.38-1.91,3.91-2.71s3.32-1.39,5.4-1.8c2.17-.42,4.26-.54,6.24-.34,1.99.19,3.79.69,5.4,1.51,1.61.81,2.96,1.94,4.07,3.38s1.85,3.17,2.24,5.19c.32,1.64.35,3.16.09,4.56s-.74,2.67-1.45,3.81c-.71,1.14-1.6,2.16-2.67,3.07-1.08.91-2.26,1.66-3.55,2.26l.06.29c1.45.02,2.9.23,4.33.63s2.75,1.02,3.97,1.87c1.21.84,2.26,1.95,3.15,3.3.89,1.36,1.52,2.98,1.88,4.87.42,2.18.39,4.25-.11,6.23s-1.38,3.75-2.65,5.33c-1.28,1.57-2.92,2.93-4.92,4.07-2.01,1.14-4.32,1.96-6.92,2.47-2.22.43-4.24.57-6.05.42s-3.45-.51-4.94-1.07-2.83-1.26-4.01-2.08c-1.19-.82-2.27-1.71-3.26-2.68l3.9-4.36c.87.88,1.75,1.66,2.63,2.34.89.68,1.85,1.23,2.91,1.65,1.06.42,2.22.69,3.49.79,1.28.11,2.71,0,4.3-.31,3.57-.69,6.15-2.04,7.75-4.05,1.59-2.01,2.09-4.54,1.5-7.58l-.11-.58c-.58-3-1.96-5.13-4.13-6.41s-5.13-1.56-8.84-.85l-6.01,1.16-1.02-5.29,5.58-1.08h-.01Z"/>
    <path class="cls-1" d="M689.2,55.23l24.24-17.84-.07-.59-27.77-11.6-.75-6.23,33.69,14.46.71,5.86-29.31,22.02-.73-6.08h-.01Z"/>
    <path class="cls-1" d="M733.03,50.2l24.84-17-.05-.59-27.35-12.56-.54-6.25,33.17,15.61.5,5.88-30.05,20.99-.52-6.1v.02Z"/>
    <path class="cls-1" d="M837.04,52.54c-2.71.05-5.15-.36-7.33-1.24-2.18-.87-4.03-2.14-5.57-3.81-1.53-1.67-2.72-3.73-3.58-6.17s-1.31-5.19-1.36-8.24c-.07-3.84.45-7.45,1.54-10.84,1.1-3.39,2.52-6.49,4.27-9.3,1.74-2.81,3.71-5.3,5.88-7.48,2.18-2.18,4.31-3.95,6.4-5.32l7.97-.14c-2.77,2.07-5.23,4.08-7.38,6.03-2.15,1.96-4.05,4-5.68,6.12-1.64,2.12-3,4.38-4.09,6.79s-1.98,5.12-2.66,8.13l.37.14c1.19-2.13,2.78-3.92,4.78-5.36,1.99-1.44,4.59-2.18,7.78-2.24,2.26-.04,4.33.29,6.22,1s3.53,1.73,4.92,3.09c1.4,1.35,2.5,3.01,3.3,4.96.79,1.95,1.21,4.13,1.26,6.54.05,2.51-.33,4.81-1.13,6.92-.8,2.1-1.93,3.92-3.41,5.45s-3.27,2.73-5.4,3.6c-2.12.87-4.49,1.34-7.09,1.38h0ZM836.87,47.3c3.54-.06,6.26-1.07,8.18-3.02,1.9-1.95,2.83-4.67,2.77-8.16v-.59c-.07-3.49-1.09-6.18-3.07-8.06s-4.73-2.79-8.28-2.73c-3.54.06-6.27,1.07-8.18,3.02s-2.83,4.68-2.77,8.16v.59c.07,3.49,1.09,6.18,3.07,8.06s4.73,2.79,8.28,2.73Z"/>
    <path class="cls-1" d="M886.61,51.69l.16-10.1-25.38-.39.08-5.46L884.3.16l9,.14-.56,36.29,7.67.12-.08,5.09-7.67-.12-.15,10.11-5.9-.09h0ZM867,36.19l19.84.31.48-31.5h-.3l-20.03,31.19h.01Z"/>
    <path class="cls-1" d="M953.23,47.29l27.33-12.62.05-.59-24.88-16.94.51-6.25,30.11,20.92-.49,5.88-33.13,15.69.5-6.1h0Z"/>
    <path class="cls-1" d="M997.07,51.13l27.74-11.67.07-.59-24.28-17.78.73-6.23,29.36,21.95-.69,5.86-33.65,14.54.72-6.08h0Z"/>
    <path class="cls-1" d="M1098.53,74.42c-2.66-.51-4.97-1.41-6.92-2.71s-3.51-2.92-4.67-4.87c-1.15-1.95-1.9-4.2-2.24-6.77-.33-2.57-.22-5.35.36-8.34.72-3.77,1.96-7.2,3.73-10.29s3.79-5.84,6.08-8.23c2.28-2.39,4.71-4.43,7.29-6.12,2.57-1.69,5.02-2.98,7.35-3.89l7.83,1.49c-3.13,1.46-5.95,2.92-8.46,4.39s-4.78,3.08-6.81,4.82c-2.04,1.74-3.83,3.67-5.39,5.8-1.56,2.13-2.98,4.6-4.27,7.41l.33.22c1.6-1.85,3.53-3.27,5.77-4.27s4.94-1.2,8.07-.6c2.22.42,4.18,1.17,5.88,2.25s3.09,2.42,4.19,4.03,1.83,3.45,2.21,5.53c.38,2.07.34,4.3-.11,6.66-.47,2.46-1.31,4.64-2.52,6.54s-2.7,3.44-4.45,4.63-3.76,2-6.02,2.42-4.67.39-7.23-.1h0ZM1099.43,69.26c3.48.66,6.35.24,8.62-1.28s3.73-4,4.38-7.43l.11-.58c.65-3.43.21-6.27-1.34-8.52-1.55-2.25-4.06-3.7-7.54-4.37-3.48-.66-6.36-.23-8.62,1.29-2.27,1.52-3.73,4-4.38,7.43l-.11.58c-.65,3.43-.21,6.27,1.34,8.52,1.55,2.25,4.06,3.71,7.54,4.37h0Z"/>
    <path class="cls-1" d="M1145.86,53.04c3.5.8,6.3.63,8.41-.52,2.1-1.15,3.44-2.94,4-5.38l.11-.5c.61-2.67.22-4.87-1.17-6.6s-3.46-2.91-6.19-3.53c-2.68-.62-4.99-.53-6.91.27s-3.63,2.03-5.13,3.71l-3.74-4.49c.85-.86,1.85-1.68,2.98-2.45,1.13-.77,2.4-1.4,3.8-1.89,1.39-.49,2.95-.78,4.67-.9,1.72-.11,3.61.07,5.67.54,2.16.5,4.11,1.23,5.85,2.21,1.74.98,3.19,2.17,4.33,3.56,1.14,1.4,1.92,2.97,2.36,4.73.43,1.76.41,3.65-.05,5.66-.38,1.63-.96,3.03-1.76,4.21s-1.75,2.14-2.86,2.89-2.34,1.33-3.69,1.72-2.74.6-4.15.63l-.07.29c1.32.61,2.56,1.38,3.71,2.33,1.14.95,2.1,2.05,2.87,3.31s1.29,2.7,1.55,4.3c.26,1.6.18,3.34-.25,5.21-.49,2.16-1.37,4.04-2.62,5.65-1.26,1.61-2.78,2.87-4.58,3.8-1.81.92-3.85,1.5-6.15,1.73s-4.74.05-7.33-.55c-2.21-.5-4.11-1.19-5.7-2.06s-2.95-1.86-4.08-2.98c-1.13-1.12-2.07-2.29-2.83-3.52-.75-1.23-1.38-2.49-1.9-3.77l5.32-2.41c.44,1.16.93,2.23,1.46,3.21.54.98,1.2,1.88,2,2.69.8.82,1.75,1.53,2.88,2.14,1.12.61,2.48,1.1,4.06,1.46,3.55.82,6.45.63,8.72-.57,2.27-1.19,3.75-3.3,4.44-6.32l.13-.58c.68-2.97.28-5.48-1.18-7.54-1.47-2.05-4.06-3.5-7.75-4.35l-5.97-1.37,1.2-5.25,5.54,1.27h0Z"/>
    <path class="cls-1" d="M1213,93.7l29.43-6.29.18-.56-20.54-22,1.88-5.98,24.75,27.04-1.77,5.63-35.78,8.01,1.84-5.84h.01Z"/>
    <path class="cls-1" d="M1254.87,107.13l29.67-5.05.2-.56-19.59-22.85,2.13-5.9,23.6,28.06-2.01,5.55-36.08,6.49,2.08-5.76v.02Z"/>
    <path class="cls-1" d="M1347.84,153.62c-2.45-1.15-4.46-2.59-6.04-4.34-1.57-1.74-2.68-3.7-3.31-5.87-.64-2.17-.8-4.55-.49-7.12s1.11-5.24,2.41-8c1.63-3.47,3.68-6.49,6.16-9.05s5.12-4.72,7.92-6.47,5.67-3.13,8.58-4.12c2.91-1,5.61-1.65,8.08-1.95l7.21,3.38c-3.4.64-6.49,1.36-9.28,2.16-2.8.81-5.4,1.8-7.8,2.98s-4.62,2.61-6.66,4.29-4.03,3.72-5.97,6.12l.27.29c2.01-1.39,4.23-2.3,6.65-2.71,2.42-.41,5.08.06,7.97,1.42,2.05.96,3.76,2.17,5.14,3.63s2.4,3.11,3.06,4.94.92,3.8.78,5.91c-.15,2.1-.73,4.25-1.75,6.43-1.07,2.27-2.42,4.18-4.07,5.71-1.64,1.54-3.46,2.67-5.46,3.39-1.99.72-4.14,1.01-6.43.85-2.3-.15-4.62-.78-6.98-1.89v.02ZM1350,148.84c3.21,1.5,6.09,1.8,8.67.89,2.57-.91,4.6-2.95,6.08-6.11l.25-.54c1.48-3.16,1.75-6.02.8-8.58-.94-2.56-3.02-4.59-6.22-6.1-3.21-1.5-6.1-1.8-8.67-.89-2.57.91-4.6,2.95-6.08,6.11l-.25.53c-1.48,3.16-1.75,6.02-.81,8.59.95,2.56,3.02,4.59,6.23,6.1h0Z"/>
    <path class="cls-1" d="M1392.25,174.99l4.75-8.92-22.41-11.92,2.56-4.82,36.55-21.25,7.95,4.23-17.05,32.04,6.77,3.6-2.39,4.49-6.77-3.6-4.75,8.92-5.21-2.77h0ZM1381.87,152.25l17.52,9.32,14.8-27.81-.26-.14-32.06,18.63Z"/>
    <path class="cls-1" d="M1452.71,202.34l29.98,2.62.33-.49-13.17-27.06,3.55-5.17,15.73,33.11-3.35,4.86-36.55-2.84,3.47-5.05v.02Z"/>
    <path class="cls-1" d="M1488.54,227.41l29.76,4.54.37-.46-11.41-27.85,3.88-4.93,13.57,34.05-3.65,4.64-36.29-5.18,3.79-4.81h-.02Z"/>
    <path class="cls-1" d="M1559.91,301.99c-1.85-1.97-3.19-4.06-4-6.26-.82-2.2-1.12-4.43-.91-6.68s.93-4.52,2.17-6.79,2.97-4.45,5.19-6.54c2.8-2.63,5.82-4.67,9.07-6.13s6.5-2.49,9.76-3.08c3.25-.59,6.42-.82,9.49-.66,3.08.15,5.82.54,8.24,1.17l5.45,5.81c-3.39-.66-6.53-1.14-9.43-1.42-2.9-.28-5.68-.32-8.35-.11-2.67.21-5.26.72-7.77,1.53-2.52.81-5.12,1.97-7.81,3.48l.14.37c2.38-.55,4.78-.57,7.18-.06s4.7,1.93,6.89,4.26c1.55,1.65,2.69,3.41,3.43,5.28.74,1.87,1.08,3.77,1.02,5.72-.06,1.95-.55,3.87-1.46,5.77-.92,1.9-2.25,3.68-4.01,5.33-1.83,1.72-3.79,2.98-5.89,3.81-2.09.82-4.2,1.2-6.32,1.13s-4.21-.59-6.29-1.58c-2.07-.99-4-2.43-5.79-4.33v-.02ZM1563.68,298.35c2.42,2.58,5,3.92,7.72,4.03,2.73.1,5.37-1.04,7.91-3.43l.43-.4c2.55-2.39,3.85-4.95,3.93-7.68.07-2.73-1.11-5.39-3.53-7.97-2.42-2.58-5-3.92-7.73-4.03-2.73-.1-5.36,1.04-7.91,3.43l-.43.4c-2.55,2.39-3.85,4.95-3.92,7.68-.07,2.73,1.11,5.39,3.53,7.97Z"/>
    <path class="cls-1" d="M1610.61,313.88c2.22,2.83,4.51,4.45,6.87,4.88s4.52-.13,6.48-1.67l.41-.32c2.16-1.69,3.24-3.65,3.24-5.87s-.86-4.43-2.6-6.64c-1.7-2.17-3.55-3.55-5.54-4.13s-4.1-.71-6.32-.34l-.08-5.84c1.2-.14,2.5-.15,3.86-.03,1.37.11,2.75.42,4.15.92,1.39.5,2.79,1.25,4.19,2.24,1.4.99,2.76,2.32,4.07,3.98,1.37,1.74,2.42,3.54,3.16,5.4.74,1.86,1.12,3.69,1.13,5.49s-.37,3.53-1.14,5.16c-.78,1.64-1.97,3.1-3.59,4.37-1.32,1.03-2.66,1.75-4.01,2.16-1.36.41-2.71.56-4.04.46-1.33-.11-2.65-.43-3.95-.98s-2.51-1.25-3.63-2.12l-.23.18c.64,1.3,1.12,2.68,1.42,4.14.3,1.45.35,2.92.15,4.38s-.69,2.91-1.5,4.32c-.8,1.41-1.96,2.71-3.47,3.9-1.74,1.37-3.61,2.28-5.59,2.75-1.98.46-3.97.49-5.95.08-1.99-.41-3.94-1.25-5.88-2.52-1.93-1.27-3.72-2.94-5.36-5.03-1.4-1.78-2.44-3.51-3.13-5.18-.69-1.68-1.13-3.3-1.3-4.89-.18-1.58-.17-3.09.02-4.52.19-1.43.49-2.8.89-4.12l5.66,1.47c-.39,1.18-.68,2.32-.88,3.41-.21,1.1-.25,2.21-.14,3.35.11,1.13.4,2.29.9,3.47.48,1.18,1.23,2.41,2.23,3.68,2.25,2.86,4.63,4.54,7.14,5.04,2.52.5,4.99-.21,7.43-2.13l.46-.37c2.4-1.88,3.67-4.09,3.82-6.61.14-2.52-.95-5.27-3.29-8.25l-3.78-4.82,4.24-3.32,3.5,4.47h-.02Z"/>
    <path class="cls-1" d="M1634.13,388.99l24.88,16.93.53-.26,1.71-30.05,5.62-2.77-2.44,36.58-5.3,2.61-30.51-20.32,5.49-2.71h.02Z"/>
    <path class="cls-1" d="M1652.85,428.47l22.68,19.78.56-.2,5.28-29.63,5.92-2.08-6.79,36.03-5.57,1.96-27.87-23.82,5.78-2.04h0Z"/>
    <path class="cls-1" d="M1668.06,529.06c-.21-2.7.05-5.16.79-7.39.74-2.23,1.89-4.16,3.47-5.78,1.57-1.63,3.56-2.94,5.95-3.94,2.39-1,5.1-1.62,8.14-1.86,3.82-.3,7.46,0,10.91.89,3.45.89,6.63,2.12,9.54,3.7,2.91,1.57,5.52,3.38,7.82,5.42,2.31,2.04,4.2,4.06,5.69,6.07l.62,7.94c-2.23-2.64-4.38-4.97-6.47-7.01-2.08-2.03-4.23-3.8-6.44-5.31-2.22-1.51-4.55-2.73-7.02-3.67s-5.22-1.66-8.28-2.17l-.12.38c2.2,1.06,4.09,2.54,5.64,4.44s2.45,4.45,2.7,7.63c.17,2.25-.03,4.34-.62,6.27-.59,1.92-1.52,3.62-2.78,5.1s-2.85,2.68-4.75,3.59c-1.9.91-4.06,1.46-6.46,1.65-2.5.2-4.83-.04-6.97-.72-2.15-.67-4.03-1.7-5.65-3.07-1.61-1.38-2.92-3.1-3.92-5.17s-1.6-4.4-1.8-7h.01ZM1673.27,528.57c.28,3.53,1.45,6.19,3.51,7.98s4.83,2.54,8.32,2.27l.59-.05c3.48-.27,6.1-1.45,7.87-3.54,1.76-2.09,2.5-4.89,2.23-8.42-.28-3.53-1.45-6.19-3.51-7.98s-4.83-2.54-8.32-2.27l-.59.05c-3.48.27-6.1,1.45-7.86,3.54-1.77,2.09-2.51,4.89-2.23,8.42h-.01Z"/>
    <path class="cls-1" d="M1669.05,577.3l10.09.57,1.44-25.34,5.45.31,34.61,24.28-.51,8.99-36.24-2.06-.43,7.66-5.08-.29.43-7.66-10.09-.57.33-5.89h0ZM1685.35,558.34l-1.13,19.82,31.45,1.79.02-.3-30.34-21.31Z"/>
    <path class="cls-1" d="M1665.29,642.16l5.86,29.52.56.19,22.3-20.21,5.95,1.97-27.4,24.36-5.6-1.85-7.49-35.89,5.82,1.92h0Z"/>
    <path class="cls-1" d="M1650.91,683.29l2.26,30.01.53.25,24.57-17.38,5.68,2.67-30.14,20.88-5.34-2.51-3.11-36.53,5.54,2.61h0Z"/>
    <path class="cls-1" d="M1592.09,767.14c1.64-2.15,3.47-3.81,5.51-4.98,2.04-1.17,4.18-1.84,6.44-2.01,2.26-.17,4.61.17,7.06,1.02s4.88,2.19,7.31,4.03c3.05,2.32,5.57,4.97,7.55,7.93s3.54,6,4.66,9.11c1.13,3.11,1.87,6.19,2.23,9.25s.43,5.83.21,8.32l-4.83,6.34c.09-3.45.04-6.63-.16-9.53-.2-2.91-.63-5.66-1.28-8.25-.65-2.6-1.59-5.07-2.8-7.41-1.21-2.35-2.79-4.72-4.73-7.12l-.34.2c.94,2.26,1.35,4.61,1.25,7.07-.1,2.45-1.12,4.95-3.06,7.5-1.37,1.8-2.91,3.22-4.63,4.26s-3.55,1.69-5.48,1.95c-1.93.26-3.91.1-5.93-.48-2.03-.58-4-1.61-5.92-3.07-2-1.52-3.57-3.24-4.73-5.17s-1.88-3.95-2.16-6.05c-.29-2.1-.11-4.26.51-6.47.63-2.21,1.73-4.35,3.31-6.43h.01ZM1596.31,770.25c-2.15,2.82-3.04,5.58-2.69,8.29.35,2.71,1.91,5.12,4.69,7.23l.47.36c2.78,2.12,5.52,2.98,8.22,2.59,2.7-.38,5.13-1.98,7.27-4.8,2.14-2.82,3.04-5.58,2.69-8.29-.35-2.71-1.91-5.12-4.69-7.23l-.47-.36c-2.78-2.12-5.52-2.98-8.22-2.59-2.71.38-5.13,1.98-7.27,4.8Z"/>
    <path class="cls-1" d="M1588.51,819.26c-2.42,2.65-3.65,5.17-3.69,7.57s.87,4.44,2.71,6.13l.38.35c2.02,1.85,4.13,2.59,6.32,2.23s4.23-1.58,6.12-3.65c1.86-2.03,2.91-4.08,3.17-6.15.25-2.07.02-4.16-.7-6.29l5.75-1.04c.33,1.17.56,2.44.67,3.81.11,1.37.04,2.78-.23,4.24s-.77,2.96-1.52,4.51-1.84,3.1-3.26,4.66c-1.49,1.63-3.1,2.97-4.81,4-1.71,1.04-3.46,1.71-5.23,2.01-1.78.31-3.54.21-5.28-.28s-3.38-1.44-4.9-2.83c-1.24-1.13-2.17-2.33-2.79-3.6-.63-1.27-1-2.58-1.11-3.91-.11-1.34,0-2.69.31-4.06.32-1.37.82-2.68,1.5-3.93l-.22-.2c-1.18.85-2.47,1.55-3.85,2.08-1.39.53-2.82.82-4.3.87-1.48.05-2.98-.21-4.5-.77s-3-1.49-4.41-2.78c-1.64-1.49-2.85-3.19-3.63-5.07s-1.13-3.83-1.05-5.86c.08-2.02.59-4.09,1.52-6.21.93-2.11,2.3-4.15,4.09-6.11,1.52-1.67,3.06-2.98,4.6-3.94,1.54-.96,3.08-1.65,4.61-2.09,1.53-.43,3.02-.68,4.46-.72,1.45-.05,2.85.02,4.21.2l-.52,5.82c-1.23-.19-2.4-.29-3.51-.31-1.12-.02-2.22.12-3.32.41s-2.19.77-3.28,1.45c-1.08.67-2.17,1.61-3.27,2.81-2.45,2.69-3.72,5.31-3.8,7.87-.08,2.56,1.03,4.89,3.32,6.98l.43.4c2.25,2.06,4.63,2.95,7.14,2.68,2.51-.27,5.05-1.8,7.6-4.6l4.13-4.52,3.98,3.63-3.83,4.19v.02Z"/>
    <path class="cls-1" d="M1518.85,855.56l-11.11,27.97.37.46,29.7-4.87,3.93,4.89-36.23,5.58-3.7-4.6,13.19-34.2,3.84,4.77h.01Z"/>
    <path class="cls-1" d="M1484.38,882.75l-12.92,27.18.34.48,29.96-2.91,3.6,5.13-36.52,3.19-3.39-4.83,15.41-33.26,3.52,5.01h0Z"/>
    <path class="cls-1" d="M1392.65,930.85c2.38-1.29,4.73-2.05,7.07-2.28s4.57.04,6.7.82c2.13.77,4.14,2.05,6.02,3.83,1.89,1.77,3.56,4,5.01,6.68,1.83,3.37,3.04,6.81,3.63,10.33.59,3.51.76,6.92.51,10.22-.25,3.3-.84,6.41-1.77,9.35-.93,2.93-2,5.49-3.23,7.67l-7,3.8c1.5-3.11,2.76-6.03,3.77-8.76s1.75-5.41,2.22-8.05c.47-2.63.64-5.27.49-7.9-.14-2.64-.61-5.45-1.39-8.44l-.4.05c-.07,2.44-.66,4.76-1.76,6.96-1.11,2.19-3.06,4.05-5.87,5.58-1.99,1.08-3.98,1.74-5.97,1.98-2,.25-3.93.09-5.79-.46-1.86-.55-3.6-1.51-5.21-2.88s-2.98-3.11-4.14-5.23c-1.19-2.2-1.92-4.43-2.19-6.66-.26-2.24-.09-4.37.51-6.41.6-2.03,1.64-3.93,3.12-5.68s3.37-3.25,5.66-4.5v-.02ZM1395.21,935.42c-3.11,1.69-5.06,3.84-5.86,6.45-.79,2.61-.36,5.45,1.31,8.52l.28.52c1.67,3.07,3.81,4.98,6.43,5.74s5.49.29,8.6-1.39c3.11-1.69,5.07-3.84,5.86-6.45s.36-5.45-1.31-8.52l-.28-.52c-1.67-3.07-3.81-4.98-6.43-5.74s-5.49-.29-8.6,1.39Z"/>
    <path class="cls-1" d="M1348.99,953.93l4.36,9.12,22.9-10.95,2.36,4.92-4.6,42.03-8.12,3.88-15.66-32.75-6.92,3.31-2.19-4.6,6.92-3.31-4.36-9.12,5.33-2.55-.02.02ZM1373.45,959.08l-17.9,8.56,13.59,28.42.26-.13,4.05-36.85h0Z"/>
    <path class="cls-1" d="M1291.3,986.65l-19.44,22.98.21.55,29.71,4.84,2.17,5.88-36.13-6.24-2.04-5.54,23.39-28.22,2.13,5.75Z"/>
    <path class="cls-1" d="M1249.82,1001.67l-20.39,22.13.18.57,29.47,6.1,1.92,5.97-35.82-7.78-1.81-5.62,24.57-27.2,1.87,5.83h.01Z"/>
    <path class="cls-1" d="M1147.9,1022.15c2.63-.62,5.11-.74,7.42-.35,2.32.39,4.4,1.24,6.25,2.54,1.85,1.31,3.45,3.06,4.81,5.27,1.35,2.21,2.38,4.8,3.08,7.77.88,3.73,1.15,7.37.79,10.92-.35,3.55-1.08,6.88-2.19,9.99s-2.5,5.97-4.16,8.56c-1.66,2.59-3.37,4.78-5.13,6.56l-7.76,1.83c2.26-2.6,4.25-5.09,5.93-7.46,1.69-2.37,3.11-4.77,4.26-7.18,1.15-2.42,2-4.92,2.55-7.5s.84-5.42.87-8.51l-.39-.06c-.71,2.34-1.89,4.42-3.53,6.25s-4.01,3.11-7.13,3.84c-2.2.52-4.3.63-6.28.34-1.99-.29-3.81-.95-5.47-1.97-1.65-1.02-3.08-2.41-4.27-4.15s-2.07-3.78-2.62-6.13c-.58-2.44-.69-4.78-.36-7,.33-2.23,1.05-4.25,2.17-6.05,1.12-1.81,2.62-3.36,4.51-4.67,1.89-1.3,4.11-2.25,6.64-2.85h0ZM1149.18,1027.23c-3.44.81-5.89,2.38-7.34,4.69-1.45,2.32-1.78,5.17-.97,8.57l.13.58c.8,3.4,2.37,5.8,4.7,7.23,2.33,1.42,5.22,1.72,8.67.91s5.89-2.37,7.34-4.69c1.45-2.31,1.78-5.17.97-8.57l-.13-.57c-.8-3.4-2.37-5.81-4.7-7.23-2.33-1.42-5.22-1.72-8.67-.91h0Z"/>
    <path class="cls-1" d="M1113.21,1061.01c-3.53.69-6.01,1.99-7.47,3.9-1.46,1.9-1.94,4.09-1.46,6.54l.1.5c.52,2.69,1.78,4.54,3.76,5.55s4.34,1.24,7.1.7c2.7-.53,4.77-1.55,6.2-3.06,1.43-1.51,2.49-3.33,3.17-5.47l5.24,2.57c-.43,1.14-1,2.29-1.72,3.46-.72,1.17-1.62,2.26-2.7,3.27s-2.38,1.92-3.9,2.72c-1.52.8-3.32,1.4-5.4,1.81-2.17.43-4.25.55-6.24.37s-3.79-.68-5.4-1.49c-1.62-.81-2.97-1.93-4.09-3.37-1.11-1.43-1.86-3.16-2.26-5.18-.32-1.64-.36-3.16-.11-4.56s.73-2.67,1.44-3.81c.7-1.14,1.59-2.17,2.67-3.08,1.07-.91,2.25-1.67,3.54-2.27l-.06-.29c-1.46-.02-2.9-.22-4.33-.62s-2.75-1.01-3.97-1.85c-1.21-.84-2.27-1.94-3.16-3.29s-1.52-2.97-1.89-4.86c-.43-2.18-.4-4.26.09-6.23s1.37-3.76,2.63-5.34c1.27-1.58,2.91-2.94,4.91-4.09,2.01-1.15,4.31-1.98,6.92-2.49,2.22-.43,4.24-.58,6.04-.43,1.81.14,3.46.49,4.95,1.05s2.83,1.25,4.02,2.07c1.19.82,2.27,1.71,3.27,2.67l-3.88,4.37c-.87-.88-1.75-1.66-2.64-2.34s-1.86-1.22-2.92-1.65c-1.06-.42-2.22-.67-3.5-.78-1.27-.1-2.7,0-4.3.32-3.57.71-6.14,2.06-7.73,4.08-1.59,2.02-2.08,4.54-1.48,7.59l.12.58c.59,2.99,1.97,5.13,4.15,6.4s5.13,1.54,8.84.81l6.01-1.18,1.04,5.29-5.57,1.1h-.03Z"/>
    <path class="cls-1" d="M1035.57,1051.34l-24.18,17.91.07.59,27.8,11.52.77,6.23-33.73-14.36-.72-5.86,29.24-22.11.75,6.08Z"/>
    <path class="cls-1" d="M991.66,1056.52l-24.79,17.06.05.59,27.39,12.47.55,6.25-33.21-15.52-.51-5.88,29.99-21.08.54,6.1h-.01Z"/>
    <path class="cls-1" d="M887.58,1054.48c2.71-.05,5.15.35,7.33,1.22,2.18.86,4.04,2.13,5.57,3.79,1.53,1.67,2.73,3.72,3.6,6.17.86,2.44,1.32,5.18,1.38,8.23.08,3.83-.43,7.45-1.51,10.84-1.09,3.39-2.5,6.49-4.24,9.31s-3.69,5.32-5.86,7.5c-2.17,2.19-4.3,3.96-6.38,5.34l-7.97.16c2.76-2.07,5.21-4.09,7.36-6.05,2.15-1.97,4.04-4.01,5.67-6.13,1.63-2.13,2.98-4.39,4.07-6.8s1.96-5.12,2.64-8.14l-.37-.14c-1.19,2.14-2.77,3.93-4.76,5.37s-4.58,2.2-7.78,2.26c-2.26.05-4.34-.28-6.22-.98-1.88-.7-3.53-1.72-4.93-3.07-1.4-1.35-2.51-3-3.31-4.95-.8-1.96-1.23-4.13-1.28-6.55-.05-2.51.32-4.81,1.11-6.92.79-2.1,1.92-3.93,3.39-5.45,1.47-1.53,3.27-2.74,5.39-3.62,2.12-.87,4.49-1.34,7.09-1.4h0ZM887.76,1059.71c-3.54.07-6.26,1.09-8.16,3.05-1.9,1.96-2.82,4.68-2.75,8.17v.59c.08,3.49,1.11,6.18,3.09,8.05,1.98,1.88,4.74,2.78,8.28,2.71s6.26-1.09,8.17-3.05c1.9-1.96,2.82-4.68,2.75-8.17v-.59c-.08-3.49-1.11-6.18-3.09-8.05s-4.74-2.78-8.29-2.71h0Z"/>
    <path class="cls-1" d="M838.03,1055.46l-.12,10.11,25.38.32-.07,5.46-22.73,35.64-9-.11.46-36.3-7.67-.1.06-5.09,7.67.1.13-10.11,5.9.07h-.01ZM857.69,1070.91l-19.85-.25-.39,31.5h.29l19.95-31.25Z"/>
    <path class="cls-1" d="M771.64,1060.06l-27.29,12.71-.05.59,24.93,16.86-.49,6.25-30.17-20.83.47-5.89,33.08-15.79-.48,6.1h0Z"/>
    <path class="cls-1" d="M727.57,1056.35l-27.71,11.75-.07.59,24.34,17.71-.72,6.23-29.43-21.86.67-5.86,33.6-14.65-.69,6.09h.01Z"/>
    <path class="cls-1" d="M626.08,1033.37c2.66.5,4.97,1.39,6.93,2.69,1.96,1.29,3.52,2.91,4.68,4.86s1.91,4.2,2.26,6.76c.34,2.57.24,5.35-.32,8.35-.71,3.77-1.93,7.2-3.69,10.3-1.75,3.1-3.77,5.85-6.05,8.25-2.28,2.4-4.7,4.45-7.27,6.14-2.57,1.7-5.01,3-7.34,3.92l-7.83-1.47c3.13-1.47,5.94-2.94,8.45-4.42,2.5-1.48,4.77-3.1,6.8-4.84,2.03-1.75,3.82-3.69,5.37-5.83s2.96-4.61,4.24-7.43l-.33-.21c-1.6,1.85-3.51,3.28-5.76,4.29-2.24,1.01-4.93,1.21-8.07.63-2.22-.42-4.18-1.16-5.89-2.23-1.7-1.07-3.1-2.41-4.2-4.01-1.1-1.61-1.84-3.45-2.23-5.53-.39-2.07-.36-4.29.09-6.66.46-2.47,1.3-4.65,2.51-6.55,1.2-1.9,2.68-3.45,4.44-4.65,1.75-1.2,3.75-2.01,6.01-2.44,2.25-.43,4.67-.4,7.23.08h-.03ZM625.19,1038.53c-3.48-.65-6.35-.22-8.61,1.31s-3.72,4.01-4.36,7.44l-.11.58c-.64,3.43-.19,6.27,1.37,8.51,1.55,2.24,4.08,3.69,7.55,4.34,3.48.65,6.35.22,8.61-1.31s3.72-4.01,4.36-7.44l.11-.58c.64-3.43.19-6.27-1.37-8.51-1.55-2.24-4.08-3.69-7.55-4.34Z"/>
    <path class="cls-1" d="M578.75,1054.89c-3.5-.79-6.3-.61-8.4.55-2.1,1.16-3.43,2.95-3.98,5.39l-.11.5c-.6,2.68-.21,4.87,1.19,6.6s3.47,2.89,6.2,3.51c2.69.61,4.99.51,6.91-.29s3.63-2.04,5.12-3.72l3.75,4.48c-.85.86-1.84,1.69-2.97,2.47s-2.4,1.41-3.8,1.9c-1.39.49-2.95.79-4.67.91-1.71.11-3.6-.06-5.67-.52-2.16-.49-4.11-1.22-5.86-2.2-1.74-.97-3.19-2.16-4.34-3.55s-1.94-2.97-2.37-4.73-.42-3.64.03-5.66c.37-1.63.95-3.03,1.74-4.21.8-1.18,1.75-2.15,2.85-2.91,1.11-.76,2.34-1.33,3.68-1.73,1.35-.4,2.74-.61,4.15-.64l.07-.29c-1.33-.61-2.56-1.38-3.71-2.32s-2.11-2.04-2.89-3.31c-.77-1.26-1.29-2.69-1.56-4.29s-.19-3.33.23-5.21c.49-2.16,1.36-4.05,2.6-5.66,1.25-1.61,2.77-2.89,4.57-3.82,1.8-.93,3.85-1.51,6.14-1.75s4.74-.07,7.33.52c2.21.5,4.11,1.18,5.7,2.05s2.96,1.85,4.09,2.97c1.14,1.11,2.08,2.28,2.84,3.51s1.39,2.48,1.91,3.76l-5.31,2.43c-.44-1.16-.94-2.23-1.47-3.21s-1.2-1.87-2-2.68-1.76-1.52-2.88-2.13-2.48-1.09-4.06-1.45c-3.55-.8-6.46-.6-8.72.6-2.26,1.2-3.74,3.32-4.42,6.34l-.13.58c-.67,2.97-.27,5.49,1.21,7.53,1.48,2.05,4.06,3.49,7.76,4.32l5.97,1.35-1.19,5.25-5.54-1.26v.02Z"/>
    <path class="cls-1" d="M511.62,1014.49l-29.41,6.4-.17.57,20.62,21.93-1.86,5.99-24.85-26.95,1.75-5.64,35.74-8.14-1.82,5.85h0Z"/>
    <path class="cls-1" d="M469.62,1001.19l-29.65,5.16-.2.56,19.67,22.77-2.11,5.91-23.69-27.97,1.98-5.56,36.05-6.63-2.06,5.77h.01Z"/>
    <path class="cls-1" d="M376.56,955.11c2.45,1.14,4.47,2.58,6.05,4.31,1.58,1.73,2.69,3.69,3.34,5.86s.82,4.54.52,7.11c-.3,2.57-1.09,5.24-2.37,8.01-1.62,3.48-3.65,6.5-6.12,9.07s-5.1,4.74-7.9,6.5c-2.79,1.77-5.65,3.15-8.56,4.16s-5.6,1.67-8.07,1.99l-7.23-3.35c3.39-.65,6.48-1.38,9.28-2.2,2.79-.82,5.39-1.83,7.78-3.02,2.4-1.19,4.61-2.63,6.64-4.32,2.03-1.69,4.01-3.74,5.94-6.15l-.27-.29c-2.01,1.4-4.22,2.32-6.64,2.74s-5.08-.04-7.98-1.38c-2.05-.95-3.77-2.15-5.16-3.61s-2.41-3.1-3.08-4.93c-.67-1.83-.94-3.79-.8-5.9.14-2.1.71-4.26,1.72-6.44,1.05-2.27,2.4-4.18,4.04-5.73,1.64-1.54,3.45-2.68,5.44-3.41s4.14-1.03,6.43-.88c2.3.14,4.62.76,6.99,1.86h.01ZM374.42,959.89c-3.21-1.49-6.1-1.77-8.67-.85s-4.59,2.97-6.06,6.13l-.25.54c-1.47,3.17-1.73,6.03-.77,8.59.96,2.56,3.04,4.58,6.25,6.07s6.1,1.77,8.67.85,4.59-2.97,6.06-6.13l.25-.54c1.47-3.17,1.72-6.03.77-8.59-.95-2.56-3.04-4.58-6.25-6.07Z"/>
    <path class="cls-1" d="M332.09,933.96l-4.7,8.94,22.46,11.82-2.54,4.83-36.45,21.42-7.97-4.19,16.9-32.13-6.79-3.57,2.37-4.51,6.79,3.57,4.7-8.94,5.22,2.75h.01ZM342.58,956.65l-17.56-9.24-14.67,27.88.26.14,31.97-18.78Z"/>
    <path class="cls-1" d="M271.51,906.93l-29.99-2.45-.33.49,13.33,26.98-3.53,5.19-15.91-33.02,3.31-4.88,36.56,2.63-3.44,5.06Z"/>
    <path class="cls-1" d="M235.27,881.84l-29.78-4.38-.36.47,11.57,27.79-3.85,4.95-13.76-33.98,3.62-4.66,36.32,4.98-3.76,4.83h0Z"/>
    <path class="cls-1" d="M163.6,807.88c1.86,1.96,3.22,4.04,4.04,6.23.84,2.19,1.16,4.42.96,6.68s-.9,4.53-2.13,6.81c-1.22,2.28-2.93,4.47-5.14,6.58-2.78,2.65-5.79,4.71-9.03,6.2-3.23,1.48-6.48,2.54-9.73,3.15-3.25.62-6.41.86-9.49.74-3.07-.13-5.82-.5-8.24-1.12l-5.5-5.77c3.39.64,6.54,1.09,9.44,1.35,2.9.26,5.68.28,8.35.05,2.67-.23,5.25-.76,7.76-1.59s5.11-2.01,7.79-3.54l-.15-.37c-2.38.57-4.77.6-7.18.11-2.4-.49-4.71-1.9-6.92-4.21-1.56-1.64-2.72-3.39-3.47-5.25-.76-1.86-1.11-3.77-1.06-5.71.05-1.95.52-3.88,1.42-5.78.9-1.91,2.22-3.69,3.96-5.36,1.82-1.73,3.77-3.01,5.86-3.85s4.2-1.23,6.32-1.18,4.22.56,6.3,1.54c2.08.98,4.02,2.4,5.82,4.29h.02ZM159.86,811.54c-2.44-2.57-5.03-3.89-7.76-3.97s-5.36,1.08-7.88,3.48l-.43.41c-2.53,2.41-3.82,4.98-3.87,7.71-.05,2.73,1.15,5.38,3.59,7.94,2.44,2.57,5.03,3.89,7.76,3.97s5.36-1.08,7.88-3.49l.43-.41c2.53-2.41,3.82-4.98,3.86-7.71.05-2.73-1.15-5.38-3.59-7.94h.01Z"/>
    <path class="cls-1" d="M112.73,796.29c-2.24-2.8-4.54-4.41-6.91-4.82-2.36-.41-4.52.16-6.47,1.72l-.4.32c-2.14,1.71-3.21,3.67-3.19,5.89s.9,4.43,2.65,6.62c1.72,2.15,3.58,3.51,5.58,4.09,2,.57,4.11.67,6.32.29l.13,5.84c-1.2.14-2.49.16-3.86.06s-2.75-.4-4.15-.89c-1.39-.49-2.8-1.22-4.21-2.21-1.41-.98-2.77-2.3-4.1-3.95-1.38-1.73-2.45-3.52-3.2-5.37-.76-1.85-1.15-3.68-1.17-5.48s.34-3.53,1.1-5.17c.76-1.64,1.95-3.11,3.56-4.4,1.31-1.04,2.64-1.77,4-2.2,1.35-.42,2.7-.58,4.04-.49,1.33.1,2.66.41,3.96.95s2.52,1.23,3.65,2.09l.23-.19c-.66-1.3-1.14-2.68-1.45-4.13s-.37-2.91-.19-4.38c.19-1.47.67-2.91,1.46-4.33.79-1.42,1.94-2.72,3.44-3.92,1.73-1.38,3.59-2.31,5.57-2.79,1.98-.48,3.96-.52,5.95-.12,1.99.4,3.95,1.22,5.89,2.47,1.95,1.25,3.74,2.91,5.4,4.99,1.42,1.77,2.47,3.49,3.18,5.16.71,1.67,1.15,3.3,1.34,4.88s.2,3.09.02,4.52c-.17,1.43-.46,2.81-.85,4.13l-5.67-1.42c.38-1.18.66-2.32.85-3.42.2-1.1.23-2.21.11-3.35-.12-1.13-.42-2.29-.92-3.46-.5-1.17-1.26-2.4-2.27-3.67-2.27-2.84-4.66-4.5-7.18-4.98-2.52-.48-4.99.25-7.41,2.19l-.46.37c-2.38,1.9-3.64,4.11-3.77,6.64-.12,2.52.99,5.26,3.36,8.22l3.82,4.79-4.21,3.36-3.54-4.44h-.03Z"/>
    <path class="cls-1" d="M88.59,721.41l-25.05-16.68-.52.27-1.42,30.06-5.59,2.83,2.08-36.6,5.27-2.66,30.71,20.02-5.47,2.76h-.01Z"/>
    <path class="cls-1" d="M69.53,682.25l-22.91-19.52-.56.2-4.96,29.69-5.89,2.15,6.38-36.1,5.54-2.02,28.13,23.51-5.75,2.1h.02Z"/>
    <path class="cls-1" d="M53.13,581.64c.24,2.7,0,5.16-.71,7.4-.71,2.24-1.85,4.18-3.4,5.82-1.56,1.64-3.53,2.98-5.9,4.01-2.38,1.03-5.08,1.68-8.12,1.95-3.82.34-7.46.09-10.92-.76s-6.65-2.05-9.58-3.59c-2.93-1.54-5.56-3.32-7.88-5.33-2.33-2.01-4.25-4.01-5.76-6l-.71-7.94c2.26,2.61,4.44,4.92,6.55,6.93,2.1,2.01,4.27,3.75,6.5,5.23s4.59,2.68,7.06,3.59c2.48.92,5.24,1.61,8.3,2.07l.11-.38c-2.22-1.03-4.11-2.5-5.69-4.38s-2.51-4.42-2.79-7.6c-.2-2.25-.02-4.34.55-6.27s1.48-3.64,2.73-5.13,2.82-2.71,4.71-3.64c1.89-.93,4.03-1.51,6.44-1.72,2.5-.22,4.83-.01,6.98.64,2.16.65,4.04,1.65,5.68,3.01,1.63,1.36,2.95,3.07,3.97,5.13s1.65,4.38,1.88,6.98v-.02ZM47.92,582.18c-.32-3.53-1.52-6.17-3.6-7.94s-4.86-2.49-8.34-2.18l-.59.05c-3.48.31-6.09,1.52-7.82,3.63-1.74,2.1-2.45,4.92-2.14,8.45s1.52,6.18,3.6,7.94c2.08,1.77,4.87,2.49,8.35,2.18l.59-.05c3.48-.31,6.08-1.52,7.82-3.63,1.74-2.1,2.45-4.92,2.14-8.45h-.01Z"/>
    <path class="cls-1" d="M51.58,533.62l-10.1-.45-1.13,25.35-5.45-.24L0,534.42l.4-8.99,36.27,1.62.34-7.67,5.08.23-.34,7.67,10.1.45-.26,5.9h-.01ZM35.5,552.77l.89-19.83-31.47-1.4v.3l30.58,20.93h0Z"/>
    <path class="cls-1" d="M582.16,217.5h22.38c5.66,0,10.1,1.55,13.31,4.64,3.21,3.07,4.81,7.21,4.81,12.36,0,3.97-.95,7.09-2.87,9.36-1.92,2.26-4.4,3.87-7.41,4.81v.28c3.7.89,6.76,2.54,9.16,4.96,2.38,2.43,3.58,5.93,3.58,10.53,0,2.64-.45,5.13-1.32,7.46-.88,2.34-2.12,4.35-3.74,6.06-1.6,1.69-3.49,3.03-5.66,4.01-2.17.97-4.52,1.46-7.04,1.46h-25.21v-65.93h0ZM603.69,246.13c3.34,0,5.95-.74,7.82-2.21,1.89-1.48,2.84-3.74,2.84-6.76v-3.67c0-3.03-.95-5.29-2.84-6.81-1.88-1.51-4.49-2.26-7.82-2.26h-13.6v21.72h13.6ZM605.02,276.53c3.64,0,6.5-.81,8.59-2.44,2.08-1.64,3.1-4.17,3.1-7.56v-3.87c0-3.34-1.03-5.84-3.1-7.5-2.09-1.68-4.95-2.51-8.59-2.51h-14.93v23.89h14.93Z"/>
    <path class="cls-1" d="M676.31,283.43l-5.56-18.8h-23.15l-5.56,18.8h-8.22l20.21-65.93h10.48l20.21,65.93h-8.41ZM659.6,225.91h-.86l-9.25,31.83h19.37l-9.25-31.83h-.01Z"/>
    <path class="cls-1" d="M699.26,283.43v-65.93h7.93v59.03h31.26v6.9h-39.2.01Z"/>
    <path class="cls-1" d="M752.9,283.43v-6.33h16.43v-53.26h-16.43v-6.33h40.8v6.33h-16.43v53.26h16.43v6.33h-40.8Z"/>
    <path class="cls-1" d="M827.42,251.14l-9.45,11.14v21.15h-7.93v-65.93h7.93v34.39h.29l8.68-10.96,19.46-23.43h9.53l-23.13,27.78,23.79,38.15h-9.25l-19.92-32.29h0Z"/>
    <path class="cls-1" d="M867.37,217.5h22.38c5.66,0,10.1,1.55,13.31,4.64,3.21,3.07,4.81,7.21,4.81,12.36,0,3.97-.95,7.09-2.87,9.36-1.92,2.26-4.4,3.87-7.41,4.81v.28c3.7.89,6.76,2.54,9.16,4.96,2.38,2.43,3.58,5.93,3.58,10.53,0,2.64-.45,5.13-1.32,7.46-.88,2.34-2.12,4.35-3.74,6.06-1.6,1.69-3.49,3.03-5.66,4.01-2.17.97-4.52,1.46-7.04,1.46h-25.21v-65.93h0ZM888.91,246.13c3.34,0,5.95-.74,7.82-2.21,1.89-1.48,2.84-3.74,2.84-6.76v-3.67c0-3.03-.95-5.29-2.84-6.81-1.88-1.51-4.49-2.26-7.82-2.26h-13.6v21.72h13.6ZM890.23,276.53c3.64,0,6.5-.81,8.59-2.44,2.08-1.64,3.1-4.17,3.1-7.56v-3.87c0-3.34-1.03-5.84-3.1-7.5-2.09-1.68-4.95-2.51-8.59-2.51h-14.93v23.89h14.93Z"/>
    <path class="cls-1" d="M961.52,283.43l-5.56-18.8h-23.15l-5.56,18.8h-8.22l20.21-65.93h10.48l20.21,65.93h-8.41,0ZM944.81,225.91h-.86l-9.25,31.83h19.37l-9.25-31.83h-.01Z"/>
    <path class="cls-1" d="M997.49,283.43v-25.87l-22.76-40.06h9.07l9.45,17.2,8.02,15.02h.37l8.22-15.02,9.44-17.2h8.88l-22.76,40.06v25.87h-7.93,0Z"/>
    <path class="cls-1" d="M1075.59,283.43l-5.56-18.8h-23.15l-5.56,18.8h-8.22l20.21-65.93h10.48l20.21,65.93h-8.41,0ZM1058.88,225.91h-.86l-9.25,31.83h19.37l-9.25-31.83h-.01Z"/>
    <path class="cls-1" d="M1102.6,227.89h-.66v55.54h-7.16v-65.93h11.24l22.47,55.54h.66v-55.54h7.18v65.93h-11.24l-22.49-55.54Z"/>
    <path class="cls-1" d="M554.2,418.14v-65.93h23.99c6.1,0,10.76,1.68,13.97,5.01,3.21,3.34,4.81,7.99,4.81,13.97s-1.6,10.65-4.81,13.99c-3.21,3.34-7.87,5-13.97,5h-16.06v27.96h-7.93ZM562.13,383.29h15.86c3.34,0,5.93-.83,7.79-2.51,1.86-1.66,2.78-4.04,2.78-7.13v-4.9c0-3.09-.92-5.47-2.78-7.13-1.86-1.68-4.46-2.51-7.79-2.51h-15.86v24.18h0Z"/>
    <path class="cls-1" d="M643.92,388.19h-25.69v29.94h-7.93v-65.93h7.93v29.1h25.69v-29.1h7.93v65.93h-7.93v-29.94Z"/>
    <path class="cls-1" d="M667.71,418.14v-6.33h16.43v-53.26h-16.43v-6.33h40.8v6.33h-16.43v53.26h16.43v6.33h-40.8Z"/>
    <path class="cls-1" d="M728.15,418.14v-65.93h7.93v59.03h31.26v6.9h-39.2.01Z"/>
    <path class="cls-1" d="M781.8,418.14v-6.33h16.43v-53.26h-16.43v-6.33h40.8v6.33h-16.43v53.26h16.43v6.33h-40.8Z"/>
    <path class="cls-1" d="M839.41,418.14v-65.93h23.99c6.1,0,10.76,1.68,13.97,5.01,3.21,3.34,4.81,7.99,4.81,13.97s-1.6,10.65-4.81,13.99-7.87,5-13.97,5h-16.06v27.96h-7.93ZM847.34,383.29h15.86c3.34,0,5.93-.83,7.79-2.51,1.86-1.66,2.78-4.04,2.78-7.13v-4.9c0-3.09-.92-5.47-2.78-7.13-1.86-1.68-4.46-2.51-7.79-2.51h-15.86v24.18h0Z"/>
    <path class="cls-1" d="M896.45,418.14v-65.93h23.99c6.1,0,10.76,1.68,13.97,5.01,3.21,3.34,4.81,7.99,4.81,13.97s-1.6,10.65-4.81,13.99-7.87,5-13.97,5h-16.06v27.96h-7.93ZM904.38,383.29h15.86c3.34,0,5.93-.83,7.79-2.51,1.86-1.66,2.78-4.04,2.78-7.13v-4.9c0-3.09-.92-5.47-2.78-7.13-1.86-1.68-4.46-2.51-7.79-2.51h-15.86v24.18h0Z"/>
    <path class="cls-1" d="M952.91,418.14v-6.33h16.43v-53.26h-16.43v-6.33h40.8v6.33h-16.43v53.26h16.43v6.33h-40.8Z"/>
    <path class="cls-1" d="M1017.41,362.6h-.66v55.54h-7.16v-65.93h11.24l22.47,55.54h.66v-55.54h7.18v65.93h-11.24l-22.49-55.54Z"/>
    <path class="cls-1" d="M1067.56,418.14v-65.93h40.61v6.9h-32.68v22.2h31.54v6.89h-31.54v23.04h32.68v6.9h-40.61Z"/>
    <path class="cls-1" d="M1144.25,419.27c-5.92,0-10.78-1.11-14.54-3.3-3.78-2.2-6.9-5.01-9.36-8.41l5.76-4.72c2.58,3.21,5.3,5.6,8.18,7.18,2.86,1.57,6.27,2.35,10.24,2.35,4.8,0,8.44-1.09,10.96-3.27,2.52-2.2,3.78-5.27,3.78-9.21,0-3.2-.92-5.67-2.74-7.47-1.83-1.78-5.01-3.04-9.55-3.8l-7.36-1.23c-3.21-.57-5.9-1.41-8.07-2.55-2.18-1.14-3.92-2.51-5.24-4.12-1.32-1.6-2.27-3.37-2.84-5.29s-.85-3.92-.85-6.01c0-6.04,1.98-10.62,5.95-13.71s9.31-4.63,16.05-4.63c5.3,0,9.75.89,13.37,2.67,3.61,1.8,6.53,4.3,8.73,7.52l-5.56,4.83c-1.83-2.4-4.03-4.35-6.61-5.86-2.58-1.52-5.92-2.27-10.02-2.27-4.47,0-7.9.94-10.28,2.81-2.4,1.89-3.6,4.7-3.6,8.45,0,2.94.91,5.33,2.69,7.18,1.8,1.84,5.03,3.18,9.68,4l7.09,1.21c3.21.57,5.92,1.43,8.12,2.57,2.21,1.12,3.98,2.49,5.33,4.06,1.35,1.58,2.32,3.34,2.89,5.3.57,1.95.85,4,.85,6.13,0,6.12-2,10.91-5.99,14.37-4,3.47-9.68,5.21-17.05,5.21h0Z"/>
    <path class="cls-1" d="M590.67,835.27h18.41c8.05,0,14.06,2.78,18.03,8.32,3.97,5.55,5.95,13.76,5.95,24.66s-1.98,19.11-5.95,24.64c-3.97,5.55-9.98,8.32-18.03,8.32h-18.41v-65.93h0ZM608.7,894.3c5.29,0,9.27-1.81,11.94-5.47,2.67-3.64,4.03-8.81,4.03-15.48v-10.21c0-6.67-1.35-11.84-4.03-15.49-2.67-3.64-6.66-5.47-11.94-5.47h-10.1v52.12h10.1Z"/>
    <path class="cls-1" d="M647.24,901.2v-65.93h40.61v6.9h-32.68v22.2h31.54v6.89h-31.54v23.04h32.68v6.9h-40.61Z"/>
    <path class="cls-1" d="M704.28,901.2v-65.93h23.99c6.1,0,10.76,1.68,13.97,5.01,3.21,3.34,4.81,7.99,4.81,13.97s-1.6,10.65-4.81,13.99-7.87,5-13.97,5h-16.06v27.96h-7.93ZM712.21,866.35h15.86c3.34,0,5.93-.83,7.79-2.51,1.86-1.66,2.78-4.04,2.78-7.13v-4.9c0-3.09-.92-5.47-2.78-7.13-1.86-1.68-4.46-2.51-7.79-2.51h-15.86v24.18Z"/>
    <path class="cls-1" d="M798.25,901.2l-5.56-18.8h-23.15l-5.56,18.8h-8.22l20.21-65.93h10.48l20.21,65.93h-8.41ZM781.54,843.68h-.86l-9.25,31.83h19.37l-9.25-31.83h-.01Z"/>
    <path class="cls-1" d="M826.3,901.2h-7.93v-65.93h23.99c6.1,0,10.76,1.68,13.97,5.01s4.81,7.99,4.81,13.97c0,5.36-1.38,9.64-4.15,12.85s-6.81,5.07-12.1,5.58l16.82,28.51h-8.87l-16.06-28.14h-10.48v28.14h0ZM842.16,866.35c3.34,0,5.93-.83,7.79-2.51,1.86-1.66,2.78-4.04,2.78-7.13v-4.9c0-3.09-.92-5.47-2.78-7.13-1.86-1.68-4.46-2.51-7.79-2.51h-15.86v24.18h15.86Z"/>
    <path class="cls-1" d="M899.2,842.17v59.03h-7.93v-59.03h-22v-6.9h51.94v6.9h-22.01Z"/>
    <path class="cls-1" d="M939.45,835.27v39.58c0,3.21.09,6.07.28,8.59.18,2.52.69,4.67,1.51,6.47.83,1.8,2.09,3.17,3.83,4.1s4.13,1.41,7.22,1.41,5.5-.48,7.22-1.41c1.74-.94,3.01-2.31,3.83-4.1.81-1.8,1.32-3.95,1.51-6.47.2-2.52.29-5.38.29-8.59v-39.58h7.93v37.69c0,4.9-.23,9.19-.71,12.85-.48,3.64-1.44,6.7-2.94,9.15-1.48,2.46-3.58,4.3-6.32,5.53s-6.35,1.84-10.82,1.84-8.07-.61-10.81-1.84c-2.74-1.23-4.86-3.07-6.33-5.53-1.48-2.44-2.46-5.5-2.92-9.15-.48-3.66-.71-7.95-.71-12.85v-37.69h7.94Z"/>
    <path class="cls-1" d="M997.41,901.2h-7.93v-65.93h23.99c6.1,0,10.76,1.68,13.97,5.01,3.21,3.34,4.81,7.99,4.81,13.97,0,5.36-1.38,9.64-4.15,12.85s-6.81,5.07-12.1,5.58l16.82,28.51h-8.87l-16.06-28.14h-10.48v28.14h0ZM1013.27,866.35c3.34,0,5.93-.83,7.79-2.51,1.86-1.66,2.78-4.04,2.78-7.13v-4.9c0-3.09-.92-5.47-2.78-7.13-1.86-1.68-4.46-2.51-7.79-2.51h-15.86v24.18h15.86Z"/>
    <path class="cls-1" d="M1046.52,901.2v-65.93h40.61v6.9h-32.68v22.2h31.54v6.89h-31.54v23.04h32.68v6.9h-40.61Z"/>
    <path class="cls-1" d="M426.86,674.24l11.92-2.05c1.42,7.17,3.89,12.42,7.41,15.73,3.52,3.32,7.45,4.83,11.79,4.53,5.42-.37,9.93-3.18,13.52-8.43s5.09-12.21,4.51-20.84c-.55-8.12-2.87-14.29-6.97-18.51-4.1-4.21-9.01-6.13-14.75-5.74-3.46.23-6.64,1.43-9.53,3.57-2.89,2.15-5.1,5.01-6.62,8.6l-10.88-.98,5.12-58.98,46.25-3.13.9,13.33-37.17,2.51-2.91,30.9c5.21-5.15,10.9-7.94,17.1-8.36,7.8-.53,14.81,2.34,21.02,8.59,6.21,6.26,9.69,15.02,10.46,26.29.75,11.12-1.48,20.83-6.71,29.17-5.22,8.32-12.69,12.81-22.4,13.47-8.06.55-15.05-1.79-20.98-7.03-5.93-5.23-9.62-12.78-11.07-22.64h-.01Z"/>
    <path class="cls-1" d="M529.98,697.15l-6.78-100.18-30.68,2.08-.91-13.4,73.83-4.99.91,13.4-30.84,2.09,6.78,100.18-12.32.83h.01Z"/>
    <path class="cls-1" d="M585.53,693.39l-7.68-113.58,12.32-.83,3.15,46.64,48.42-3.28-3.15-46.64,12.32-.83,7.68,113.58-12.32.83-3.62-53.54-48.42,3.28,3.62,53.54-12.32.83h0Z"/>
    <path class="cls-1" d="M715.3,684.61l-7.68-113.58,18.52-1.25,27.55,78.92,5.56,16.51c.8-4.26,2.05-10.44,3.73-18.54l16.99-80.54,16.59-1.12,7.68,113.58-11.85.8-6.43-94.99-20.73,96.83-11.07.75-33.54-94.79,6.54,96.62-11.85.8h-.01Z"/>
    <path class="cls-1" d="M813.85,677.94l28.23-116.01,13.18-.89,45.82,111-14.1.95-13.17-33.67-39.18,2.65-7.8,35.08-13,.88h.02ZM837.42,629.5l31.73-2.15-11.81-30.8c-3.64-9.45-6.37-17.16-8.17-23.11-.71,7.36-1.92,14.72-3.63,22.04l-8.11,34.02h-.01Z"/>
    <path class="cls-1" d="M927.5,670.26l-3.25-48.11-40.29-63.04,15.05-1.02,20.6,33.05c4.07,6.53,7.69,12.73,10.83,18.59,2.34-6.14,5.28-13.06,8.82-20.78l15.82-34.65,14.24-.96-32.76,67.98,3.25,48.11-12.32.83h.01Z"/>
    <path class="cls-1" d="M1076.51,646.71l.91,13.4-61.59,4.17c-.52-5.41.71-11.6,3.69-18.55,2.98-6.95,8.73-15.31,17.26-25.08,9.97-11.37,16.41-20.08,19.33-26.12,2.92-6.03,4.2-11.56,3.86-16.58-.39-5.79-2.4-10.39-6.03-13.8s-7.92-4.96-12.88-4.62c-5.32.36-9.55,2.62-12.69,6.8-3.14,4.17-4.47,9.93-3.97,17.29l-11.88-.68c.09-10.95,2.62-19.36,7.59-25.22s11.82-9.09,20.55-9.68c9.51-.64,16.91,2.07,22.23,8.15,5.31,6.07,8.25,13.18,8.8,21.34.49,7.23-.96,14.28-4.33,21.18-3.37,6.89-10.03,16.23-19.98,28.02-6.35,7.44-10.42,12.5-12.24,15.16-1.82,2.67-3.26,5.31-4.33,7.93l45.71-3.09v-.02Z"/>
    <path class="cls-1" d="M1085.71,603.28c-1.29-19.06.31-33.67,4.78-43.83,4.47-10.16,11.73-15.58,21.74-16.26,8.89-.6,16.15,2.91,21.8,10.51,6.85,9.19,10.99,24.35,12.42,45.47,1.28,18.96-.3,33.53-4.75,43.71-4.45,10.19-11.71,15.62-21.78,16.3-8.89.6-16.45-3.25-22.69-11.54s-10.08-23.08-11.52-44.36h0ZM1097.41,602.45c1.25,18.45,3.86,30.71,7.82,36.74,3.97,6.04,8.73,8.87,14.27,8.5,5.23-.35,9.38-3.83,12.48-10.43,3.09-6.59,4.01-19.04,2.77-37.34-1.25-18.5-3.86-30.76-7.83-36.78-3.97-6.01-8.78-8.83-14.42-8.45-5.18.35-9.3,3.83-12.36,10.42-3.06,6.6-3.97,19.04-2.74,37.34h.01Z"/>
    <path class="cls-1" d="M1221.24,636.92l.91,13.4-61.59,4.17c-.52-5.41.71-11.6,3.69-18.55,2.98-6.95,8.73-15.31,17.26-25.08,9.97-11.37,16.41-20.08,19.33-26.12,2.92-6.03,4.2-11.56,3.86-16.58-.39-5.79-2.4-10.39-6.03-13.8s-7.92-4.96-12.88-4.62c-5.32.36-9.55,2.62-12.69,6.8-3.14,4.17-4.47,9.93-3.97,17.29l-11.88-.68c.09-10.95,2.62-19.36,7.59-25.22s11.82-9.09,20.55-9.68c9.51-.64,16.91,2.07,22.23,8.15,5.31,6.07,8.25,13.18,8.8,21.34.49,7.23-.96,14.28-4.33,21.18-3.37,6.89-10.03,16.23-19.98,28.02-6.35,7.44-10.42,12.5-12.24,15.16-1.82,2.67-3.26,5.31-4.33,7.93l45.71-3.09v-.02Z"/>
    <path class="cls-1" d="M1232.22,619.76l11.92-2.05c1.42,7.17,3.89,12.42,7.41,15.73,3.52,3.32,7.45,4.83,11.79,4.53,5.42-.37,9.93-3.18,13.52-8.43,3.59-5.26,5.09-12.21,4.51-20.84-.55-8.12-2.87-14.29-6.97-18.51-4.1-4.21-9.01-6.13-14.75-5.74-3.46.23-6.64,1.43-9.53,3.57-2.89,2.15-5.09,5.01-6.62,8.6l-10.88-.98,5.12-58.98,46.25-3.13.9,13.33-37.17,2.51-2.91,30.9c5.2-5.15,10.9-7.94,17.1-8.36,7.79-.53,14.8,2.34,21.01,8.59,6.21,6.26,9.69,15.02,10.46,26.29.75,11.12-1.49,20.83-6.71,29.17-5.22,8.32-12.69,12.81-22.4,13.47-8.06.55-15.05-1.79-20.98-7.03-5.93-5.23-9.62-12.78-11.07-22.64h0Z"/>
    <path class="cls-1" d="M860.85,1031.11h-.44c-20.59,0-41.44-.5-61.92-1.49-1.09-.05-1.93-.98-1.88-2.07s1.01-1.9,2.07-1.88c20.42.99,41.2,1.49,61.77,1.49,1.09,0,2.18.89,2.18,1.98s-.68,1.98-1.78,1.98h0ZM923.11,1029.58c-1.05,0-1.92-.82-1.97-1.88-.05-1.09.79-2.02,1.88-2.07,20.71-1.01,41.57-2.56,62.02-4.59,1.13-.1,2.06.69,2.16,1.77.11,1.09-.68,2.05-1.77,2.16-20.51,2.04-41.44,3.58-62.21,4.6h-.11ZM736.46,1025.06c-.06,0-.13,0-.2-.01-20.72-2.04-41.55-4.64-61.91-7.71-1.08-.16-1.82-1.17-1.66-2.25.16-1.08,1.16-1.82,2.25-1.66,20.29,3.06,41.05,5.65,61.71,7.68,1.09.11,1.88,1.07,1.77,2.16-.1,1.02-.96,1.78-1.96,1.78h0ZM1047.03,1017.24c-.96,0-1.8-.7-1.95-1.68-.16-1.08.58-2.09,1.66-2.25,20.56-3.12,41.15-6.8,61.21-10.95,1.09-.22,2.12.46,2.34,1.53s-.47,2.12-1.53,2.34c-20.13,4.17-40.79,7.86-61.42,10.99-.1.02-.2.02-.3.02h0ZM613.33,1006.44c-.13,0-.27-.01-.4-.04-20.49-4.22-40.92-9.03-60.74-14.3-1.05-.28-1.68-1.36-1.4-2.42.28-1.06,1.38-1.67,2.42-1.4,19.75,5.25,40.11,10.04,60.52,14.25,1.07.22,1.76,1.27,1.54,2.33-.19.93-1.01,1.58-1.93,1.58h0ZM1168.97,991.96c-.87,0-1.68-.58-1.91-1.47-.28-1.05.34-2.14,1.4-2.42,20.15-5.37,40.19-11.35,59.57-17.77,1.03-.35,2.16.22,2.5,1.25.34,1.04-.22,2.15-1.25,2.5-19.45,6.45-39.57,12.45-59.8,17.84-.17.05-.34.07-.51.07h0ZM492.99,974.4c-.21,0-.41-.03-.62-.1-19.96-6.6-39.67-13.83-58.6-21.48-1.01-.41-1.5-1.56-1.09-2.57.41-1.02,1.56-1.5,2.57-1.09,18.85,7.62,38.48,14.82,58.36,21.39,1.04.34,1.6,1.46,1.26,2.5-.28.83-1.05,1.36-1.88,1.36h0ZM1287.12,952.67c-.78,0-1.52-.47-1.83-1.24-.41-1.01.08-2.16,1.09-2.57,19.44-7.87,38.53-16.39,56.75-25.32.98-.48,2.16-.07,2.65.91.48.98.07,2.16-.91,2.65-18.3,8.97-37.48,17.53-57,25.44-.24.1-.49.14-.74.14h-.01ZM377.61,927.64c-.29,0-.59-.06-.86-.2-18.99-9.28-37.49-19.23-54.99-29.56-.94-.55-1.25-1.77-.69-2.71.55-.94,1.76-1.26,2.71-.69,17.41,10.28,35.81,20.18,54.71,29.42.98.48,1.39,1.66.91,2.64-.34.7-1.04,1.11-1.78,1.11h-.01ZM1398.82,897.74c-.68,0-1.33-.35-1.7-.97-.56-.94-.24-2.15.69-2.71,18.15-10.74,35.64-22.16,51.99-33.94.89-.64,2.13-.43,2.76.45.64.89.44,2.12-.45,2.76-16.44,11.85-34.04,23.33-52.29,34.13-.31.19-.66.28-1,.28h0ZM270.59,864.17c-.4,0-.8-.12-1.15-.37-17.29-12.42-33.71-25.53-48.82-38.95-.82-.73-.89-1.97-.16-2.79.73-.82,1.98-.89,2.79-.16,15.01,13.34,31.32,26.36,48.5,38.7.89.64,1.09,1.87.45,2.76-.39.54-.99.82-1.61.82h0ZM1499.56,824.81c-.54,0-1.09-.22-1.47-.66-.73-.82-.66-2.06.16-2.79,15.82-14.1,30.54-28.88,43.75-43.92.72-.82,1.97-.9,2.79-.18.82.72.9,1.97.18,2.79-13.31,15.16-28.14,30.05-44.08,44.26-.38.34-.85.5-1.31.5h-.02ZM177.95,781.32c-.55,0-1.09-.23-1.48-.67-14.14-16.05-26.89-32.76-37.91-49.67-.59-.91-.34-2.14.58-2.74.92-.59,2.14-.33,2.74.58,10.91,16.75,23.55,33.31,37.56,49.22.72.82.64,2.07-.17,2.79-.38.33-.84.49-1.31.49h0ZM1581.11,731.21c-.37,0-.74-.1-1.07-.32-.92-.59-1.18-1.82-.58-2.73,11.49-17.71,21.31-36.05,29.19-54.49.42-1.01,1.59-1.47,2.59-1.04,1,.43,1.47,1.59,1.04,2.59-7.97,18.65-17.89,37.19-29.51,55.09-.38.58-1.01.9-1.66.9ZM110.74,677.15c-.76,0-1.49-.45-1.82-1.2-8.37-19.46-14.78-39.48-19.07-59.5-.23-1.07.45-2.12,1.52-2.35,1.08-.23,2.12.45,2.35,1.52,4.23,19.77,10.57,39.54,18.84,58.77.43,1-.03,2.16-1.04,2.6-.25.11-.52.16-.78.16h0ZM1629.26,617.22c-.14,0-.27-.01-.41-.04-1.07-.22-1.75-1.27-1.52-2.34,4.26-20.18,6.42-40.8,6.42-61.29v-1.51c0-1.09.87-1.98,1.96-1.99h.01c1.09,0,1.97.88,1.98,1.97v1.54c0,20.75-2.19,41.65-6.51,62.1-.2.93-1.02,1.57-1.93,1.57h0ZM85.16,556.28c-1.09,0-1.98-.89-1.98-1.98v-.76c0-20.51,2.14-41.16,6.35-61.36.22-1.07,1.25-1.77,2.34-1.53,1.07.22,1.75,1.27,1.53,2.34-4.16,19.94-6.27,40.31-6.27,60.56v.76c0,1.09-.89,1.98-1.98,1.98h0ZM1628.93,492.29c-.91,0-1.73-.63-1.93-1.56-4.28-19.75-10.66-39.51-18.98-58.73-.43-1,.03-2.16,1.03-2.6.99-.44,2.16.03,2.6,1.03,8.42,19.45,14.88,39.46,19.21,59.46.23,1.07-.45,2.12-1.51,2.35-.14.03-.28.04-.42.04h0ZM110.13,435.33c-.26,0-.52-.05-.77-.16-1.01-.43-1.47-1.59-1.05-2.59,7.92-18.66,17.81-37.21,29.39-55.15.59-.91,1.82-1.18,2.73-.59.92.59,1.18,1.81.59,2.73-11.46,17.75-21.24,36.1-29.07,54.55-.32.75-1.05,1.2-1.82,1.2h0ZM1580.26,378.53c-.65,0-1.28-.31-1.66-.9-10.94-16.73-23.61-33.26-37.65-49.15-.72-.82-.65-2.07.17-2.79.81-.73,2.07-.65,2.79.17,14.17,16.03,26.95,32.72,38,49.61.6.91.34,2.14-.57,2.74-.33.22-.71.32-1.08.32h0ZM176.92,330.89c-.46,0-.93-.16-1.3-.49-.82-.72-.9-1.97-.19-2.79,13.3-15.19,28.11-30.11,44.02-44.33.82-.73,2.06-.66,2.79.16.73.81.66,2.06-.16,2.79-15.79,14.11-30.49,28.91-43.68,43.98-.39.45-.94.67-1.49.67h0ZM1498.39,285.19c-.47,0-.93-.16-1.31-.5-15.03-13.32-31.36-26.32-48.55-38.64-.89-.64-1.09-1.87-.46-2.76.64-.89,1.86-1.09,2.76-.46,17.3,12.39,33.74,25.48,48.87,38.89.82.73.89,1.97.17,2.79-.39.44-.93.67-1.48.67h0ZM269.33,247.78c-.61,0-1.22-.28-1.61-.82-.64-.89-.44-2.12.45-2.76,16.45-11.88,34.03-23.38,52.25-34.19.94-.56,2.15-.24,2.71.69.56.94.25,2.15-.69,2.71-18.12,10.75-35.6,22.19-51.95,34-.35.25-.76.37-1.16.37ZM1397.46,212.5c-.34,0-.68-.09-1-.27-17.43-10.27-35.85-20.15-54.74-29.37-.98-.48-1.39-1.66-.91-2.64.48-.98,1.66-1.38,2.64-.91,18.98,9.26,37.49,19.19,55.01,29.51.94.56,1.25,1.77.7,2.71-.37.63-1.03.97-1.71.97h.01ZM376.22,184.09c-.73,0-1.43-.41-1.78-1.1-.48-.98-.08-2.16.9-2.65,18.28-8.98,37.45-17.55,56.98-25.49,1.01-.41,2.16.08,2.58,1.09.41,1.01-.08,2.16-1.09,2.58-19.45,7.9-38.53,16.43-56.73,25.37-.28.14-.58.2-.87.2h.01ZM1285.67,157.79c-.25,0-.5-.05-.74-.14-18.9-7.62-38.54-14.8-58.38-21.34-1.03-.34-1.6-1.46-1.26-2.5s1.46-1.6,2.5-1.26c19.91,6.57,39.63,13.78,58.62,21.43,1.01.41,1.5,1.56,1.09,2.57-.31.77-1.05,1.24-1.83,1.24h0ZM491.51,137.13c-.83,0-1.6-.52-1.88-1.35-.34-1.03.22-2.15,1.25-2.5,19.42-6.46,39.54-12.48,59.79-17.89,1.07-.28,2.14.35,2.42,1.4.28,1.05-.34,2.14-1.4,2.42-20.17,5.39-40.21,11.38-59.56,17.82-.21.07-.42.1-.62.1h0ZM1167.47,118.68c-.17,0-.34-.02-.51-.07-19.77-5.23-40.13-10.01-60.53-14.21-1.07-.22-1.76-1.26-1.54-2.33.22-1.07,1.24-1.77,2.33-1.54,20.47,4.2,40.91,9,60.75,14.26,1.05.28,1.68,1.36,1.4,2.42-.23.89-1.03,1.47-1.91,1.47h.01ZM611.79,104.92c-.92,0-1.74-.64-1.93-1.57-.22-1.07.47-2.12,1.53-2.34,20.11-4.17,40.77-7.88,61.41-11.03,1.1-.17,2.09.58,2.25,1.65.16,1.08-.58,2.09-1.65,2.25-20.57,3.13-41.16,6.83-61.2,10.99-.14.03-.27.04-.4.04h0ZM1045.49,93.57c-.1,0-.2,0-.3-.02-20.29-3.05-41.06-5.62-61.71-7.64-1.09-.11-1.88-1.07-1.77-2.16s1.09-1.89,2.16-1.77c20.72,2.03,41.56,4.61,61.91,7.67,1.08.16,1.82,1.17,1.66,2.25-.15.98-.99,1.68-1.95,1.68h0ZM734.9,86.14c-1,0-1.86-.76-1.96-1.78-.11-1.09.68-2.05,1.77-2.16,20.51-2.05,41.44-3.61,62.21-4.64,1.04-.1,2.02.78,2.07,1.88.05,1.09-.78,2.02-1.88,2.07-20.71,1.03-41.57,2.58-62.02,4.63-.07,0-.13.01-.2.01h.01ZM921.55,81.39h-.1c-20.16-.96-40.69-1.45-61.01-1.45h-1.16c-1.09,0-1.98-.89-1.98-1.98s.89-1.98,1.98-1.98h1.16c20.39,0,40.98.49,61.2,1.46,1.09.05,1.93.98,1.88,2.07-.05,1.06-.92,1.88-1.97,1.88h0Z"/>
  </g>
</svg>