<?xml version="1.0" encoding="UTF-8"?>
<svg id="Layer_2" data-name="Layer 2" xmlns="http://www.w3.org/2000/svg" viewBox="0 0 1709.53 978.5">
  <defs>
    <style>
      .cls-1 {
        fill: #ee4e54;
      }
    </style>
  </defs>
  <g id="Layer_1-2" data-name="Layer 1">
    <g>
      <path class="cls-1" d="M413.4,362.85c11.28,0,20.4,5.36,27.36,16.09,6.96,10.72,10.44,29.48,10.44,56.28s-3.48,45.46-10.44,56.18-16.05,16.08-27.26,16.08-20.4-5.31-27.36-15.94-10.44-29.5-10.44-56.62,3.48-45.26,10.44-55.99c6.96-10.72,16.05-16.09,27.26-16.09h0ZM413.46,385.38c-4.4,0-7.91,2.9-10.53,8.69s-3.93,19.51-3.93,41.14,1.31,35.33,3.93,41.1c2.62,5.76,6.13,8.64,10.53,8.64s7.99-2.9,10.57-8.69c2.59-5.79,3.88-19.48,3.88-41.05s-1.29-35.35-3.88-41.14c-2.58-5.79-6.11-8.69-10.57-8.69Z"/>
      <path class="cls-1" d="M466.38,468.62l22.24-2.9c.58,6.19,2.48,11.05,5.7,14.6,3.22,3.54,6.77,5.32,10.64,5.32,4.57,0,8.51-2.27,11.79-6.8,3.29-4.54,4.94-11.5,4.94-20.89,0-8.88-1.63-15.44-4.89-19.68-3.26-4.25-7.41-6.37-12.44-6.37-6.4,0-12.14,3.45-17.24,10.34l-18.11-3.19,11.41-73.76h58.88v25.42h-41.88l-3.62,24.08c5.03-3.03,10.13-4.55,15.29-4.55,9.16,0,16.94,3.61,23.33,10.83,8.06,9.22,12.1,21.36,12.1,36.45,0,12.44-3.43,23.88-10.3,34.32-6.86,10.44-16.67,15.66-29.44,15.66-10.31,0-18.93-3.37-25.86-10.1s-11.11-16.32-12.52-28.76l-.02-.02Z"/>
      <path class="cls-1" d="M606.08,505.06v-141.73h35.09l21.13,96.77,20.96-96.77h35.26v141.73h-21.85v-111.66l-23.17,111.66h-22.57l-23-111.66v111.66h-21.85Z"/>
      <path class="cls-1" d="M846.52,505.06h-25.44l-10.18-32.1h-46.52l-9.61,32.1h-24.94l45.26-141.73h24.85l46.58,141.73ZM803.35,448.99l-16.05-52.59-15.74,52.59h31.79Z"/>
      <path class="cls-1" d="M874.46,505.06v-59.67l-42.54-82.06h27.46l27.31,56.04,26.93-56.04h26.97l-42.73,82.25v59.47h-23.4Z"/>
      <path class="cls-1" d="M1064.91,479.83v25.23h-78.11c.84-9.53,3.4-18.59,7.69-27.19,4.28-8.6,12.61-19.88,24.99-33.86,9.79-11.14,15.82-18.68,18.08-22.6,3.35-5.73,5.03-11.5,5.03-17.29,0-6.18-1.39-10.85-4.16-14.01-2.77-3.16-6.42-4.73-10.93-4.73-9.86,0-15.18,7.38-15.95,22.14l-22.14-2.71c1.35-14.44,5.37-25.04,12.04-31.81s15.55-10.15,26.64-10.15c12.18,0,21.36,3.96,27.55,11.88,6.19,7.92,9.28,17,9.28,27.24,0,5.79-.79,11.41-2.37,16.86-1.58,5.44-4.01,10.92-7.3,16.42-3.29,5.51-8.77,12.54-16.44,21.1-7.15,8.05-11.68,13.36-13.59,15.94-1.9,2.58-3.43,5.09-4.59,7.54h44.28,0Z"/>
      <path class="cls-1" d="M1117.6,362.85c11.28,0,20.4,5.36,27.36,16.09,6.96,10.72,10.44,29.48,10.44,56.28s-3.48,45.46-10.44,56.18-16.05,16.08-27.26,16.08-20.4-5.31-27.36-15.94-10.44-29.5-10.44-56.62,3.48-45.26,10.44-55.99c6.96-10.72,16.05-16.09,27.26-16.09h0ZM1117.65,385.38c-4.4,0-7.91,2.9-10.53,8.69s-3.93,19.51-3.93,41.14,1.31,35.33,3.93,41.1c2.62,5.76,6.13,8.64,10.53,8.64s7.99-2.9,10.57-8.69c2.59-5.79,3.88-19.48,3.88-41.05s-1.29-35.35-3.88-41.14c-2.58-5.79-6.11-8.69-10.57-8.69Z"/>
      <path class="cls-1" d="M1245.5,479.83v25.23h-78.11c.84-9.53,3.4-18.59,7.69-27.19,4.28-8.6,12.61-19.88,24.99-33.86,9.79-11.14,15.82-18.68,18.08-22.6,3.35-5.73,5.03-11.5,5.03-17.29,0-6.18-1.39-10.85-4.16-14.01-2.77-3.16-6.42-4.73-10.93-4.73-9.86,0-15.18,7.38-15.95,22.14l-22.14-2.71c1.35-14.44,5.37-25.04,12.04-31.81s15.55-10.15,26.64-10.15c12.18,0,21.36,3.96,27.55,11.88,6.19,7.92,9.28,17,9.28,27.24,0,5.79-.79,11.41-2.37,16.86-1.58,5.44-4.01,10.92-7.3,16.42-3.29,5.51-8.77,12.54-16.44,21.1-7.15,8.05-11.68,13.36-13.59,15.94-1.9,2.58-3.43,5.09-4.59,7.54h44.28,0Z"/>
      <path class="cls-1" d="M1260.87,468.62l22.24-2.9c.58,6.19,2.48,11.05,5.7,14.6,3.22,3.54,6.77,5.32,10.64,5.32,4.57,0,8.51-2.27,11.79-6.8,3.29-4.54,4.94-11.5,4.94-20.89,0-8.88-1.63-15.44-4.89-19.68-3.26-4.25-7.41-6.37-12.44-6.37-6.4,0-12.14,3.45-17.24,10.34l-18.11-3.19,11.41-73.76h58.88v25.42h-41.88l-3.62,24.08c5.03-3.03,10.13-4.55,15.29-4.55,9.16,0,16.94,3.61,23.33,10.83,8.06,9.22,12.1,21.36,12.1,36.45,0,12.44-3.43,23.88-10.3,34.32-6.86,10.44-16.67,15.66-29.44,15.66-10.31,0-18.93-3.37-25.86-10.1-6.93-6.73-11.11-16.32-12.52-28.76l-.02-.02Z"/>
      <path class="cls-1" d="M536.3,562.24c21.42,0,26.5,12.95,26.5,23.84s-4.48,17.79-9.68,21.3c7.5,3.27,14.28,9.44,14.28,23.24,0,13.07-4.96,28.44-25.78,28.44h-37.27v-96.81h31.95ZM517.78,601.57h17.79c5.93,0,13.92-4.36,13.92-14.52,0-9.08-7.26-12.83-14.28-12.83h-17.42v27.35h0ZM554.09,630.38c0-9.44-6.9-14.4-15.73-14.4h-20.57v30.5h20.21c9.07,0,16.09-3.03,16.09-16.09h0Z"/>
      <path class="cls-1" d="M603.81,562.24h16.7l24.44,96.81h-13.31l-5.32-21.9h-28.2l-5.33,21.9h-13.31l24.33-96.81ZM623.3,624.81l-11.14-47.8-11.01,47.8h22.15Z"/>
      <path class="cls-1" d="M661.4,562.24h13.43v83.99h47.32v12.83h-60.75v-96.81h0Z"/>
      <path class="cls-1" d="M738.47,562.24h13.31v96.81h-13.31v-96.81Z"/>
      <path class="cls-1" d="M801.64,611.26l-10.53,14.16v33.64h-13.31v-96.81h13.31v42.48l31.95-42.48h15.13l-28.08,37.76,32.31,59.06h-14.89l-25.9-47.8h.01Z"/>
      <path class="cls-1" d="M891.17,562.24c21.42,0,26.5,12.95,26.5,23.84s-4.48,17.79-9.68,21.3c7.5,3.27,14.28,9.44,14.28,23.24,0,13.07-4.96,28.44-25.78,28.44h-37.27v-96.81h31.95ZM872.66,601.57h17.79c5.93,0,13.92-4.36,13.92-14.52,0-9.08-7.26-12.83-14.28-12.83h-17.43v27.35h0ZM908.96,630.38c0-9.44-6.9-14.4-15.73-14.4h-20.57v30.5h20.21c9.07,0,16.09-3.03,16.09-16.09h0Z"/>
      <path class="cls-1" d="M958.69,562.24h16.7l24.44,96.81h-13.31l-5.32-21.9h-28.2l-5.32,21.9h-13.31l24.33-96.81h0ZM978.17,624.81l-11.14-47.8-11.01,47.8h22.15Z"/>
      <path class="cls-1" d="M1040.48,659.06h-13.44v-37.39l-24.69-59.42h13.56l17.91,45.62,17.79-45.62h13.56l-24.69,59.42v37.39h0Z"/>
      <path class="cls-1" d="M1089.49,562.24h16.7l24.44,96.81h-13.31l-5.32-21.9h-28.2l-5.32,21.9h-13.31l24.33-96.81h0ZM1108.97,624.81l-11.14-47.8-11.01,47.8h22.15Z"/>
      <path class="cls-1" d="M1161.95,562.24l31.71,67.04v-67.04h13.68v96.81h-15.25l-31.59-67.04v67.04h-13.8v-96.81h15.25Z"/>
      <polygon class="cls-1" points="1593.36 411.62 1606.28 451.38 1648.08 451.38 1614.26 475.95 1627.18 515.71 1593.36 491.14 1559.54 515.71 1572.46 475.95 1538.64 451.38 1580.44 451.38 1593.36 411.62"/>
      <polygon class="cls-1" points="119.4 411.62 132.32 451.38 174.12 451.38 140.31 475.95 153.22 515.71 119.4 491.14 85.59 515.71 98.5 475.95 64.69 451.38 106.49 451.38 119.4 411.62"/>
      <path class="cls-1" d="M854.77,978.5C383.45,978.5,0,759.02,0,489.25S383.45,0,854.77,0s854.76,219.48,854.76,489.25-383.44,489.25-854.76,489.25ZM854.77,10.54C389.26,10.54,10.54,225.29,10.54,489.25s378.72,478.71,844.23,478.71,844.22-214.75,844.22-478.71S1320.27,10.54,854.77,10.54Z"/>
      <path class="cls-1" d="M854.77,955.02c-457.8,0-830.25-208.95-830.25-465.77S396.97,23.48,854.77,23.48s830.24,208.95,830.24,465.77-372.45,465.77-830.24,465.77ZM854.77,34.02C402.79,34.02,35.06,238.24,35.06,489.25s367.72,455.23,819.71,455.23,819.7-204.22,819.7-455.23S1306.75,34.02,854.77,34.02h0Z"/>
      <path class="cls-1" d="M856.38,796.38c-178.49,0-346.39-31.63-472.74-89.07-127.69-58.04-198-135.71-198-218.69s70.32-160.65,198-218.69c126.36-57.44,294.25-89.07,472.74-89.07s346.38,31.63,472.74,89.07c127.69,58.04,198,135.7,198,218.69s-70.32,160.65-198,218.69c-126.36,57.44-294.25,89.07-472.74,89.07ZM856.38,191.4c-364.04,0-660.21,133.33-660.21,297.22s296.17,297.22,660.21,297.22,660.21-133.33,660.21-297.22-296.17-297.22-660.21-297.22h0Z"/>
      <path class="cls-1" d="M519.05,873.96l21.43-83.92,13.5,3.45,13.86,63.23,14.31-56.04,12.94,3.3-21.42,83.92-13.97-3.56-13.74-61.8-13.97,54.72-12.94-3.3h0Z"/>
      <path class="cls-1" d="M592.11,891.73l15.48-85.22,51.85,9.42-2.62,14.42-37.78-6.87-3.43,18.9,35.11,6.38-2.61,14.36-35.11-6.38-4.2,23.13,39.06,7.1-2.62,14.42-53.13-9.65h0Z"/>
      <path class="cls-1" d="M670.74,905.14l-7.14-87.97,14.62,1.65,3.87,60.35,19.61-57.68,16.99,1.92,5.56,61.55,17.71-58.91,14.33,1.63-26.91,84.11-15.17-1.72-6.78-65.96-21.28,62.78-15.4-1.75h0Z"/>
      <path class="cls-1" d="M779.52,915.41l.52-15.83,39.12-54.88-33.1-1.09.48-14.64,51.96,1.7-.44,13.58-40.76,57.07,40.39,1.32-.48,14.65-57.69-1.88h0Z"/>
      <path class="cls-1" d="M848.8,917.33l-1.26-86.6,52.69-.77.21,14.65-38.4.56.28,19.2,35.68-.52.22,14.59-35.68.52.34,23.51,39.7-.58.21,14.65-53.99.79h0Z"/>
      <path class="cls-1" d="M981.6,911.78l-15.51,1.01-7.49-19.17-28.37,1.86-4.58,19.96-15.21.99,21.94-88.23,15.15-1,34.07,84.57h0ZM953.03,879.31l-11.88-31.43-7.5,32.7,19.39-1.27h-.01Z"/>
      <path class="cls-1" d="M992.04,910.53l-9.76-85.34,14.2-1.63,8.1,70.79,35.45-4.06,1.67,14.56-49.66,5.68h0Z"/>
      <path class="cls-1" d="M1117.65,892.76l-15.34,2.51-9.31-18.35-28.05,4.6-2.63,20.3-15.04,2.47,13.29-89.95,14.99-2.46,42.1,80.88h0ZM1086.07,863.21l-14.87-30.13-4.3,33.27,19.17-3.14Z"/>
      <path class="cls-1" d="M1127.96,890.58l-18.45-84.62,13.62-2.96,40.72,50.32-12.32-56.52,13.05-2.84,18.45,84.63-14.09,3.06-39.97-49.09,12.03,55.19-13.05,2.84h0Z"/>
      <path class="cls-1" d="M1176.94,790.97l25.22-6.92c6.37-1.75,11.37-2.36,15.01-1.82,3.63.53,7.28,2.11,10.94,4.74,3.66,2.63,7.01,6.43,10.05,11.39,3.04,4.97,5.66,11.46,7.86,19.47,1.98,7.21,2.89,13.72,2.72,19.5-.16,5.79-1.07,10.58-2.72,14.38s-4.03,6.98-7.14,9.53c-3.12,2.55-7.46,4.59-13.04,6.12l-25.95,7.13-22.95-83.52ZM1194.61,801.31l15.18,55.26,10.37-2.85c4.44-1.22,7.55-2.52,9.31-3.91,1.76-1.38,3.05-3.1,3.86-5.13.81-2.04,1.12-4.99.96-8.86-.17-3.87-1.07-8.78-2.7-14.74-1.7-6.18-3.47-10.94-5.3-14.27-1.83-3.33-3.93-5.77-6.3-7.33-2.37-1.55-4.93-2.29-7.69-2.23-2.07.04-5.88.82-11.42,2.34l-6.26,1.72h-.01Z"/>
      <path class="cls-1" d="M410.1,229.37l-30.71-80.99,21.55-8.17c8.03-3.05,13.42-4.65,16.18-4.81,4.42-.24,8.68,1.2,12.79,4.32,4.11,3.11,7.39,7.9,9.83,14.34,2.22,5.85,2.97,11.18,2.26,15.98-.71,4.8-2.42,8.62-5.12,11.48-2.71,2.86-8.11,5.83-16.22,8.9l-8.78,3.33,11.58,30.55-13.37,5.07h0ZM397.95,157.01l8.74,23.03,7.42-2.81c4.99-1.89,8.24-3.52,9.76-4.91,1.53-1.38,2.51-3.2,2.96-5.46s.17-4.72-.83-7.38c-1.02-2.69-2.48-4.74-4.36-6.14s-3.81-2.08-5.78-2.05c-1.98.03-5.76,1.11-11.38,3.24l-6.54,2.48h.01Z"/>
      <path class="cls-1" d="M525.22,190.68l-14.88,4.49-11.62-16.98-27.22,8.22.05,20.48-14.59,4.41,1.44-90.91,14.54-4.39,52.29,74.69h0ZM490.07,165.5l-18.68-27.93.08,33.55,18.6-5.62Z"/>
      <path class="cls-1" d="M521.33,162.74l13.26-4.79c4.04,10.42,10.33,14.64,18.85,12.65,4.22-.99,7.28-2.86,9.18-5.63,1.9-2.77,2.48-5.78,1.71-9.04-.44-1.92-1.25-3.45-2.4-4.59-1.16-1.14-2.7-1.95-4.62-2.41-1.93-.46-6.45-.93-13.56-1.42-6.37-.41-11.18-1.35-14.42-2.81-3.26-1.46-6.1-3.72-8.53-6.77-2.43-3.05-4.11-6.55-5.03-10.5-1.08-4.6-1-8.98.24-13.15,1.23-4.16,3.46-7.62,6.71-10.35s7.57-4.73,12.98-6c8.13-1.9,14.99-1.17,20.58,2.18s9.48,9.09,11.67,17.24l-13.81,4.01c-1.67-4.38-3.74-7.24-6.19-8.57s-5.56-1.55-9.32-.68-6.47,2.33-8.14,4.37c-1.67,2.05-2.23,4.24-1.69,6.57.54,2.29,1.91,4.01,4.12,5.15,2.21,1.13,6.85,1.87,13.93,2.2,7.49.4,13.06,1.36,16.71,2.87s6.71,3.85,9.18,7.02c2.49,3.16,4.31,7.27,5.49,12.34,1.71,7.33.89,14.01-2.45,20.04-3.34,6.04-9.81,10.17-19.4,12.41-16.95,3.95-28.64-3.49-35.06-22.34h.01Z"/>
      <path class="cls-1" d="M586.2,147.85l13.52-4.02c3.44,10.64,9.46,15.21,18.08,13.72,4.27-.74,7.43-2.44,9.49-5.09,2.05-2.65,2.79-5.63,2.23-8.93-.34-1.94-1.04-3.51-2.14-4.72-1.09-1.21-2.59-2.1-4.48-2.67-1.9-.57-6.38-1.3-13.45-2.19-6.33-.78-11.08-1.99-14.24-3.64-3.17-1.65-5.87-4.07-8.12-7.25-2.25-3.19-3.73-6.77-4.42-10.77-.8-4.65-.47-9.02,1-13.11,1.47-4.09,3.91-7.41,7.3-9.95,3.39-2.55,7.83-4.29,13.3-5.24,8.23-1.42,15.04-.31,20.43,3.36,5.39,3.66,8.94,9.62,10.65,17.88l-14.02,3.21c-1.41-4.47-3.3-7.44-5.67-8.91-2.38-1.47-5.47-1.87-9.27-1.21-3.81.66-6.6,1.96-8.38,3.9-1.79,1.94-2.47,4.09-2.06,6.45.4,2.32,1.67,4.11,3.81,5.38,2.14,1.26,6.73,2.27,13.78,3.01,7.46.83,12.96,2.1,16.51,3.83,3.56,1.72,6.48,4.24,8.77,7.53,2.3,3.3,3.89,7.51,4.77,12.63,1.29,7.41.08,14.03-3.6,19.87-3.68,5.83-10.38,9.59-20.09,11.27-17.15,2.97-28.39-5.14-33.71-24.32v-.02Z"/>
      <path class="cls-1" d="M658.63,164.35l-9.95-86.04,22.89-2.65c8.53-.99,14.16-1.22,16.87-.71,4.34.85,8.13,3.28,11.34,7.31,3.22,4.03,5.23,9.47,6.03,16.31.72,6.22.14,11.57-1.71,16.05-1.87,4.48-4.46,7.77-7.78,9.88s-9.29,3.66-17.9,4.66l-9.33,1.08,3.75,32.46-14.2,1.64h0ZM664.56,91.22l2.83,24.48,7.89-.91c5.3-.61,8.85-1.4,10.66-2.37,1.82-.96,3.22-2.49,4.21-4.57.99-2.08,1.32-4.53,1-7.36-.33-2.86-1.24-5.2-2.72-7.02s-3.19-2.95-5.11-3.4c-1.91-.45-5.86-.34-11.82.35l-6.94.81h0Z"/>
      <path class="cls-1" d="M718.01,114.55c-.56-10.31.5-18.87,3.19-25.71,2.69-6.83,6.4-12.01,11.14-15.54,4.73-3.53,10.61-5.49,17.61-5.87,10.15-.55,18.63,2.87,25.44,10.27s10.61,18.26,11.39,32.57c.78,14.47-1.98,25.97-8.31,34.47-5.54,7.52-13.41,11.56-23.6,12.11-10.26.56-18.56-2.56-24.88-9.36-7.21-7.77-11.2-18.76-11.98-32.96v.02ZM732.73,113.16c.54,9.95,2.84,17.31,6.89,22.08,4.06,4.77,8.88,7,14.47,6.7,5.63-.31,10.17-3.03,13.6-8.17,3.43-5.14,4.87-12.82,4.31-23.04-.55-10.03-2.75-17.34-6.61-21.95-3.86-4.6-8.71-6.74-14.54-6.43-5.83.32-10.44,3-13.84,8.03-3.4,5.04-4.82,12.63-4.27,22.77h0Z"/>
      <path class="cls-1" d="M799.08,153.49l.77-86.61,30.19.27c7.72.07,13.22.89,16.52,2.48,3.29,1.58,5.99,4.31,8.08,8.16,2.09,3.86,3.12,8.47,3.07,13.83-.06,6.77-1.73,12.21-5.02,16.32-3.29,4.11-7.93,6.67-13.93,7.68,3.05,2.23,5.57,4.67,7.56,7.31s4.68,7.36,8.08,14.16l8.48,16.97-17.11-.15-10.21-18.94c-3.67-6.85-6.17-11.13-7.49-12.86-1.33-1.72-2.73-2.92-4.22-3.58-1.5-.66-3.9-1.01-7.2-1.03l-2.96-.03-.32,36.15-14.3-.13h0ZM813.81,103.63l10.63.1c6.5.06,10.64-.19,12.42-.75,1.78-.55,3.23-1.7,4.34-3.42,1.12-1.72,1.69-4.02,1.71-6.9.03-2.76-.51-4.98-1.59-6.66-1.09-1.69-2.58-2.85-4.46-3.5-1.34-.45-5.21-.7-11.63-.75l-11.22-.1-.2,21.98Z"/>
      <path class="cls-1" d="M885.57,155.66l4-71.85-21.05-1.18.82-14.63,56.34,3.14-.82,14.63-21-1.17-4.01,71.85-14.27-.8h-.01Z"/>
      <path class="cls-1" d="M958.12,117.45c1.04-10.27,3.41-18.57,7.12-24.9s8.18-10.88,13.4-13.64c5.23-2.76,11.33-3.78,18.31-3.08,10.11,1.02,17.96,5.72,23.54,14.08,5.58,8.36,7.66,19.68,6.22,33.94-1.46,14.42-5.97,25.35-13.53,32.78-6.64,6.57-15.04,9.35-25.19,8.32-10.23-1.03-17.94-5.4-23.14-13.09-5.92-8.79-8.16-20.26-6.74-34.41h0ZM972.88,118.35c-1.01,9.91.12,17.54,3.39,22.87,3.27,5.34,7.69,8.29,13.26,8.85,5.61.57,10.52-1.42,14.7-5.97,4.18-4.55,6.79-11.91,7.82-22.1,1.02-10-.04-17.56-3.14-22.71-3.11-5.15-7.56-8.01-13.37-8.6-5.81-.59-10.79,1.34-14.92,5.79-4.14,4.45-6.72,11.73-7.74,21.85v.02Z"/>
      <path class="cls-1" d="M1032.8,168.38l12.11-85.76,48.2,6.8-2.05,14.51-34.04-4.81-2.87,20.3,29.48,4.16-2.04,14.51-29.49-4.16-5.14,36.45-14.16-2h0Z"/>
      <path class="cls-1" d="M1091.9,176.97l15.71-85.17,47.87,8.83-2.65,14.41-33.82-6.23-3.72,20.16,29.28,5.4-2.66,14.41-29.28-5.4-6.67,36.2-14.06-2.59v-.02Z"/>
      <path class="cls-1" d="M1150.08,188.23l18.84-84.54,13.96,3.11-18.85,84.54-13.95-3.11Z"/>
      <path class="cls-1" d="M1228.88,175.32l11.93,8.9c-4.68,8.75-10.04,14.61-16.09,17.57-6.06,2.96-12.63,3.45-19.73,1.48-8.92-2.48-15.19-7.92-18.82-16.33-4.18-9.7-4.39-21.29-.65-34.76,3.95-14.23,10.25-24.48,18.9-30.74,7.52-5.43,15.99-6.84,25.42-4.23,7.68,2.13,13.37,6.53,17.08,13.2,2.65,4.74,3.81,11.01,3.49,18.81l-14.77.2c.39-4.76-.4-8.71-2.33-11.84-1.93-3.13-4.67-5.19-8.21-6.17-5.06-1.41-9.79-.35-14.21,3.17-4.42,3.51-8.03,10.34-10.84,20.47-2.92,10.52-3.44,18.42-1.56,23.73,1.88,5.3,5.31,8.65,10.27,10.02,3.65,1.01,7.19.47,10.63-1.62,3.44-2.09,6.6-6.04,9.49-11.87h0Z"/>
      <path class="cls-1" d="M1243.33,212.86l31.83-80.55,49.01,19.37-5.39,13.62-35.71-14.11-7.06,17.86,33.19,13.11-5.36,13.57-33.19-13.11-8.64,21.87,36.93,14.59-5.39,13.63-50.22-19.84h0Z"/>
    </g>
  </g>
</svg>