<?xml version="1.0" encoding="UTF-8"?>
<svg id="Layer_2" data-name="Layer 2" xmlns="http://www.w3.org/2000/svg" viewBox="0 0 1156.2 1094.54">
  <defs>
    <style>
      .cls-1 {
        fill: #2d957b;
      }
    </style>
  </defs>
  <g id="Layer_1-2" data-name="Layer 1">
    <g>
      <path class="cls-1" d="M217.59,488.24h32.6c8.9,0,15.16.81,18.78,2.44,3.61,1.63,6.66,4.49,9.15,8.6,2.49,4.11,3.73,8.75,3.73,13.95,0,4.79-1.07,9.1-3.2,12.96-2.13,3.86-4.89,6.72-8.29,8.56,4.82,1.72,8.6,4.65,11.33,8.81,2.72,4.15,4.09,9.21,4.09,15.17,0,7.22-1.74,13.32-5.21,18.31-3.48,4.99-7.58,8.07-12.32,9.24-3.3.81-10.95,1.22-22.95,1.22h-27.69v-99.25h-.02ZM233.98,504.76v22.95h10.83c6.5,0,10.52-.11,12.05-.34,2.8-.45,4.99-1.63,6.57-3.55s2.37-4.52,2.37-7.82c0-2.93-.64-5.32-1.93-7.14s-2.84-2.96-4.67-3.42c-1.83-.45-7.08-.68-15.74-.68h-9.48ZM233.98,544.23v26.47h15.26c6.69,0,10.99-.34,12.89-1.04,1.9-.7,3.49-2.07,4.78-4.12,1.29-2.05,1.93-4.65,1.93-7.8s-.69-5.91-2.07-8-3.21-3.54-5.49-4.32c-2.28-.79-6.96-1.18-14.01-1.18h-13.3,0Z"/>
      <path class="cls-1" d="M373.11,587.5h-17.81l-7.13-22.48h-32.58l-6.73,22.48h-17.47l31.69-99.25h17.4l32.62,99.25h0ZM342.88,548.22l-11.24-36.83-11.03,36.83h22.27Z"/>
      <path class="cls-1" d="M382.18,587.5v-98.44h16.39v81.65h40.89v16.79h-57.28Z"/>
      <path class="cls-1" d="M450.7,587.5v-99.25h16.38v99.25h-16.38Z"/>
      <path class="cls-1" d="M482.99,587.5v-99.25h16.39v44.19l33.27-44.19h22.14l-30.69,38.68,32.32,60.57h-21.27l-22.45-46.65-13.32,16.65v29.99h-16.39Z"/>
      <path class="cls-1" d="M564.85,488.24h32.6c8.9,0,15.16.81,18.78,2.44,3.61,1.63,6.66,4.49,9.15,8.6,2.49,4.11,3.73,8.75,3.73,13.95,0,4.79-1.07,9.1-3.2,12.96-2.13,3.86-4.89,6.72-8.29,8.56,4.82,1.72,8.6,4.65,11.33,8.81,2.72,4.15,4.09,9.21,4.09,15.17,0,7.22-1.74,13.32-5.21,18.31-3.48,4.99-7.58,8.07-12.32,9.24-3.3.81-10.95,1.22-22.95,1.22h-27.69v-99.25h-.02ZM581.23,504.76v22.95h10.83c6.5,0,10.52-.11,12.05-.34,2.8-.45,4.99-1.63,6.57-3.55s2.37-4.52,2.37-7.82c0-2.93-.64-5.32-1.93-7.14s-2.84-2.96-4.67-3.42c-1.83-.45-7.08-.68-15.74-.68h-9.48ZM581.23,544.23v26.47h15.26c6.69,0,10.99-.34,12.89-1.04,1.9-.7,3.49-2.07,4.78-4.12,1.29-2.05,1.93-4.65,1.93-7.8s-.69-5.91-2.07-8-3.21-3.54-5.49-4.32c-2.28-.79-6.96-1.18-14.01-1.18h-13.3,0Z"/>
      <path class="cls-1" d="M720.36,587.5h-17.81l-7.13-22.48h-32.58l-6.73,22.48h-17.47l31.69-99.25h17.4l32.62,99.25h.01ZM690.13,548.22l-11.24-36.83-11.03,36.83h22.27Z"/>
      <path class="cls-1" d="M739.93,587.5v-41.79l-29.79-57.47h19.23l19.12,39.25,18.86-39.25h18.89l-29.93,57.6v41.65h-16.38,0Z"/>
      <path class="cls-1" d="M857.39,587.5h-17.81l-7.13-22.48h-32.58l-6.73,22.48h-17.47l31.69-99.25h17.4l32.62,99.25h.01ZM827.16,548.22l-11.24-36.83-11.02,36.83h22.26Z"/>
      <path class="cls-1" d="M866.2,587.5v-99.25h15.97l33.31,66.28v-66.28h15.3v99.25h-16.52l-32.77-64.72v64.72h-15.3.01Z"/>
      <path class="cls-1" d="M363.79,38.19h-13.96v21.76h13.96c6.33,0,10.23-3.38,10.23-11.01s-4.25-10.75-10.23-10.75Z"/>
      <path class="cls-1" d="M307.2,38.19h-13.95v21.76h13.95c6.33,0,10.23-3.38,10.23-11.01s-4.25-10.75-10.23-10.75Z"/>
      <path class="cls-1" d="M.82,7.19v109.18h3.86v5.44h129.71v-5.44h508.91V7.19H.82ZM75.3,69.04h-15.08v29.9h-9.53V29.6h24.62c7.63,0,18.29,3.12,18.29,19.33s-10.66,20.11-18.29,20.11h-.01ZM150.53,98.95h-9.54v-32.77h-24.18v32.77h-9.54V29.61h9.54v27.74h24.18v-27.74h9.54v69.34ZM178.68,98.95h-9.54V29.61h9.54v69.34ZM240.39,98.95h-43.52V29.61h9.62v60.16h33.89v9.19h.01ZM265.08,98.95h-9.54V29.61h9.54v69.34ZM308.33,69.04h-15.08v29.9h-9.54V29.6h24.62c7.63,0,18.29,3.12,18.29,19.33s-10.66,20.11-18.29,20.11h0ZM364.92,69.04h-15.08v29.9h-9.53V29.6h24.62c7.63,0,18.29,3.12,18.29,19.33s-10.66,20.11-18.29,20.11h0ZM409.46,98.95h-9.54V29.61h9.54v69.34ZM470.82,98.95h-10.92l-22.62-48.02v48.02h-9.88V29.61h10.92l22.71,48.02V29.61h9.8v69.34h-.01ZM530.62,39.14h-33.72v16.21h22.28v9.54h-22.28v24.53h33.72v9.54h-43.34V29.62h43.34v9.54-.02ZM564.58,99.9c-9.8,0-21.06-4.77-21.06-20.72h9.53c0,7.37,4.42,12.13,11.96,12.13s10.75-3.55,10.75-10.4c0-5.2-2.43-10.49-13.09-13.44-11.27-3.12-18.2-8.32-18.2-21.06,0-14.39,11.1-17.77,19.76-17.77,10.23,0,19.42,4.86,19.42,20.8h-9.45c0-7.37-3.64-12.22-10.14-12.22-5.64,0-9.8,2.51-9.8,9.45,0,5.12,2.25,8.84,11.01,11.36,10.49,3.04,20.2,7.28,20.2,22.45,0,17.59-12.22,19.42-20.89,19.42Z"/>
      <path class="cls-1" d="M74.17,38.19h-13.96v21.76h13.96c6.33,0,10.23-3.38,10.23-11.01s-4.25-10.75-10.23-10.75Z"/>
      <path class="cls-1" d="M188.7,1007.34h-12.13v18.91h12.13c5.5,0,8.89-2.94,8.89-9.57s-3.69-9.34-8.89-9.34h0Z"/>
      <path class="cls-1" d="M5.46,971.89v109.34h572.64v-109.34H5.46ZM84.83,1060.16h-18.08v-60.28h18.08c14.69,0,20.04,8.37,20.04,30.21s-5.35,30.06-20.04,30.06h0ZM155.3,1008.17h-29.31v14.09h19.37v8.29h-19.37v21.33h29.31v8.29h-37.67v-60.28h37.67v8.29h0ZM189.68,1034.16h-13.11v25.99h-8.29v-60.28h21.4c6.63,0,15.9,2.72,15.9,16.8s-9.27,17.48-15.9,17.48h0ZM242.44,1060.16l-3.31-13.64h-17.56l-3.31,13.64h-8.29l15.14-60.28h10.4l15.22,60.28h-8.29ZM297.62,1060.16h-8.74l-8.59-25.99h-10.62v25.99h-8.29v-60.28h21.55c6.55,0,15.82,2.72,15.82,16.8,0,9.72-6.18,14.32-10.4,16.35l9.27,27.13ZM344.58,1007.34h-14.47v52.82h-8.37v-52.82h-14.47v-7.46h37.3v7.46h0ZM393.35,1041.32c0,12.81-7.69,19.66-19.06,19.66s-18.99-6.85-18.99-19.66v-41.44h8.44v40.24c0,6.71,3.09,12.58,10.55,12.58s10.62-5.8,10.62-12.58v-40.24h8.44v41.44ZM442.95,1060.16h-8.74l-8.59-25.99h-10.62v25.99h-8.29v-60.28h21.55c6.55,0,15.82,2.72,15.82,16.8,0,9.72-6.18,14.32-10.4,16.35l9.27,27.13ZM493.45,1008.17h-29.31v14.09h19.37v8.29h-19.37v21.33h29.31v8.29h-37.67v-60.28h37.67v8.29h0Z"/>
      <path class="cls-1" d="M281.87,1007.34h-12.21v18.91h11.6c4.52,0,9.49-2.56,9.49-9.57,0-6.55-3.62-9.34-8.89-9.34h.01Z"/>
      <polygon class="cls-1" points="223.46 1038.84 237.24 1038.84 230.32 1009.08 223.46 1038.84"/>
      <path class="cls-1" d="M91.23,1010.2c-2.26-1.81-5.05-2.11-6.4-2.11h-9.79v43.85h9.79c1.36,0,4.07-.3,6.33-2.11,2.18-1.73,3.54-4.74,4.22-8.74.38-2.34.6-7.61.6-11.07s-.23-8.74-.6-11.07c-.68-3.99-1.96-7.01-4.15-8.74h0Z"/>
      <path class="cls-1" d="M427.2,1007.34h-12.21v18.91h11.6c4.52,0,9.49-2.56,9.49-9.57,0-6.55-3.62-9.34-8.89-9.34h.01Z"/>
      <path class="cls-1" d="M612.68,1094.54H0V0l620.58.11c296.06,5.36,535.62,249.18,535.62,547.16s-239.56,541.79-535.62,547.16v.08l-7.9.03h0ZM15.81,1078.73l596.84-.03c291-1.1,527.74-239.5,527.74-531.43S903.64,16.94,612.65,15.84l-7.52-.03H15.81v1062.92Z"/>
      <path class="cls-1" d="M645.06,1057.23c-2.06.18-3.92,0-5.59-.55-1.67-.55-3.12-1.42-4.35-2.6-1.23-1.19-2.22-2.66-2.98-4.42s-1.23-3.78-1.43-6.07c-.24-2.75-.07-5.38.51-7.88.59-2.5,1.44-4.82,2.55-6.96,1.11-2.15,2.38-4.08,3.82-5.79,1.43-1.71,2.87-3.16,4.31-4.35l7.86-.69c-1.96,1.74-3.71,3.42-5.26,5.01-1.55,1.6-2.87,3.22-3.98,4.85s-2,3.33-2.69,5.09-1.17,3.69-1.44,5.8l.38.07c.32-.79.71-1.55,1.17-2.26.47-.72,1.02-1.36,1.68-1.93.65-.57,1.42-1.04,2.3-1.41.88-.37,1.9-.61,3.05-.71,1.57-.14,3.04,0,4.42.43,1.37.43,2.6,1.11,3.67,2.06,1.07.95,1.94,2.12,2.61,3.53.67,1.4,1.09,3.01,1.25,4.82.17,1.88.02,3.64-.46,5.27-.47,1.63-1.23,3.06-2.26,4.28s-2.33,2.22-3.88,3-3.3,1.25-5.26,1.43v-.02ZM644.58,1052.4c2.24-.2,3.91-.98,5.02-2.34s1.56-3.19,1.36-5.48l-.05-.55c-.2-2.3-.97-4.01-2.31-5.16s-3.12-1.62-5.35-1.43c-2.2.2-3.85.98-4.97,2.34s-1.56,3.19-1.36,5.48l.05.55c.2,2.3.97,4.01,2.31,5.16,1.33,1.15,3.1,1.62,5.3,1.43Z"/>
      <path class="cls-1" d="M672.93,1030.68c2.32-.37,3.96-1.15,4.93-2.35.96-1.2,1.33-2.58,1.08-4.12l-.06-.38c-.27-1.73-1.02-2.96-2.26-3.71s-2.77-.97-4.61-.68c-1.77.28-3.2.93-4.3,1.95-1.1,1.02-1.95,2.32-2.56,3.88l-4.5-2.88c.42-.92.94-1.81,1.55-2.68.61-.87,1.34-1.66,2.18-2.36.85-.7,1.85-1.32,3.01-1.85s2.5-.92,4.02-1.16c1.7-.26,3.31-.29,4.83-.09,1.52.21,2.88.64,4.09,1.32,1.21.68,2.2,1.57,2.98,2.69.78,1.11,1.28,2.42,1.52,3.93.19,1.18.17,2.3-.04,3.32-.21,1.03-.58,1.96-1.1,2.8-.53.84-1.19,1.56-1.98,2.16s-1.66,1.09-2.59,1.46l.04.27c1.07.06,2.12.25,3.13.59,1.01.33,1.94.83,2.79,1.49s1.56,1.49,2.15,2.48c.58,1,.98,2.18,1.19,3.55.26,1.65.19,3.2-.23,4.65s-1.12,2.75-2.13,3.9-2.28,2.12-3.83,2.89-3.32,1.32-5.33,1.64c-1.7.26-3.22.31-4.58.14s-2.59-.5-3.69-.97-2.09-1.05-2.96-1.75c-.87-.69-1.65-1.43-2.34-2.2l3.77-4.13c1.14,1.37,2.4,2.43,3.77,3.2,1.38.76,3.14.97,5.29.63,2.28-.36,3.95-1.18,4.99-2.47,1.04-1.29,1.41-2.9,1.1-4.84l-.07-.43c-.3-1.94-1.17-3.32-2.59-4.15-1.43-.83-3.33-1.05-5.72-.68l-3.9.61-.8-5.07,3.74-.59h.02Z"/>
      <path class="cls-1" d="M729.8,1034.97l13.83-14.54-.13-.42-19.52-4.55-1.67-5.59,25.43,6.15,1.62,5.44-17.91,19.06-1.65-5.55h0Z"/>
      <path class="cls-1" d="M761.01,1025.33l12.84-15.43-.15-.41-19.77-3.25-2.04-5.48,25.78,4.46,1.98,5.32-16.61,20.21-2.02-5.42h0Z"/>
      <path class="cls-1" d="M834.64,1000.87c-1.83.97-3.62,1.52-5.37,1.67s-3.42-.09-5.02-.71c-1.6-.61-3.08-1.59-4.46-2.92-1.38-1.33-2.6-3.01-3.67-5.03-1.3-2.44-2.16-4.93-2.59-7.46-.43-2.53-.55-5-.35-7.41.19-2.41.61-4.68,1.27-6.82s1.42-4.03,2.28-5.69l6.97-3.69c-1.13,2.37-2.09,4.59-2.9,6.66-.8,2.07-1.4,4.08-1.79,6.01s-.55,3.84-.5,5.73.36,3.86.93,5.9l.38-.08c-.02-.85.05-1.7.2-2.54.15-.84.41-1.65.8-2.43.38-.78.91-1.51,1.57-2.19s1.51-1.3,2.54-1.84c1.39-.74,2.8-1.17,4.24-1.32,1.43-.14,2.83.02,4.18.47,1.35.46,2.61,1.2,3.77,2.23s2.17,2.35,3.02,3.96c.89,1.67,1.43,3.35,1.63,5.04.2,1.68.06,3.29-.42,4.82-.48,1.53-1.28,2.95-2.41,4.27s-2.56,2.44-4.29,3.36h-.01ZM832.32,996.61c1.98-1.05,3.22-2.42,3.72-4.11s.2-3.55-.87-5.58l-.26-.48c-1.08-2.03-2.45-3.32-4.13-3.86-1.67-.54-3.5-.28-5.49.77-1.95,1.03-3.18,2.39-3.67,4.08s-.2,3.55.87,5.58l.26.48c1.08,2.03,2.45,3.32,4.13,3.86s3.48.29,5.44-.74h0Z"/>
      <path class="cls-1" d="M865.75,982.21l-3.9-6.32-14.86,9.16-2.75-4.46-.27-29.71,6.58-4.06,13.54,21.99,4.39-2.7,2.55,4.14-4.39,2.7,3.9,6.32-4.79,2.95h0ZM848.69,978.29l10.61-6.54-10.59-17.2-.27.16.25,23.57h0Z"/>
      <path class="cls-1" d="M904.22,947.7l7.23-18.72-.27-.34-19.78,3.24-3.68-4.54,25.85-4.01,3.58,4.41-9.28,24.45-3.64-4.49h0Z"/>
      <path class="cls-1" d="M929.4,926.88l6.02-19.14-.29-.32-19.53,4.49-3.96-4.29,25.54-5.66,3.85,4.17-7.7,25-3.92-4.26h-.01Z"/>
      <path class="cls-1" d="M988.26,876.48c-1.33,1.59-2.78,2.77-4.34,3.56-1.56.79-3.21,1.2-4.91,1.23-1.71.03-3.45-.31-5.23-1.02-1.78-.72-3.54-1.81-5.3-3.28-2.12-1.78-3.85-3.76-5.2-5.94-1.35-2.18-2.39-4.43-3.11-6.73s-1.19-4.57-1.39-6.79c-.2-2.23-.21-4.27-.02-6.13l5.07-6.05c-.15,2.62-.22,5.04-.18,7.27.03,2.22.24,4.3.61,6.24.37,1.93.93,3.77,1.69,5.5.76,1.73,1.78,3.44,3.08,5.12l.32-.21c-.33-.79-.59-1.6-.77-2.43-.17-.83-.24-1.68-.17-2.55.06-.86.27-1.73.63-2.62.37-.89.92-1.77,1.66-2.66,1.01-1.21,2.16-2.15,3.43-2.81,1.27-.67,2.62-1.05,4.05-1.13,1.43-.09,2.87.13,4.33.65,1.47.52,2.89,1.36,4.29,2.54,1.45,1.21,2.58,2.57,3.4,4.06s1.3,3.03,1.43,4.63-.08,3.22-.62,4.86c-.55,1.65-1.46,3.22-2.72,4.72l-.03-.03ZM984.51,873.4c1.44-1.72,2.08-3.45,1.9-5.2-.17-1.75-1.15-3.37-2.91-4.84l-.42-.36c-1.76-1.48-3.52-2.15-5.27-2.02s-3.35,1.05-4.79,2.77c-1.42,1.69-2.04,3.41-1.87,5.16.18,1.75,1.15,3.37,2.91,4.84l.42.36c1.77,1.48,3.52,2.15,5.27,2.02s3.34-1.04,4.76-2.73h0Z"/>
      <path class="cls-1" d="M989.2,838.1c1.39-1.89,2.01-3.6,1.85-5.14-.16-1.53-.87-2.76-2.13-3.69l-.31-.23c-1.4-1.03-2.81-1.38-4.21-1.04-1.4.34-2.65,1.26-3.75,2.75-1.06,1.44-1.62,2.91-1.68,4.41-.07,1.5.24,3.02.92,4.56l-5.23,1.12c-.34-.95-.6-1.95-.78-2.99s-.22-2.12-.11-3.21.39-2.24.83-3.44,1.13-2.41,2.04-3.65c1.02-1.38,2.14-2.54,3.36-3.46,1.22-.93,2.51-1.57,3.84-1.95s2.67-.43,4-.19c1.34.24,2.62.82,3.85,1.72.97.71,1.74,1.5,2.32,2.38.57.88.97,1.8,1.18,2.76.22.97.26,1.94.12,2.93s-.41,1.94-.82,2.86l.22.16c.8-.72,1.68-1.31,2.63-1.79.96-.47,1.97-.77,3.03-.9,1.07-.13,2.16-.04,3.27.25,1.12.3,2.23.86,3.34,1.68,1.35.99,2.39,2.15,3.11,3.46s1.14,2.74,1.23,4.27c.1,1.53-.13,3.11-.68,4.75-.56,1.64-1.43,3.28-2.63,4.92-1.02,1.38-2.07,2.49-3.16,3.32s-2.19,1.47-3.3,1.91c-1.11.44-2.22.73-3.33.85s-2.18.15-3.22.08l-.23-5.58c1.77.17,3.42.04,4.93-.39s2.91-1.52,4.2-3.27c1.37-1.86,1.97-3.62,1.8-5.26-.16-1.65-1.04-3.05-2.62-4.21l-.35-.26c-1.59-1.16-3.17-1.54-4.77-1.12s-3.11,1.6-4.54,3.55l-2.34,3.18-4.14-3.04,2.24-3.05h.02Z"/>
      <path class="cls-1" d="M1032.72,801.22l-.31-20.07-.39-.21-17.12,10.41-5.11-2.83,22.46-13.41,4.97,2.75.56,26.15-5.06-2.8h0Z"/>
      <path class="cls-1" d="M1048.26,772.47l-1.6-20-.4-.19-16.42,11.5-5.28-2.5,21.55-14.83,5.14,2.42,2.24,26.06-5.23-2.47h0Z"/>
      <path class="cls-1" d="M1083.87,703.63c-.63,1.97-1.53,3.61-2.68,4.94-1.15,1.32-2.52,2.32-4.09,3-1.57.67-3.32,1.01-5.23,1.02s-3.96-.34-6.14-1.04c-2.63-.85-4.99-2.03-7.06-3.55-2.07-1.51-3.88-3.2-5.42-5.06-1.54-1.86-2.83-3.78-3.85-5.77s-1.8-3.88-2.33-5.67l2.42-7.51c.84,2.48,1.7,4.74,2.57,6.79s1.84,3.9,2.91,5.55c1.08,1.65,2.29,3.14,3.64,4.46s2.95,2.51,4.78,3.58l.22-.31c-.61-.6-1.15-1.26-1.64-1.97-.48-.71-.85-1.47-1.12-2.3-.27-.82-.41-1.71-.4-2.67,0-.96.18-1.99.54-3.09.48-1.5,1.19-2.8,2.12-3.9s2.04-1.96,3.32-2.58c1.29-.61,2.71-.96,4.26-1.03,1.55-.07,3.2.17,4.92.73,1.81.58,3.37,1.4,4.68,2.48s2.34,2.32,3.06,3.75c.73,1.43,1.15,3.01,1.26,4.74s-.13,3.53-.74,5.4h0ZM1079.23,702.19c.68-2.14.62-3.98-.21-5.53s-2.33-2.69-4.52-3.39l-.52-.17c-2.19-.71-4.07-.66-5.65.11-1.57.78-2.71,2.24-3.4,4.38-.68,2.1-.6,3.93.22,5.48.82,1.56,2.33,2.69,4.52,3.39l.52.17c2.19.71,4.08.67,5.65-.11s2.7-2.22,3.38-4.33h.01Z"/>
      <path class="cls-1" d="M1093.16,668.42l-7.2-1.81-4.26,16.93-5.08-1.28-20.92-21.1,1.88-7.49,25.04,6.3,1.26-5,4.71,1.18-1.26,5,7.2,1.81-1.37,5.45h0ZM1078.21,677.51l3.04-12.09-19.59-4.93-.08.31,16.62,16.71h0Z"/>
      <path class="cls-1" d="M1096.61,617.07l-7.88-18.46-.43-.05-11.91,16.12-5.8-.68,15.72-20.91,5.64.66,10.42,24-5.75-.68h0Z"/>
      <path class="cls-1" d="M1100.12,584.56l-9.04-17.92-.44-.02-10.86,16.84-5.83-.31,14.35-21.87,5.67.31,11.92,23.29-5.78-.31h0Z"/>
      <path class="cls-1" d="M1107.33,507.6c.14,2.07-.09,3.93-.67,5.58-.58,1.66-1.48,3.09-2.7,4.29s-2.71,2.17-4.48,2.88-3.81,1.15-6.1,1.3c-2.76.19-5.38-.05-7.87-.69s-4.79-1.54-6.91-2.7c-2.12-1.16-4.02-2.47-5.71-3.94-1.68-1.47-3.1-2.93-4.26-4.41l-.52-7.87c1.7,1.99,3.33,3.78,4.9,5.36,1.56,1.59,3.15,2.94,4.76,4.09,1.61,1.14,3.28,2.07,5.03,2.8s3.67,1.25,5.77,1.56l.08-.37c-.79-.33-1.53-.74-2.24-1.22s-1.34-1.05-1.89-1.72c-.56-.66-1.01-1.44-1.36-2.33s-.57-1.91-.64-3.07c-.1-1.57.07-3.04.52-4.41.46-1.36,1.17-2.57,2.14-3.62s2.16-1.89,3.58-2.53c1.42-.64,3.04-1.02,4.85-1.14,1.89-.12,3.64.07,5.26.57,1.62.51,3.03,1.3,4.24,2.36,1.2,1.06,2.17,2.38,2.91,3.94.75,1.56,1.18,3.33,1.31,5.29h0ZM1102.48,507.98c-.15-2.23-.9-3.93-2.23-5.06-1.34-1.14-3.16-1.64-5.45-1.48l-.55.04c-2.3.15-4.03.88-5.21,2.19-1.17,1.31-1.69,3.08-1.54,5.32.14,2.21.89,3.88,2.23,5.02s3.15,1.64,5.45,1.48l.55-.04c2.3-.15,4.03-.89,5.21-2.19,1.17-1.31,1.69-3.06,1.54-5.27h0Z"/>
      <path class="cls-1" d="M1081.49,479.27c-.3-2.33-1.03-3.99-2.21-5-1.17-1-2.53-1.4-4.09-1.2l-.38.05c-1.73.22-2.99.94-3.77,2.15s-1.05,2.74-.82,4.59c.23,1.77.83,3.22,1.82,4.35s2.26,2.02,3.81,2.67l-3.02,4.42c-.9-.45-1.78-.99-2.63-1.63-.85-.63-1.62-1.38-2.3-2.25s-1.27-1.89-1.77-3.06-.84-2.52-1.04-4.06c-.22-1.7-.2-3.31.05-4.83s.73-2.87,1.44-4.06c.71-1.18,1.64-2.15,2.77-2.9,1.14-.75,2.46-1.21,3.98-1.4,1.19-.15,2.3-.11,3.31.13,1.02.24,1.95.63,2.77,1.18.82.55,1.52,1.23,2.1,2.04s1.04,1.69,1.38,2.63l.27-.04c.09-1.07.31-2.1.68-3.11.37-1,.9-1.91,1.57-2.74.68-.83,1.53-1.52,2.54-2.07,1.01-.56,2.21-.92,3.58-1.09,1.66-.21,3.21-.09,4.64.36s2.71,1.2,3.83,2.24,2.05,2.34,2.78,3.91,1.22,3.36,1.48,5.38c.22,1.7.22,3.23,0,4.59-.21,1.35-.57,2.57-1.08,3.66-.5,1.09-1.11,2.06-1.83,2.91s-1.48,1.61-2.27,2.27l-4.02-3.89c1.4-1.1,2.5-2.33,3.3-3.68.8-1.36,1.06-3.11.79-5.27-.29-2.3-1.07-3.98-2.33-5.06s-2.86-1.49-4.81-1.25l-.43.06c-1.95.25-3.36,1.08-4.23,2.48-.87,1.4-1.15,3.3-.84,5.7l.5,3.91-5.09.65-.48-3.76.05.02Z"/>
      <path class="cls-1" d="M1087.69,422.67l-14.01-14.36-.42.11-5.28,19.33-5.66,1.46,7.1-25.18,5.5-1.42,18.38,18.62-5.6,1.44h0Z"/>
      <path class="cls-1" d="M1079.2,391l-14.92-13.42-.41.13-4.01,19.64-5.55,1.82,5.44-25.59,5.39-1.77,19.56,17.38-5.5,1.8h0Z"/>
      <path class="cls-1" d="M1057.53,316.47c.9,1.86,1.39,3.67,1.48,5.42.08,1.75-.22,3.42-.89,4.99s-1.7,3.03-3.08,4.35c-1.38,1.33-3.1,2.5-5.16,3.49-2.49,1.2-5.01,1.98-7.55,2.32s-5.02.37-7.42.09-4.66-.78-6.77-1.51c-2.12-.73-3.98-1.56-5.6-2.49l-3.44-7.1c2.33,1.21,4.51,2.25,6.55,3.13s4.02,1.55,5.94,2,3.82.69,5.71.71,3.86-.22,5.93-.71l-.06-.38c-.86-.01-1.7-.11-2.54-.29s-1.64-.47-2.4-.89c-.77-.41-1.48-.96-2.14-1.65s-1.25-1.56-1.75-2.6c-.68-1.42-1.08-2.85-1.16-4.29-.09-1.44.12-2.82.62-4.16s1.3-2.57,2.37-3.69c1.08-1.12,2.43-2.08,4.07-2.87,1.7-.83,3.4-1.31,5.09-1.45s3.29.06,4.81.59c1.51.53,2.91,1.39,4.18,2.56s2.34,2.64,3.2,4.41v.02ZM1053.18,318.63c-.98-2.02-2.3-3.3-3.97-3.86-1.67-.56-3.54-.33-5.61.67l-.49.24c-2.07,1-3.4,2.33-4,3.99-.6,1.65-.41,3.49.57,5.51.96,1.99,2.28,3.26,3.95,3.81s3.54.33,5.61-.67l.49-.24c2.07-1,3.41-2.33,4-3.99.6-1.65.42-3.47-.55-5.46h0Z"/>
      <path class="cls-1" d="M1039.9,284.68l-6.44,3.68,8.67,15.16-4.55,2.6-29.71-.7-3.84-6.71,22.42-12.82-2.56-4.47,4.22-2.41,2.56,4.47,6.44-3.69,2.79,4.89h0ZM1035.43,301.59l-6.19-10.82-17.53,10.03.15.27,23.56.51h0Z"/>
      <path class="cls-1" d="M1006.46,245.17l-18.56-7.65-.34.27,2.8,19.84-4.62,3.58-3.44-25.93,4.49-3.48,24.24,9.83-4.57,3.54h0Z"/>
      <path class="cls-1" d="M986.11,219.47l-19.05-6.33-.32.29,4.18,19.6-4.35,3.89-5.25-25.63,4.24-3.78,24.88,8.11-4.32,3.85h-.01Z"/>
      <path class="cls-1" d="M936.09,159.83c1.58,1.34,2.76,2.79,3.55,4.36.78,1.57,1.19,3.21,1.21,4.92.03,1.71-.32,3.45-1.04,5.23-.72,1.78-1.82,3.54-3.3,5.29-1.79,2.11-3.77,3.84-5.96,5.18-2.19,1.34-4.44,2.37-6.74,3.09-2.31.72-4.57,1.18-6.8,1.37-2.22.19-4.27.19-6.13,0l-6.02-5.09c2.61.16,5.04.23,7.26.21,2.22-.03,4.31-.22,6.24-.58,1.94-.36,3.77-.92,5.51-1.67,1.73-.75,3.44-1.77,5.13-3.06l-.21-.32c-.79.33-1.6.59-2.43.76-.84.17-1.69.23-2.55.17-.86-.06-1.74-.28-2.62-.65s-1.77-.92-2.65-1.67c-1.2-1.02-2.14-2.16-2.8-3.44s-1.03-2.63-1.12-4.05c-.08-1.43.14-2.87.67-4.33.52-1.46,1.37-2.89,2.55-4.28,1.22-1.44,2.58-2.57,4.07-3.39,1.49-.81,3.03-1.28,4.63-1.41s3.22.09,4.86.64c1.64.56,3.21,1.47,4.71,2.73h-.02ZM932.99,163.58c-1.71-1.45-3.45-2.09-5.2-1.92-1.75.17-3.37,1.13-4.85,2.89l-.36.42c-1.49,1.76-2.17,3.51-2.04,5.27s1.04,3.36,2.76,4.8c1.68,1.43,3.4,2.05,5.16,1.88,1.75-.17,3.37-1.13,4.85-2.89l.35-.42c1.49-1.76,2.17-3.51,2.04-5.27-.12-1.75-1.02-3.35-2.71-4.77h0Z"/>
      <path class="cls-1" d="M897.64,158.79c-1.89-1.39-3.61-2-5.14-1.84s-2.76.88-3.68,2.14l-.23.31c-1.03,1.41-1.37,2.81-1.03,4.21s1.27,2.65,2.76,3.75c1.44,1.06,2.91,1.62,4.41,1.68s3.02-.25,4.55-.92l1.13,5.22c-.95.34-1.94.61-2.99.79-1.04.18-2.12.22-3.21.12-1.1-.1-2.24-.38-3.44-.83-1.19-.45-2.41-1.12-3.66-2.04-1.38-1.02-2.54-2.13-3.47-3.36-.93-1.22-1.58-2.5-1.96-3.83-.37-1.33-.43-2.67-.2-4,.24-1.34.81-2.62,1.71-3.85.71-.97,1.5-1.74,2.38-2.32.87-.58,1.8-.97,2.76-1.19.96-.22,1.94-.26,2.92-.12.99.14,1.94.41,2.86.81l.16-.22c-.72-.8-1.32-1.67-1.79-2.63-.47-.95-.78-1.97-.91-3.03-.13-1.07-.05-2.16.24-3.27.3-1.11.85-2.23,1.67-3.35.99-1.35,2.14-2.39,3.45-3.12,1.32-.73,2.74-1.14,4.27-1.24s3.11.13,4.76.67,3.28,1.42,4.92,2.62c1.39,1.02,2.5,2.07,3.33,3.15s1.47,2.18,1.91,3.3c.45,1.11.73,2.23.85,3.33.12,1.11.15,2.18.09,3.21l-5.58.24c.17-1.77.04-3.41-.4-4.93-.43-1.51-1.52-2.91-3.28-4.2-1.87-1.37-3.62-1.97-5.27-1.8s-3.05,1.05-4.21,2.63l-.26.35c-1.16,1.59-1.53,3.18-1.11,4.77s1.6,3.11,3.56,4.53l3.18,2.33-3.04,4.14-3.05-2.24.04.03Z"/>
      <path class="cls-1" d="M860.53,115.49l-20.06.5-.21.39,10.58,17.02-2.78,5.14-13.62-22.33,2.7-4.99,26.15-.81-2.76,5.09h0Z"/>
      <path class="cls-1" d="M831.47,100.15l-19.98,1.84-.18.4,11.69,16.28-2.43,5.31-15.08-21.37,2.36-5.16,26.03-2.55-2.41,5.26h0Z"/>
      <path class="cls-1" d="M762.22,65.37c1.98.61,3.63,1.49,4.97,2.63s2.35,2.49,3.04,4.06c.69,1.57,1.05,3.31,1.08,5.22.03,1.91-.3,3.97-.98,6.16-.82,2.64-1.98,5.01-3.47,7.1s-3.16,3.91-5,5.48c-1.84,1.56-3.75,2.86-5.73,3.91-1.98,1.05-3.86,1.84-5.64,2.39l-7.53-2.34c2.47-.87,4.73-1.75,6.77-2.65,2.04-.89,3.88-1.88,5.52-2.97s3.11-2.32,4.42-3.69c1.3-1.37,2.48-2.97,3.53-4.82l-.32-.21c-.59.62-1.24,1.17-1.95,1.65s-1.46.87-2.28,1.15c-.82.28-1.71.42-2.67.43-.96,0-1.99-.16-3.09-.5-1.51-.47-2.81-1.16-3.92-2.08-1.11-.92-1.98-2.01-2.61-3.3s-.99-2.7-1.08-4.25.14-3.2.68-4.94c.56-1.81,1.37-3.38,2.43-4.71,1.05-1.33,2.3-2.36,3.72-3.1,1.42-.74,3-1.18,4.73-1.3,1.73-.13,3.53.1,5.41.68h-.03ZM760.83,70.02c-2.14-.66-3.99-.58-5.53.26-1.55.84-2.66,2.36-3.34,4.56l-.16.52c-.68,2.2-.62,4.08.17,5.65s2.27,2.68,4.41,3.35c2.11.66,3.94.56,5.48-.28,1.55-.84,2.66-2.36,3.34-4.56l.16-.52c.68-2.2.63-4.08-.17-5.65s-2.25-2.68-4.36-3.33h0Z"/>
      <path class="cls-1" d="M727.12,56.44l-1.76,7.21,16.96,4.14-1.24,5.09-20.95,21.07-7.51-1.83,6.12-25.09-5.01-1.22,1.15-4.72,5.01,1.22,1.76-7.21,5.47,1.34h0ZM736.31,71.33l-12.11-2.96-4.79,19.62.31.07,16.59-16.74h0Z"/>
      <path class="cls-1" d="M608.12,986.72H118.03V107.82l497.99.12c236.19,5.15,427.04,200.59,427.04,439.33s-190.85,434.18-427.04,439.33v.1l-7.9.02h0ZM133.84,970.91l474.25-.02c231.13-.88,419.17-190.91,419.17-423.62S839.22,124.53,608.09,123.65l-5.41-.02H133.84v847.28Z"/>
      <path class="cls-1" d="M55.6,143.84l10.04,17.21h.44l9.99-17.21h5.87l-13.22,22.36h-5.71l-13.23-22.36h5.82Z"/>
      <path class="cls-1" d="M55.6,175.08l10.04,17.21h.44l9.99-17.21h5.87l-13.22,22.36h-5.71l-13.23-22.36h5.82Z"/>
      <path class="cls-1" d="M48.46,248.87c0-2.05.35-3.87,1.04-5.46.69-1.6,1.69-2.95,2.99-4.06s2.86-1.96,4.69-2.55c1.83-.59,3.9-.89,6.2-.89,2.78,0,5.4.4,7.85,1.2s4.7,1.84,6.75,3.12c2.05,1.28,3.87,2.7,5.46,4.26s2.92,3.1,3.98,4.63v7.8c-1.57-2.08-3.09-3.95-4.55-5.62-1.46-1.66-2.96-3.11-4.5-4.34s-3.15-2.26-4.86-3.09c-1.7-.83-3.59-1.47-5.68-1.92l-.11.37c.77.38,1.49.83,2.17,1.35s1.27,1.13,1.78,1.82.92,1.49,1.21,2.39c.29.9.44,1.92.44,3.07,0,1.56-.28,3-.82,4.32s-1.34,2.46-2.39,3.43c-1.04.97-2.3,1.72-3.76,2.26-1.46.54-3.11.81-4.94.81s-3.65-.3-5.24-.91-2.95-1.47-4.09-2.6c-1.13-1.13-2.02-2.49-2.66-4.08-.64-1.6-.96-3.36-.96-5.3h0ZM53.35,248.82c0,2.22.63,3.93,1.9,5.15,1.27,1.21,3.06,1.82,5.37,1.82h.55c2.31,0,4.1-.61,5.37-1.82s1.9-2.93,1.9-5.15-.63-3.88-1.9-5.1c-1.27-1.21-3.06-1.82-5.37-1.82h-.55c-2.31,0-4.1.6-5.37,1.82-1.27,1.21-1.9,2.91-1.9,5.1Z"/>
      <path class="cls-1" d="M71.62,278.41c0,2.32.52,4.05,1.56,5.17,1.04,1.13,2.35,1.69,3.92,1.69h.38c1.75,0,3.1-.55,4.03-1.64s1.4-2.56,1.4-4.39-.42-3.27-1.26-4.5-1.99-2.26-3.46-3.1l3.57-3.95c.84.55,1.65,1.19,2.42,1.92.77.73,1.44,1.56,2,2.5.57.94,1.02,2.01,1.37,3.22.35,1.21.52,2.58.52,4.11,0,1.7-.22,3.28-.66,4.73-.44,1.46-1.09,2.72-1.95,3.8-.86,1.07-1.9,1.9-3.13,2.49-1.22.59-2.61.89-4.14.89-1.21,0-2.31-.18-3.29-.55-.99-.37-1.86-.87-2.61-1.51s-1.36-1.4-1.84-2.26c-.48-.87-.82-1.79-1.04-2.76h-.28c-.22,1.04-.58,2.03-1.07,2.96-.49.93-1.13,1.77-1.92,2.5s-1.72,1.3-2.8,1.71c-1.08.42-2.31.63-3.7.63-1.68,0-3.21-.31-4.58-.94-1.37-.62-2.55-1.52-3.54-2.68-.99-1.16-1.75-2.56-2.28-4.18-.53-1.63-.8-3.45-.8-5.46,0-1.7.19-3.2.58-4.5s.9-2.45,1.54-3.46,1.37-1.88,2.19-2.62c.82-.75,1.68-1.4,2.55-1.95l3.51,4.32c-1.54.9-2.79,1.97-3.76,3.2s-1.45,2.92-1.45,5.07c0,2.29.56,4.04,1.67,5.25s2.66,1.82,4.64,1.82h.44c1.98,0,3.48-.63,4.53-1.9,1.04-1.27,1.56-3.1,1.56-5.49v-3.9h5.16v3.74l.02.02Z"/>
      <path class="cls-1" d="M55.6,331.22l10.04,17.21h.44l9.99-17.21h5.87l-13.22,22.36h-5.71l-13.23-22.36h5.82Z"/>
      <path class="cls-1" d="M55.6,362.34l10.04,17.21h.44l9.99-17.21h5.87l-13.22,22.36h-5.71l-13.23-22.36h5.82Z"/>
      <path class="cls-1" d="M48.46,436.08c0-2.04.35-3.86,1.04-5.46.69-1.59,1.69-2.94,2.99-4.06,1.3-1.11,2.86-1.96,4.69-2.55,1.83-.59,3.9-.88,6.2-.88,2.78,0,5.4.4,7.85,1.19,2.45.8,4.7,1.84,6.75,3.12,2.05,1.28,3.87,2.71,5.46,4.27s2.92,3.1,3.98,4.63v7.8c-1.57-2.08-3.09-3.95-4.55-5.61s-2.96-3.11-4.5-4.34c-1.54-1.24-3.15-2.26-4.86-3.1-1.7-.83-3.59-1.47-5.68-1.92l-.11.36c.77.38,1.49.83,2.17,1.35s1.27,1.13,1.78,1.82.92,1.49,1.21,2.39c.29.9.44,1.92.44,3.07,0,1.56-.28,3-.82,4.31s-1.34,2.46-2.39,3.43c-1.04.97-2.3,1.72-3.76,2.26-1.46.54-3.11.8-4.94.8s-3.65-.3-5.24-.91-2.95-1.47-4.09-2.6c-1.13-1.13-2.02-2.49-2.66-4.08-.64-1.6-.96-3.36-.96-5.31v.02ZM53.35,436.03c0,2.22.63,3.94,1.9,5.15s3.06,1.82,5.37,1.82h.55c2.31,0,4.1-.61,5.37-1.82s1.9-2.93,1.9-5.15-.63-3.88-1.9-5.09-3.06-1.82-5.37-1.82h-.55c-2.31,0-4.1.61-5.37,1.82s-1.9,2.91-1.9,5.09Z"/>
      <path class="cls-1" d="M49.12,470.43h7.46v-17.27h5.27l25.57,15.18v7.65h-25.95v5.09h-4.89v-5.09h-7.46v-5.56h0ZM61.47,458.11v12.33h20.3v-.31l-20.3-12.01h0Z"/>
      <path class="cls-1" d="M55.6,518.52l10.04,17.21h.44l9.99-17.21h5.87l-13.22,22.36h-5.71l-13.23-22.36h5.82Z"/>
      <path class="cls-1" d="M55.6,549.73l10.04,17.21h.44l9.99-17.21h5.87l-13.22,22.36h-5.71l-13.23-22.36h5.82Z"/>
      <path class="cls-1" d="M48.46,623.34c0-2.04.35-3.86,1.04-5.46.69-1.59,1.69-2.94,2.99-4.06,1.3-1.11,2.86-1.96,4.69-2.55,1.83-.59,3.9-.88,6.2-.88,2.78,0,5.4.4,7.85,1.19,2.45.8,4.7,1.84,6.75,3.12s3.87,2.71,5.46,4.27,2.92,3.1,3.98,4.63v7.8c-1.57-2.08-3.09-3.95-4.55-5.61s-2.96-3.11-4.5-4.34c-1.54-1.24-3.15-2.26-4.86-3.1-1.7-.83-3.59-1.47-5.68-1.92l-.11.36c.77.38,1.49.83,2.17,1.35s1.27,1.13,1.78,1.82.92,1.49,1.21,2.39c.29.9.44,1.92.44,3.07,0,1.56-.28,3-.82,4.31s-1.34,2.46-2.39,3.43c-1.04.97-2.3,1.72-3.76,2.26-1.46.54-3.11.8-4.94.8s-3.65-.3-5.24-.91-2.95-1.47-4.09-2.6c-1.13-1.13-2.02-2.49-2.66-4.08-.64-1.6-.96-3.36-.96-5.31v.02ZM53.35,623.29c0,2.22.63,3.94,1.9,5.15,1.27,1.21,3.06,1.82,5.37,1.82h.55c2.31,0,4.1-.61,5.37-1.82s1.9-2.93,1.9-5.15-.63-3.88-1.9-5.09-3.06-1.82-5.37-1.82h-.55c-2.31,0-4.1.61-5.37,1.82s-1.9,2.91-1.9,5.09Z"/>
      <path class="cls-1" d="M71.62,652.99c0,2.32.52,4.05,1.56,5.17,1.04,1.13,2.35,1.69,3.92,1.69h.38c1.75,0,3.1-.55,4.03-1.64.93-1.1,1.4-2.56,1.4-4.39s-.42-3.27-1.26-4.5-1.99-2.26-3.46-3.09l3.57-3.95c.84.55,1.65,1.19,2.42,1.92.77.73,1.44,1.56,2,2.5.57.93,1.02,2.01,1.37,3.22s.52,2.58.52,4.11c0,1.7-.22,3.28-.66,4.73s-1.09,2.72-1.95,3.79-1.9,1.91-3.13,2.5c-1.22.59-2.61.89-4.14.89-1.21,0-2.31-.18-3.29-.55-.99-.37-1.86-.87-2.61-1.51s-1.36-1.39-1.84-2.26c-.48-.86-.82-1.79-1.04-2.75h-.28c-.22,1.04-.58,2.03-1.07,2.96s-1.13,1.77-1.92,2.5-1.72,1.3-2.8,1.71c-1.08.42-2.31.62-3.7.62-1.68,0-3.21-.31-4.58-.93-1.37-.63-2.55-1.52-3.54-2.68s-1.75-2.56-2.28-4.18c-.53-1.63-.8-3.45-.8-5.46,0-1.7.19-3.2.58-4.5s.9-2.45,1.54-3.46,1.37-1.88,2.19-2.62,1.68-1.39,2.55-1.95l3.51,4.32c-1.54.9-2.79,1.97-3.76,3.2s-1.45,2.92-1.45,5.07c0,2.29.56,4.04,1.67,5.25,1.12,1.21,2.66,1.82,4.64,1.82h.44c1.98,0,3.48-.63,4.53-1.9,1.04-1.27,1.56-3.09,1.56-5.49v-3.9h5.16v3.74h.02Z"/>
      <path class="cls-1" d="M55.6,705.79l10.04,17.21h.44l9.99-17.21h5.87l-13.22,22.36h-5.71l-13.23-22.36h5.82Z"/>
      <path class="cls-1" d="M55.6,736.97l10.04,17.21h.44l9.99-17.21h5.87l-13.22,22.36h-5.71l-13.23-22.36h5.82Z"/>
      <path class="cls-1" d="M48.46,810.66c0-2.04.35-3.86,1.04-5.46.69-1.59,1.69-2.94,2.99-4.06,1.3-1.11,2.86-1.96,4.69-2.55,1.83-.59,3.9-.88,6.2-.88,2.78,0,5.4.4,7.85,1.19,2.45.8,4.7,1.84,6.75,3.12s3.87,2.71,5.46,4.27,2.92,3.1,3.98,4.63v7.8c-1.57-2.08-3.09-3.95-4.55-5.61s-2.96-3.11-4.5-4.34c-1.54-1.24-3.15-2.26-4.86-3.1-1.7-.83-3.59-1.47-5.68-1.92l-.11.36c.77.38,1.49.83,2.17,1.35s1.27,1.13,1.78,1.82.92,1.49,1.21,2.39c.29.9.44,1.92.44,3.07,0,1.56-.28,3-.82,4.31s-1.34,2.46-2.39,3.43c-1.04.97-2.3,1.72-3.76,2.26-1.46.54-3.11.8-4.94.8s-3.65-.3-5.24-.91-2.95-1.47-4.09-2.6c-1.13-1.13-2.02-2.49-2.66-4.08-.64-1.6-.96-3.36-.96-5.31v.02ZM53.35,810.61c0,2.22.63,3.94,1.9,5.15,1.27,1.21,3.06,1.82,5.37,1.82h.55c2.31,0,4.1-.61,5.37-1.82s1.9-2.93,1.9-5.15-.63-3.88-1.9-5.09-3.06-1.82-5.37-1.82h-.55c-2.31,0-4.1.61-5.37,1.82s-1.9,2.91-1.9,5.09Z"/>
      <path class="cls-1" d="M49.12,845.01h7.46v-17.27h5.27l25.57,15.18v7.65h-25.95v5.09h-4.89v-5.09h-7.46v-5.56h0ZM61.47,832.69v12.33h20.3v-.31l-20.3-12.01h0Z"/>
      <path class="cls-1" d="M55.6,893.06l10.04,17.21h.44l9.99-17.21h5.87l-13.22,22.36h-5.71l-13.23-22.36h5.82Z"/>
      <path class="cls-1" d="M55.6,924.17l10.04,17.21h.44l9.99-17.21h5.87l-13.22,22.36h-5.71l-13.23-22.36h5.82Z"/>
      <path class="cls-1" d="M606.27,217.42c-6.68-4.67-39.3,12.87-70.65,31.28-31.35,18.42-57.69,33.38-63.04,36.59,0,0-21.21-16.63-24.47-11.96-4.4,6.31,23.1,34.13,25.09,33.15,3.01-1.49,22.99-12.15,46.63-25.65-6.58,14.37-13.56,32.46-5.13,28.96,11.9-4.94,30.34-43.09,39-48.91,29.05-19.5,59.38-38.7,52.56-43.46h0Z"/>
      <path class="cls-1" d="M512.87,312.86c-1.64,0-2.67-.74-3.22-1.31-2.12-2.2-2.92-6.83,4.55-24.49-20.7,11.71-37.09,20.44-39.83,21.79-2.64,1.31-8.81-3.65-18.29-14.71-14.17-16.51-11.13-20.88-10.12-22.31.5-.72,1.46-1.63,3.16-1.89,5.9-.83,18.22,8.03,23.67,12.18,2.49-1.46,6.71-3.89,12.24-7.07,11.77-6.78,29.53-17.01,49.27-28.61,56.37-33.11,68.63-34.57,73.49-31.17h0c1.37.96,2.12,2.37,2.1,3.99-.07,6.67-14.05,16.69-45.95,37.97l-8.76,5.85c-3.26,2.19-8.96,10.92-14.48,19.36-8.56,13.1-17.42,26.66-24.98,29.79-1.1.46-2.04.63-2.85.63h0ZM525.64,274.48l-3.41,7.45c-8.25,18.02-8.9,23.83-8.78,25.53.08-.03.15-.06.25-.1,6.06-2.51,15.22-16.53,22.59-27.8,6.33-9.69,11.8-18.07,15.96-20.85l8.77-5.86c17.96-11.99,42.43-28.31,43.56-33.36-2.45-1.22-13.93-.02-67.61,31.51-19.76,11.6-37.52,21.84-49.31,28.63-6.9,3.97-11.74,6.76-13.71,7.94l-1.55.93-1.43-1.12c-8.58-6.73-17.95-12.23-20.73-12.25-.55,4.75,17.22,24.96,22.82,28.49,5.1-2.63,23.91-12.74,45.49-25.07l7.11-4.06h-.02Z"/>
      <path class="cls-1" d="M609.22,344.78h-161.77c-2.91,0-5.27-2.36-5.27-5.27s2.36-5.27,5.27-5.27h161.77c2.91,0,5.27,2.36,5.27,5.27s-2.36,5.27-5.27,5.27Z"/>
      <path class="cls-1" d="M338.86,747.06c5.26,0,9.52,2.51,12.77,7.51s4.87,13.76,4.87,26.27-1.62,21.22-4.87,26.23-7.49,7.51-12.73,7.51-9.52-2.48-12.77-7.44-4.88-13.77-4.88-26.43,1.63-21.13,4.88-26.14,7.49-7.51,12.73-7.51ZM338.88,757.58c-2.05,0-3.69,1.35-4.91,4.06-1.22,2.7-1.83,9.1-1.83,19.21s.61,16.5,1.83,19.19c1.22,2.69,2.86,4.03,4.91,4.03s3.73-1.35,4.94-4.06c1.21-2.71,1.81-9.09,1.81-19.16s-.6-16.5-1.81-19.21-2.85-4.06-4.94-4.06h0Z"/>
      <path class="cls-1" d="M363.6,796.44l10.38-1.35c.27,2.89,1.16,5.16,2.66,6.82,1.51,1.65,3.16,2.48,4.97,2.48,2.14,0,3.97-1.06,5.51-3.18,1.53-2.12,2.3-5.37,2.3-9.76,0-4.14-.76-7.2-2.28-9.19-1.52-1.98-3.46-2.97-5.81-2.97-2.98,0-5.67,1.61-8.05,4.83l-8.46-1.49,5.33-34.44h27.49v11.87h-19.55l-1.69,11.24c2.35-1.42,4.73-2.13,7.14-2.13,4.28,0,7.91,1.68,10.89,5.05,3.76,4.3,5.65,9.98,5.65,17.02,0,5.8-1.6,11.15-4.81,16.02-3.21,4.88-7.79,7.31-13.74,7.31-4.82,0-8.84-1.57-12.08-4.71s-5.18-7.62-5.84-13.43h0Z"/>
      <path class="cls-1" d="M428.81,813.45v-66.17h16.38l9.87,45.18,9.79-45.18h16.46v66.17h-10.2v-52.13l-10.82,52.13h-10.54l-10.73-52.13v52.13h-10.21Z"/>
      <path class="cls-1" d="M541.07,813.45h-11.88l-4.75-14.99h-21.72l-4.48,14.99h-11.65l21.13-66.17h11.6l21.75,66.17ZM520.92,787.28l-7.49-24.55-7.35,24.55h14.84,0Z"/>
      <path class="cls-1" d="M554.11,813.45v-27.86l-19.86-38.31h12.82l12.75,26.17,12.57-26.17h12.59l-19.95,38.4v27.77h-10.92Z"/>
      <path class="cls-1" d="M643.03,801.67v11.78h-36.47c.39-4.45,1.59-8.68,3.59-12.7s5.89-9.28,11.67-15.81c4.57-5.2,7.39-8.72,8.44-10.55,1.56-2.68,2.35-5.37,2.35-8.07,0-2.89-.65-5.06-1.94-6.54-1.29-1.47-3-2.21-5.1-2.21-4.61,0-7.09,3.44-7.45,10.33l-10.34-1.26c.63-6.74,2.51-11.69,5.62-14.85,3.12-3.16,7.26-4.74,12.44-4.74,5.69,0,9.98,1.85,12.86,5.55,2.89,3.7,4.33,7.94,4.33,12.72,0,2.7-.37,5.33-1.11,7.87s-1.87,5.09-3.41,7.67c-1.53,2.57-4.09,5.85-7.67,9.85-3.34,3.76-5.45,6.24-6.34,7.44s-1.6,2.38-2.14,3.52h20.67Z"/>
      <path class="cls-1" d="M667.63,747.06c5.26,0,9.52,2.51,12.77,7.51s4.87,13.76,4.87,26.27-1.62,21.22-4.87,26.23-7.49,7.51-12.73,7.51-9.52-2.48-12.77-7.44-4.88-13.77-4.88-26.43,1.63-21.13,4.88-26.14,7.49-7.51,12.73-7.51ZM667.65,757.58c-2.05,0-3.69,1.35-4.91,4.06-1.22,2.7-1.83,9.1-1.83,19.21s.61,16.5,1.83,19.19,2.86,4.03,4.91,4.03,3.73-1.35,4.94-4.06c1.21-2.71,1.81-9.09,1.81-19.16s-.6-16.5-1.81-19.21c-1.21-2.71-2.85-4.06-4.94-4.06h0Z"/>
      <path class="cls-1" d="M727.34,801.67v11.78h-36.47c.39-4.45,1.59-8.68,3.59-12.7s5.89-9.28,11.67-15.81c4.57-5.2,7.39-8.72,8.44-10.55,1.56-2.68,2.35-5.37,2.35-8.07,0-2.89-.65-5.06-1.94-6.54-1.29-1.47-3-2.21-5.1-2.21-4.61,0-7.09,3.44-7.45,10.33l-10.34-1.26c.63-6.74,2.51-11.69,5.62-14.85,3.12-3.16,7.26-4.74,12.44-4.74,5.69,0,9.98,1.85,12.86,5.55,2.89,3.7,4.33,7.94,4.33,12.72,0,2.7-.37,5.33-1.11,7.87s-1.87,5.09-3.41,7.67c-1.53,2.57-4.09,5.85-7.67,9.85-3.34,3.76-5.45,6.24-6.34,7.44s-1.6,2.38-2.14,3.52h20.67Z"/>
      <path class="cls-1" d="M734.52,796.44l10.38-1.35c.27,2.89,1.16,5.16,2.66,6.82,1.51,1.65,3.16,2.48,4.97,2.48,2.14,0,3.97-1.06,5.51-3.18,1.53-2.12,2.3-5.37,2.3-9.76,0-4.14-.76-7.2-2.28-9.19-1.52-1.98-3.46-2.97-5.81-2.97-2.98,0-5.67,1.61-8.05,4.83l-8.46-1.49,5.33-34.44h27.49v11.87h-19.55l-1.69,11.24c2.35-1.42,4.73-2.13,7.14-2.13,4.28,0,7.91,1.68,10.89,5.05,3.76,4.3,5.65,9.98,5.65,17.02,0,5.8-1.6,11.15-4.81,16.02-3.21,4.88-7.79,7.31-13.74,7.31-4.82,0-8.84-1.57-12.08-4.71-3.23-3.14-5.18-7.62-5.84-13.43h-.01Z"/>
      <path class="cls-1" d="M758.91,843.23h-1.32c-4.37,0-7.9-3.53-7.9-7.9s3.53-7.9,7.9-7.9h1.32c4.32,0,7.9,3.53,7.9,7.9s-3.59,7.9-7.9,7.9ZM731.24,843.23h-1.32c-4.37,0-7.9-3.53-7.9-7.9s3.53-7.9,7.9-7.9h1.32c4.32,0,7.9,3.53,7.9,7.9s-3.59,7.9-7.9,7.9ZM703.58,843.23h-1.32c-4.37,0-7.9-3.53-7.9-7.9s3.53-7.9,7.9-7.9h1.32c4.32,0,7.9,3.53,7.9,7.9s-3.59,7.9-7.9,7.9ZM675.91,843.23h-1.32c-4.37,0-7.9-3.53-7.9-7.9s3.53-7.9,7.9-7.9h1.32c4.32,0,7.9,3.53,7.9,7.9s-3.59,7.9-7.9,7.9ZM648.25,843.23h-1.32c-4.37,0-7.9-3.53-7.9-7.9s3.53-7.9,7.9-7.9h1.32c4.32,0,7.9,3.53,7.9,7.9s-3.59,7.9-7.9,7.9ZM620.58,843.23h-1.32c-4.37,0-7.9-3.53-7.9-7.9s3.53-7.9,7.9-7.9h1.32c4.32,0,7.9,3.53,7.9,7.9s-3.59,7.9-7.9,7.9ZM592.91,843.23h-1.32c-4.37,0-7.9-3.53-7.9-7.9s3.53-7.9,7.9-7.9h1.32c4.32,0,7.9,3.53,7.9,7.9s-3.59,7.9-7.9,7.9ZM565.25,843.23h-1.32c-4.37,0-7.9-3.53-7.9-7.9s3.53-7.9,7.9-7.9h1.32c4.32,0,7.9,3.53,7.9,7.9s-3.59,7.9-7.9,7.9ZM537.58,843.23h-1.32c-4.37,0-7.9-3.53-7.9-7.9s3.53-7.9,7.9-7.9h1.32c4.32,0,7.9,3.53,7.9,7.9s-3.59,7.9-7.9,7.9ZM509.92,843.23h-1.32c-4.37,0-7.9-3.53-7.9-7.9s3.53-7.9,7.9-7.9h1.32c4.32,0,7.9,3.53,7.9,7.9s-3.59,7.9-7.9,7.9ZM482.25,843.23h-1.32c-4.37,0-7.9-3.53-7.9-7.9s3.53-7.9,7.9-7.9h1.32c4.32,0,7.9,3.53,7.9,7.9s-3.59,7.9-7.9,7.9ZM454.58,843.23h-1.32c-4.37,0-7.9-3.53-7.9-7.9s3.53-7.9,7.9-7.9h1.32c4.32,0,7.9,3.53,7.9,7.9s-3.59,7.9-7.9,7.9ZM426.92,843.23h-1.32c-4.37,0-7.9-3.53-7.9-7.9s3.53-7.9,7.9-7.9h1.32c4.32,0,7.9,3.53,7.9,7.9s-3.59,7.9-7.9,7.9ZM399.25,843.23h-1.32c-4.37,0-7.9-3.53-7.9-7.9s3.53-7.9,7.9-7.9h1.32c4.32,0,7.9,3.53,7.9,7.9s-3.59,7.9-7.9,7.9ZM371.59,843.23h-1.32c-4.37,0-7.9-3.53-7.9-7.9s3.53-7.9,7.9-7.9h1.32c4.32,0,7.9,3.53,7.9,7.9s-3.59,7.9-7.9,7.9ZM343.92,843.23h-1.32c-4.37,0-7.9-3.53-7.9-7.9s3.53-7.9,7.9-7.9h1.32c4.32,0,7.85,3.53,7.85,7.9s-3.53,7.9-7.85,7.9ZM316.25,843.23h-1.32c-4.37,0-7.9-3.53-7.9-7.9s3.53-7.9,7.9-7.9h1.32c4.32,0,7.9,3.53,7.9,7.9s-3.59,7.9-7.9,7.9Z"/>
    </g>
  </g>
</svg>