<?xml version="1.0" encoding="UTF-8"?>
<svg id="Layer_2" data-name="Layer 2" xmlns="http://www.w3.org/2000/svg" viewBox="0 0 1227.78 1227.78">
  <defs>
    <style>
      .cls-1 {
        fill: #3c66b6;
      }
    </style>
  </defs>
  <g id="Layer_1-2" data-name="Layer 1">
    <g>
      <path class="cls-1" d="M312.28,805.86h-1.32c-2.91,0-5.27-2.36-5.27-5.27s2.36-5.27,5.27-5.27h1.32c2.91,0,5.27,2.36,5.27,5.27s-2.36,5.27-5.27,5.27Z"/>
      <path class="cls-1" d="M915.48,805.85c-2.9,0-5.27-2.32-5.27-5.27s2.37-5.27,5.27-5.27,5.27,2.37,5.27,5.27-2.32,5.27-5.27,5.27ZM894.77,805.85h-2.58c-2.9,0-5.27-2.32-5.27-5.27s2.37-5.27,5.27-5.27h2.58c2.95,0,5.27,2.37,5.27,5.27s-2.32,5.27-5.27,5.27ZM871.48,805.85h-2.58c-2.9,0-5.27-2.32-5.27-5.27s2.37-5.27,5.27-5.27h2.58c2.9,0,5.27,2.37,5.27,5.27s-2.37,5.27-5.27,5.27ZM848.19,805.85h-2.58c-2.9,0-5.27-2.32-5.27-5.27s2.37-5.27,5.27-5.27h2.58c2.9,0,5.27,2.37,5.27,5.27s-2.37,5.27-5.27,5.27ZM824.9,805.85h-2.58c-2.9,0-5.27-2.32-5.27-5.27s2.37-5.27,5.27-5.27h2.58c2.9,0,5.27,2.37,5.27,5.27s-2.37,5.27-5.27,5.27ZM801.61,805.85h-2.58c-2.95,0-5.27-2.32-5.27-5.27s2.32-5.27,5.27-5.27h2.58c2.9,0,5.27,2.37,5.27,5.27s-2.37,5.27-5.27,5.27ZM778.31,805.85h-2.63c-2.9,0-5.27-2.32-5.27-5.27s2.37-5.27,5.27-5.27h2.63c2.9,0,5.27,2.37,5.27,5.27s-2.37,5.27-5.27,5.27ZM754.97,805.85h-2.58c-2.9,0-5.27-2.32-5.27-5.27s2.37-5.27,5.27-5.27h2.58c2.95,0,5.27,2.37,5.27,5.27s-2.32,5.27-5.27,5.27ZM731.68,805.85h-2.58c-2.9,0-5.27-2.32-5.27-5.27s2.37-5.27,5.27-5.27h2.58c2.9,0,5.27,2.37,5.27,5.27s-2.37,5.27-5.27,5.27ZM708.38,805.85h-2.58c-2.9,0-5.27-2.32-5.27-5.27s2.37-5.27,5.27-5.27h2.58c2.9,0,5.27,2.37,5.27,5.27s-2.37,5.27-5.27,5.27ZM685.09,805.85h-2.58c-2.9,0-5.27-2.32-5.27-5.27s2.37-5.27,5.27-5.27h2.58c2.9,0,5.27,2.37,5.27,5.27s-2.37,5.27-5.27,5.27ZM661.8,805.85h-2.58c-2.95,0-5.27-2.32-5.27-5.27s2.32-5.27,5.27-5.27h2.58c2.9,0,5.27,2.37,5.27,5.27s-2.37,5.27-5.27,5.27ZM638.51,805.85h-2.63c-2.9,0-5.27-2.32-5.27-5.27s2.37-5.27,5.27-5.27h2.63c2.9,0,5.27,2.37,5.27,5.27s-2.37,5.27-5.27,5.27ZM615.16,805.85h-2.58c-2.9,0-5.27-2.32-5.27-5.27s2.37-5.27,5.27-5.27h2.58c2.9,0,5.27,2.37,5.27,5.27s-2.37,5.27-5.27,5.27ZM591.87,805.85h-2.58c-2.9,0-5.27-2.32-5.27-5.27s2.37-5.27,5.27-5.27h2.58c2.9,0,5.27,2.37,5.27,5.27s-2.37,5.27-5.27,5.27ZM568.58,805.85h-2.58c-2.9,0-5.27-2.32-5.27-5.27s2.37-5.27,5.27-5.27h2.58c2.9,0,5.27,2.37,5.27,5.27s-2.37,5.27-5.27,5.27ZM545.29,805.85h-2.58c-2.9,0-5.27-2.32-5.27-5.27s2.37-5.27,5.27-5.27h2.58c2.9,0,5.27,2.37,5.27,5.27s-2.37,5.27-5.27,5.27ZM522,805.85h-2.58c-2.9,0-5.27-2.32-5.27-5.27s2.37-5.27,5.27-5.27h2.58c2.9,0,5.27,2.37,5.27,5.27s-2.37,5.27-5.27,5.27ZM498.7,805.85h-2.58c-2.95,0-5.27-2.32-5.27-5.27s2.32-5.27,5.27-5.27h2.58c2.9,0,5.27,2.37,5.27,5.27s-2.37,5.27-5.27,5.27ZM475.36,805.85h-2.58c-2.9,0-5.27-2.32-5.27-5.27s2.37-5.27,5.27-5.27h2.58c2.95,0,5.27,2.37,5.27,5.27s-2.32,5.27-5.27,5.27ZM452.07,805.85h-2.58c-2.9,0-5.27-2.32-5.27-5.27s2.37-5.27,5.27-5.27h2.58c2.9,0,5.27,2.37,5.27,5.27s-2.37,5.27-5.27,5.27ZM428.78,805.85h-2.58c-2.9,0-5.27-2.32-5.27-5.27s2.37-5.27,5.27-5.27h2.58c2.9,0,5.27,2.37,5.27,5.27s-2.37,5.27-5.27,5.27ZM405.48,805.85h-2.58c-2.9,0-5.27-2.32-5.27-5.27s2.37-5.27,5.27-5.27h2.58c2.9,0,5.27,2.37,5.27,5.27s-2.37,5.27-5.27,5.27ZM382.19,805.85h-2.58c-2.9,0-5.27-2.32-5.27-5.27s2.37-5.27,5.27-5.27h2.58c2.9,0,5.27,2.37,5.27,5.27s-2.37,5.27-5.27,5.27ZM358.9,805.85h-2.58c-2.95,0-5.27-2.32-5.27-5.27s2.32-5.27,5.27-5.27h2.58c2.9,0,5.27,2.37,5.27,5.27s-2.37,5.27-5.27,5.27ZM335.55,805.85h-2.58c-2.9,0-5.27-2.32-5.27-5.27s2.37-5.27,5.27-5.27h2.58c2.95,0,5.27,2.37,5.27,5.27s-2.32,5.27-5.27,5.27Z"/>
      <path class="cls-1" d="M916.82,805.86h-1.32c-2.91,0-5.27-2.36-5.27-5.27s2.36-5.27,5.27-5.27h1.32c2.91,0,5.27,2.36,5.27,5.27s-2.36,5.27-5.27,5.27Z"/>
      <path class="cls-1" d="M613.89,1227.78C275.39,1227.78,0,952.39,0,613.89S275.39,0,613.89,0s613.89,275.39,613.89,613.89-275.39,613.89-613.89,613.89ZM613.89,15.81C284.1,15.81,15.8,284.11,15.8,613.9s268.3,598.08,598.09,598.08,598.08-268.3,598.08-598.08S943.67,15.81,613.89,15.81h0Z"/>
      <path class="cls-1" d="M613.89,1173.73c-311.84,0-565.54-253.7-565.54-565.54S302.05,42.65,613.89,42.65s565.54,253.7,565.54,565.54-253.7,565.54-565.54,565.54h0ZM613.89,53.19C307.86,53.19,58.89,302.16,58.89,608.19s248.97,555,555,555,555-248.97,555-555S919.92,53.19,613.89,53.19h0Z"/>
      <path class="cls-1" d="M234.02,548.95h34.69c9.47,0,16.13.86,19.98,2.59,3.85,1.73,7.09,4.78,9.74,9.15,2.65,4.37,3.97,9.32,3.97,14.84,0,5.09-1.13,9.69-3.4,13.8-2.26,4.11-5.21,7.15-8.83,9.11,5.13,1.83,9.15,4.95,12.05,9.37,2.9,4.42,4.35,9.8,4.35,16.14,0,7.69-1.85,14.18-5.55,19.49s-8.07,8.59-13.11,9.83c-3.5.86-11.65,1.3-24.42,1.3h-29.47v-105.62h0ZM251.46,566.53v24.42h11.53c6.92,0,11.19-.12,12.82-.36,2.98-.48,5.31-1.74,6.99-3.78,1.68-2.04,2.52-4.81,2.52-8.32,0-3.12-.68-5.66-2.05-7.6-1.37-1.95-3.03-3.16-4.97-3.64-1.95-.48-7.53-.72-16.75-.72h-10.09ZM251.46,608.53v28.17h16.24c7.12,0,11.69-.37,13.71-1.11s3.72-2.2,5.09-4.38c1.37-2.18,2.06-4.95,2.06-8.3s-.74-6.29-2.2-8.52-3.42-3.76-5.85-4.6c-2.43-.84-7.4-1.26-14.91-1.26h-14.15,0Z"/>
      <path class="cls-1" d="M399.52,654.57h-18.96l-7.58-23.92h-34.68l-7.16,23.92h-18.59l33.73-105.62h18.52l34.72,105.62ZM367.35,612.78l-11.96-39.19-11.73,39.19h23.69Z"/>
      <path class="cls-1" d="M409.17,654.57v-104.76h17.44v86.89h43.52v17.87h-60.96Z"/>
      <path class="cls-1" d="M482.08,654.57v-105.62h17.44v105.62h-17.44Z"/>
      <path class="cls-1" d="M516.45,654.57v-105.62h17.44v47.02l35.41-47.02h23.56l-32.66,41.16,34.39,64.46h-22.63l-23.89-49.64-14.18,17.72v31.92h-17.44Z"/>
      <path class="cls-1" d="M603.55,548.95h34.69c9.47,0,16.13.86,19.98,2.59,3.85,1.73,7.09,4.78,9.74,9.15,2.65,4.37,3.97,9.32,3.97,14.84,0,5.09-1.13,9.69-3.4,13.8-2.26,4.11-5.21,7.15-8.83,9.11,5.13,1.83,9.15,4.95,12.05,9.37,2.9,4.42,4.35,9.8,4.35,16.14,0,7.69-1.85,14.18-5.55,19.49s-8.07,8.59-13.11,9.83c-3.5.86-11.65,1.3-24.42,1.3h-29.47v-105.62h0ZM620.99,566.53v24.42h11.53c6.92,0,11.19-.12,12.82-.36,2.98-.48,5.31-1.74,6.99-3.78,1.68-2.04,2.52-4.81,2.52-8.32,0-3.12-.68-5.66-2.05-7.6-1.37-1.95-3.03-3.16-4.97-3.64-1.95-.48-7.53-.72-16.75-.72h-10.09ZM620.99,608.53v28.17h16.24c7.12,0,11.69-.37,13.71-1.11s3.72-2.2,5.09-4.38c1.37-2.18,2.06-4.95,2.06-8.3s-.74-6.29-2.2-8.52-3.42-3.76-5.85-4.6-7.4-1.26-14.91-1.26h-14.15,0Z"/>
      <path class="cls-1" d="M769.04,654.57h-18.96l-7.58-23.92h-34.68l-7.16,23.92h-18.59l33.73-105.62h18.52l34.72,105.62ZM736.87,612.78l-11.96-39.19-11.73,39.19h23.69Z"/>
      <path class="cls-1" d="M789.86,654.57v-44.47l-31.7-61.15h20.46l20.35,41.77,20.07-41.77h20.1l-31.84,61.3v44.32h-17.44Z"/>
      <path class="cls-1" d="M914.87,654.57h-18.96l-7.58-23.92h-34.68l-7.16,23.92h-18.59l33.73-105.62h18.52l34.72,105.62ZM882.7,612.78l-11.96-39.19-11.73,39.19h23.69Z"/>
      <path class="cls-1" d="M924.23,654.57v-105.62h17l35.45,70.53v-70.53h16.28v105.62h-17.58l-34.87-68.88v68.88h-16.28Z"/>
      <path class="cls-1" d="M297.76,960.8c15.29-24.95,22.93-37.43,38.23-62.38,4.34,2.66,6.47,3.98,10.69,6.62-1.06,22.38-1.34,33.78-1.23,56.84,9.07-17.31,13.61-25.97,22.68-43.28,3.86,2.45,5.77,3.67,9.57,6.08-13.05,26.2-19.57,39.3-32.62,65.49-4.69-2.89-7.04-4.35-11.79-7.31-.53-22.75-.48-34.01.09-56.13-9.63,16.48-14.44,24.72-24.07,41.19-4.57-2.84-6.88-4.26-11.56-7.13h0Z"/>
      <path class="cls-1" d="M357.32,997.64c12.43-26.49,18.64-39.74,31.08-66.24,14.81,9.24,22.02,13.66,36.83,21.66-1.73,4.64-2.6,6.96-4.33,11.59-11.07-5.93-16.51-9.12-27.5-15.77-2.63,5.93-3.94,8.9-6.56,14.83,10.54,6.32,15.76,9.36,26.36,15.05-1.75,4.61-2.62,6.92-4.36,11.53-10.85-5.79-16.2-8.88-26.99-15.31-3.21,7.27-4.82,10.9-8.04,18.16,12.45,7.35,18.61,10.86,31.17,17.38-1.72,4.64-2.59,6.96-4.31,11.6-17.46-9-25.95-14-43.34-24.5v.02Z"/>
      <path class="cls-1" d="M418.78,1031.01c3.64-30.35,5.85-45.47,11.02-75.5,4.16,2.18,6.24,3.24,10.46,5.29-3.38,20.54-4.9,30.85-7.6,51.53,10.26-17.32,15.21-26.07,24.79-43.74,5.06,2.11,7.62,3.12,12.83,5.01-1.52,21.13-2.07,31.72-2.74,52.91,8.7-18.66,12.91-28.05,21.04-46.97,4.62,1.32,6.97,1.94,11.76,3.08-11.72,27.29-17.88,40.79-30.84,67.47-5.52-1.59-8.24-2.44-13.6-4.24.54-22.85,1.07-34.27,2.64-57.04-10.35,19.36-15.72,28.94-26.86,47.88-5.21-2.18-7.78-3.32-12.89-5.68h-.01Z"/>
      <path class="cls-1" d="M513.13,1059.59c.86-5.28,1.3-7.92,2.16-13.2,17.37-16.38,25.55-24.87,40.89-42.31-11.83-1.26-17.73-2.03-29.5-3.88.77-4.89,1.15-7.34,1.93-12.23,18.09,2.84,27.19,3.91,45.41,5.32-.36,4.58-.54,6.87-.89,11.44-15.42,18.59-23.7,27.65-41.35,45.14,15.57,2.13,23.38,2.96,39.02,4.13-.37,4.94-.56,7.41-.93,12.34-22.78-1.71-34.15-3.07-56.74-6.76h0Z"/>
      <path class="cls-1" d="M578.85,1066.97c1.79-29.21,2.69-43.82,4.49-73.03,18.49,1.14,27.76,1.34,46.27,1,.09,4.95.13,7.42.22,12.37-13.78.25-20.67.17-34.45-.38-.26,6.48-.39,9.72-.65,16.21,13.14.52,19.72.61,32.88.43.07,4.93.1,7.4.17,12.33-13.42.19-20.13.1-33.54-.43-.32,7.94-.47,11.91-.79,19.85,15.39.61,23.1.69,38.5.38.1,4.95.15,7.42.25,12.37-21.35.43-32.04.21-53.36-1.1h.01Z"/>
      <path class="cls-1" d="M707.36,1062.24c-6.11.83-9.16,1.21-15.28,1.89-3.19-6.31-4.75-9.48-7.82-15.83-10.91,1.12-16.38,1.56-27.32,2.21-1.87,6.75-2.83,10.12-4.82,16.86-6.02.3-9.03.42-15.06.59,10.13-29.55,14.57-44.44,22.26-74.31,5.33-.37,7.99-.58,13.31-1.07,12.65,28.22,19.6,42.18,34.73,69.66h0ZM678.65,1036.42c-4.73-10.46-7.01-15.71-11.42-26.25-2.6,11.1-3.98,16.65-6.89,27.73,7.33-.48,10.99-.78,18.31-1.48Z"/>
      <path class="cls-1" d="M715.12,1061.14c-4.26-28.71-6.39-43.07-10.63-71.78,4.99-.74,7.48-1.13,12.46-1.98,4.03,23.73,6.05,35.6,10.1,59.34,13.69-2.33,20.52-3.68,34.1-7.45,1.09,4.83,1.64,7.24,2.73,12.07-19.39,5.37-29.16,6.91-48.76,9.81h0Z"/>
      <path class="cls-1" d="M835.12,1024.06c-5.88,2.8-8.83,4.15-14.75,6.76-4.4-5.26-6.57-7.91-10.86-13.25-10.57,4.53-15.89,6.64-26.56,10.41-.51,7.18-.79,10.78-1.41,17.95-5.88,1.96-8.83,2.88-14.74,4.58,4.12-31.59,5.56-47.5,7.23-79.31,5.19-1.97,7.77-3.02,12.93-5.2,18.1,23.93,27.75,35.55,48.16,58.06h0ZM801.61,1007.55c-6.75-8.89-10.05-13.37-16.49-22.44-.37,11.78-.63,17.67-1.31,29.45,7.14-2.62,10.7-4.03,17.8-7.01Z"/>
      <path class="cls-1" d="M842.37,1020.56c-9.96-27.52-14.96-41.28-24.91-68.79,4.67-2.37,7-3.58,11.64-6.06,16.72,13.07,25.46,19.33,43.66,31.37-7.85-17.9-11.79-26.85-19.63-44.74,4.39-2.53,6.57-3.81,10.92-6.39,12.3,26.55,18.48,39.83,30.77,66.38-5.29,3.06-7.94,4.57-13.27,7.56-18.2-11.56-26.97-17.59-43.78-30.16,6.87,17.81,10.3,26.71,17.16,44.52-5.01,2.58-7.52,3.85-12.56,6.33v-.02Z"/>
      <path class="cls-1" d="M876.22,918.64c8.45-5.11,12.65-7.7,20.96-12.84,5.26-3.24,9.5-5.14,12.77-5.7,3.27-.56,6.78-.25,10.54.91s7.52,3.36,11.27,6.6,7.49,7.84,11.16,13.83c3.3,5.39,5.48,10.51,6.46,15.38.99,4.88,1.05,9.19.18,12.92-.86,3.73-2.58,7.2-5.15,10.39-2.56,3.19-6.44,6.38-11.61,9.53-9.63,5.87-14.49,8.82-24.29,14.62-12.9-26.26-19.38-39.39-32.3-65.65h.01ZM893.44,922.61c8.93,17.18,13.41,25.77,22.33,42.95,3.8-2.3,5.7-3.45,9.48-5.76,4.06-2.47,6.8-4.58,8.24-6.32,1.45-1.75,2.37-3.61,2.78-5.59.41-1.99.18-4.58-.68-7.8-.86-3.22-2.61-7.07-5.23-11.59-2.72-4.68-5.24-8.15-7.53-10.41-2.29-2.25-4.64-3.7-7.05-4.32-2.41-.63-4.83-.51-7.27.33-1.83.63-5.08,2.37-9.77,5.25-2.12,1.3-3.18,1.95-5.3,3.25h0Z"/>
      <path class="cls-1" d="M491.08,231.23c-5.22,1.34-7.82,2.05-13.02,3.53-3.9-5.78-5.88-8.65-9.92-14.37-9.79,2.92-14.65,4.5-24.32,7.92.21,6.95.35,10.43.69,17.36-5,1.83-7.5,2.77-12.46,4.74-1.75-30.78-1.95-46.33-.91-77.6,5.75-1.96,8.64-2.9,14.43-4.7,19.55,24.57,28.66,37.23,45.5,63.12h.01ZM460.54,209.76c-6.64-9.32-10.04-13.94-17.03-23.09-.18,11.48-.18,17.21,0,28.63,6.78-2.34,10.19-3.45,17.02-5.54h.01Z"/>
      <path class="cls-1" d="M497.43,229.64c-6.9-28.44-10.36-42.66-17.27-71.1,11.67-2.83,17.53-4.09,29.3-6.29,7.53-1.41,13.03-1.63,16.46-.84s6.41,2.66,8.92,5.57c2.51,2.92,4.05,6.63,4.66,11.12.78,5.67-.12,10.44-2.61,14.33s-6.35,6.7-11.63,8.51c3.1,1.36,5.72,3,7.87,4.91,2.15,1.9,5.2,5.45,9.05,10.68,3.84,5.22,5.72,7.85,9.39,13.14-5.85.74-8.77,1.16-14.6,2.08-4.53-5.73-6.85-8.58-11.6-14.2-4.28-5.09-7.22-8.2-8.69-9.39-1.46-1.19-2.93-1.93-4.38-2.2s-3.66-.11-6.63.52c-1.06.22-1.6.34-2.66.57,2.59,11.94,3.88,17.91,6.46,29.85-4.83,1.04-7.24,1.6-12.05,2.77v-.03ZM500.55,185.61c3.9-.84,5.86-1.25,9.77-2.02,5.99-1.18,9.76-2.07,11.32-2.83,1.55-.76,2.72-1.94,3.5-3.56.79-1.62.99-3.62.6-6.02-.38-2.3-1.2-4.06-2.48-5.28-1.28-1.22-2.88-1.95-4.77-2.15-1.34-.14-5.08.32-11.19,1.51-4.28.84-6.41,1.28-10.68,2.2,1.57,7.26,2.36,10.89,3.93,18.15h0Z"/>
      <path class="cls-1" d="M558.26,218.86c-3.3-29.08-4.95-43.62-8.24-72.7,11.86-1.34,17.81-1.86,29.72-2.58,7.62-.46,13.09.01,16.39,1.22s6.02,3.43,8.14,6.64c2.12,3.21,3.18,7.09,3.24,11.61.07,5.72-1.42,10.34-4.36,13.9-2.95,3.55-7.12,5.86-12.56,7,2.9,1.74,5.29,3.69,7.17,5.85,1.89,2.15,4.47,6.05,7.63,11.72,3.15,5.66,4.69,8.5,7.67,14.2-5.89,0-8.83.06-14.72.24-3.77-6.25-5.71-9.36-9.71-15.54-3.6-5.59-6.12-9.03-7.43-10.41-1.3-1.37-2.66-2.28-4.06-2.73-1.4-.45-3.61-.57-6.62-.32-1.08.09-1.62.14-2.7.23,1.07,12.17,1.61,18.25,2.69,30.42-4.9.43-7.35.68-12.24,1.23v.02ZM566.79,175.57c3.96-.35,5.94-.51,9.9-.78,6.06-.42,9.91-.84,11.54-1.4,1.62-.56,2.93-1.59,3.91-3.1s1.43-3.47,1.34-5.9c-.09-2.33-.68-4.18-1.8-5.55s-2.6-2.29-4.45-2.73c-1.31-.31-5.07-.32-11.25.11-4.33.3-6.5.47-10.82.85.65,7.4.98,11.1,1.63,18.49h0Z"/>
      <path class="cls-1" d="M619.35,215.75c.32-29.26.48-43.9.81-73.16,5.65.06,8.47.13,14.11.33-1.06,29.25-1.59,43.87-2.63,73.12-4.91-.18-7.37-.23-12.29-.29Z"/>
      <path class="cls-1" d="M659.04,217.78c-6.05-29.94-9.72-44.89-18.35-74.6,6.13.29,9.2.48,15.33.93,5.47,22.13,7.87,33.23,11.99,55.44,8.47-20.88,13.03-31.25,22.8-51.77,5.98.82,8.96,1.27,14.92,2.25-14.7,27.25-21.43,41.1-33.58,69.13-5.23-.62-7.85-.9-13.1-1.38h-.01Z"/>
      <path class="cls-1" d="M747.95,234.25c-5.2-1.47-7.8-2.16-13.03-3.48-.47-6.95-.74-10.43-1.35-17.4-9.89-2.39-14.87-3.45-24.84-5.34-3.29,6.12-4.9,9.2-8.06,15.36-5.18-.92-7.78-1.35-12.98-2.14,13.8-27.51,21.39-41.06,37.92-67.59,5.91,1.19,8.86,1.82,14.74,3.17,4.5,31.05,6.01,46.57,7.59,77.42h.01ZM732.35,200.36c-1.04-11.39-1.66-17.09-3.07-28.5-5.9,9.84-8.77,14.8-14.32,24.77,6.97,1.37,10.45,2.12,17.39,3.73h0Z"/>
      <path class="cls-1" d="M754.55,236.16c8.26-27.82,12.39-41.74,20.66-69.56,5.47,1.62,8.19,2.47,13.63,4.24-7.44,22.9-11.16,34.35-18.59,57.25,12.11,3.93,18.13,6.1,30.04,10.81-1.82,4.6-2.73,6.9-4.55,11.51-16.27-6.44-24.53-9.29-41.18-14.24h-.01Z"/>
      <circle class="cls-1" cx="254.94" cy="869.44" r="10.42"/>
      <circle class="cls-1" cx="969.48" cy="869.44" r="10.42"/>
      <circle class="cls-1" cx="821.04" cy="214.54" r="10.42"/>
      <circle class="cls-1" cx="392.78" cy="214.54" r="10.42"/>
      <path class="cls-1" d="M436.08,747.66c.34-8.86,1.8-15.52,4.36-19.98,2.56-4.47,6.17-6.61,10.82-6.43,4.13.16,7.31,2.13,9.55,5.92,2.71,4.57,3.87,11.77,3.49,21.58-.34,8.81-1.78,15.45-4.33,19.93-2.55,4.48-6.17,6.63-10.85,6.45-4.13-.16-7.43-2.31-9.9-6.44-2.48-4.13-3.53-11.14-3.14-21.03h0ZM441.53,747.85c-.33,8.57.27,14.35,1.8,17.33,1.54,2.98,3.6,4.52,6.17,4.62,2.43.1,4.52-1.3,6.26-4.19,1.75-2.89,2.79-8.59,3.12-17.09.33-8.6-.27-14.38-1.81-17.35s-3.62-4.5-6.24-4.61c-2.4-.09-4.47,1.31-6.21,4.2-1.73,2.89-2.76,8.59-3.09,17.09h0Z"/>
      <path class="cls-1" d="M469.24,761.16l5.6-.36c.3,3.38,1.18,5.91,2.64,7.62,1.47,1.7,3.21,2.59,5.22,2.67,2.52.1,4.73-.98,6.65-3.23,1.91-2.25,2.94-5.38,3.1-9.39.14-3.78-.63-6.74-2.3-8.88-1.69-2.15-3.86-3.27-6.53-3.38-1.61-.06-3.13.33-4.57,1.18-1.45.85-2.59,2.06-3.47,3.64l-4.98-.98,5.26-26.96,21.49.83-.24,6.19-17.27-.66-2.86,14.11c2.65-2.12,5.42-3.13,8.3-3.02,3.62.14,6.71,1.8,9.27,5,2.56,3.19,3.74,7.4,3.54,12.64-.2,5.16-1.7,9.54-4.52,13.12s-6.48,5.29-10.99,5.12c-3.75-.14-6.85-1.57-9.34-4.27-2.48-2.71-3.8-6.37-3.99-10.99h0Z"/>
      <path class="cls-1" d="M521.23,777.01l2.03-52.77,8.61.33,8.83,37.76,1.75,7.89c.58-1.92,1.46-4.72,2.63-8.37l11.79-36.32,7.71.3-2.03,52.77-5.51-.22,1.7-44.13-14.32,43.65-5.15-.2-10.82-45.37-1.73,44.89-5.51-.21h.02Z"/>
      <path class="cls-1" d="M567.01,778.77l18.72-52.13,6.12.24,15.69,53.45-6.55-.25-4.43-16.17-18.2-.71-5.32,15.8-6.04-.23h.01ZM580.27,757.58l14.74.57-3.94-14.79c-1.21-4.54-2.09-8.23-2.63-11.06-.69,3.37-1.61,6.7-2.76,9.99l-5.41,15.29h0Z"/>
      <path class="cls-1" d="M619.82,780.8l.86-22.36-15.5-31.06,6.99.27,7.88,16.26c1.56,3.22,2.92,6.25,4.08,9.11,1.38-2.71,3.08-5.76,5.09-9.15l9-15.21,6.62.26-18.45,29.75-.86,22.36-5.72-.22h0Z"/>
      <path class="cls-1" d="M689.71,777.26l-.24,6.23-28.62-1.1c.02-2.52.9-5.32,2.61-8.38,1.71-3.06,4.78-6.63,9.19-10.72,5.16-4.76,8.55-8.45,10.2-11.1,1.64-2.64,2.51-5.13,2.59-7.46.1-2.69-.6-4.91-2.1-6.67s-3.42-2.67-5.72-2.76c-2.48-.09-4.53.74-6.19,2.51s-2.55,4.36-2.68,7.78l-5.44-.89c.58-5.05,2.16-8.81,4.74-11.27,2.59-2.46,5.9-3.61,9.96-3.46,4.42.17,7.7,1.79,9.85,4.85,2.15,3.06,3.15,6.49,3.01,10.28-.13,3.36-1.14,6.55-3.04,9.56-1.9,3.02-5.42,7-10.59,11.94-3.29,3.12-5.43,5.25-6.39,6.4-.97,1.14-1.77,2.28-2.39,3.44l21.24.82h.01Z"/>
      <path class="cls-1" d="M696.09,757.68c.34-8.85,1.8-15.52,4.36-19.98,2.56-4.47,6.18-6.61,10.83-6.43,4.13.16,7.31,2.14,9.55,5.92,2.7,4.57,3.87,11.77,3.49,21.59-.34,8.81-1.79,15.45-4.34,19.93-2.55,4.48-6.17,6.63-10.84,6.45-4.13-.16-7.43-2.31-9.9-6.44-2.48-4.13-3.52-11.15-3.14-21.03h-.01ZM701.53,757.87c-.33,8.57.27,14.35,1.8,17.33,1.54,2.98,3.59,4.52,6.17,4.62,2.43.09,4.51-1.3,6.26-4.19,1.75-2.89,2.79-8.59,3.12-17.1.33-8.59-.27-14.38-1.81-17.35s-3.62-4.5-6.24-4.61c-2.4-.09-4.47,1.31-6.21,4.2-1.73,2.89-2.77,8.59-3.09,17.09h0Z"/>
      <path class="cls-1" d="M756.96,779.85l-.24,6.23-28.62-1.1c.02-2.52.9-5.32,2.61-8.38,1.72-3.06,4.78-6.63,9.2-10.72,5.16-4.76,8.55-8.46,10.19-11.1,1.64-2.65,2.51-5.13,2.59-7.46.1-2.69-.6-4.91-2.1-6.66-1.51-1.75-3.41-2.68-5.72-2.76-2.48-.1-4.53.74-6.19,2.51-1.66,1.77-2.55,4.36-2.68,7.78l-5.44-.9c.58-5.05,2.16-8.81,4.74-11.27,2.59-2.46,5.9-3.61,9.96-3.45,4.42.17,7.7,1.79,9.86,4.85,2.15,3.06,3.15,6.48,3.01,10.28-.13,3.36-1.14,6.54-3.03,9.56-1.9,3.02-5.43,6.99-10.6,11.94-3.29,3.12-5.42,5.25-6.39,6.39s-1.77,2.29-2.39,3.44l21.24.82h0Z"/>
      <path class="cls-1" d="M762.86,772.47l5.6-.36c.3,3.38,1.18,5.92,2.64,7.62,1.47,1.7,3.21,2.59,5.22,2.67,2.52.1,4.73-.98,6.65-3.23,1.91-2.25,2.95-5.38,3.1-9.39.14-3.77-.63-6.74-2.31-8.88-1.69-2.15-3.86-3.27-6.53-3.37-1.61-.07-3.13.33-4.56,1.18-1.45.85-2.6,2.06-3.48,3.64l-4.98-.99,5.26-26.96,21.49.83-.24,6.19-17.27-.66-2.86,14.11c2.65-2.12,5.42-3.12,8.3-3.02,3.62.14,6.71,1.81,9.27,5s3.74,7.4,3.54,12.64c-.2,5.16-1.71,9.54-4.52,13.12-2.82,3.58-6.48,5.29-11,5.12-3.74-.14-6.85-1.56-9.34-4.27-2.48-2.71-3.81-6.37-3.99-10.99h.01Z"/>
      <path class="cls-1" d="M724.36,430.06h-210.21c-2.91,0-5.27-2.36-5.27-5.27s2.36-5.27,5.27-5.27h210.21c2.91,0,5.27,2.36,5.27,5.27s-2.36,5.27-5.27,5.27Z"/>
      <g id="_Radial_Repeat_" data-name=" Radial Repeat ">
        <path class="cls-1" d="M627.66,1137.7c-4.69,1.7-9.64,2.54-14.85,2.54s-9.82-.8-14.4-2.42-9.7-4.43-15.36-8.42v-7.84c9.94,4.9,19.62,7.35,29.02,7.35,4.88,0,9.47-.5,13.77-1.51,5.06-1.19,10.58-3.14,16.55-5.84v7.84c-5.13,3.83-10.04,6.6-14.73,8.3h0Z"/>
        <path class="cls-1" d="M612.81,1142.87c-5.31,0-10.45-.86-15.28-2.57-4.78-1.69-10.16-4.63-16-8.75l-1.12-.79v-13.44l3.8,1.87c9.53,4.69,18.9,7.08,27.86,7.08,4.65,0,9.09-.48,13.17-1.44,4.87-1.15,10.28-3.06,16.07-5.68l3.72-1.68v13.25l-1.06.79c-5.32,3.97-10.5,6.89-15.41,8.66-4.95,1.8-10.25,2.7-15.75,2.7h0ZM585.68,1128.02c5.01,3.44,9.58,5.89,13.6,7.31,8.69,3.07,18.89,2.98,27.48-.11,4.1-1.49,8.46-3.89,12.99-7.15v-2.5c-4.71,1.95-9.18,3.42-13.31,4.39-12.07,2.84-26.5,1.91-40.77-4.28v2.34h.01Z"/>
      </g>
      <g id="_Radial_Repeat_-2" data-name=" Radial Repeat -2">
        <path class="cls-1" d="M524.1,1130.2c-4.94.75-9.96.62-15.06-.4-4.92-.98-9.48-2.71-13.65-5.19-4.18-2.48-8.66-6.23-13.43-11.25l1.53-7.69c8.79,6.74,17.81,11.03,27.03,12.87,4.79.95,9.39,1.35,13.8,1.2,5.2-.19,10.99-1.02,17.37-2.5l-1.53,7.69c-5.77,2.76-11.13,4.51-16.06,5.26h0Z"/>
        <path class="cls-1" d="M517.77,1133.31c-3.06,0-6.15-.3-9.25-.92-5.19-1.03-10.06-2.88-14.48-5.51-4.36-2.59-9.07-6.53-14-11.7l-.94-.99,2.63-13.19,3.36,2.58c8.43,6.46,17.16,10.63,25.94,12.38,4.56.91,9.01,1.3,13.2,1.15,5-.17,10.68-.99,16.86-2.43l3.98-.92-2.58,12.99-1.19.57c-5.99,2.86-11.64,4.7-16.8,5.49-2.22.34-4.46.5-6.72.5h-.01ZM484.81,1112.53c4.24,4.34,8.25,7.64,11.92,9.82,3.91,2.32,8.22,3.95,12.82,4.87,4.79.95,9.55,1.08,14.15.38h0c4.31-.65,9.06-2.16,14.13-4.48l.49-2.45c-5,.99-9.67,1.56-13.91,1.72-4.59.13-9.45-.27-14.41-1.26-8.4-1.67-16.7-5.33-24.74-10.89l-.46,2.3h0Z"/>
      </g>
      <g id="_Radial_Repeat_-3" data-name=" Radial Repeat -3">
        <path class="cls-1" d="M423.98,1102.66c-4.98-.23-9.88-1.34-14.7-3.33-4.64-1.92-8.76-4.5-12.38-7.75-3.61-3.24-7.27-7.79-10.97-13.65l3-7.25c7.31,8.33,15.31,14.3,24,17.89,4.51,1.87,8.94,3.16,13.3,3.87,5.14.84,10.98,1.15,17.52.95l-3,7.25c-6.2,1.57-11.8,2.25-16.78,2.02h.01Z"/>
        <path class="cls-1" d="M425.86,1105.34c-.68,0-1.35-.02-2-.05h0c-5.27-.24-10.51-1.43-15.59-3.53-4.89-2.02-9.31-4.79-13.13-8.22-3.78-3.4-7.63-8.17-11.43-14.2l-.73-1.15,5.14-12.42,2.79,3.18c7.01,7.99,14.76,13.78,23.03,17.2,4.3,1.79,8.58,3.03,12.72,3.71,4.94.8,10.65,1.12,17.02.91l4.08-.13-5.07,12.24-1.28.32c-5.61,1.43-10.84,2.15-15.55,2.15h0ZM424.09,1100.03c4.36.18,9.31-.36,14.74-1.63l.96-2.31c-5.11-.01-9.79-.36-13.98-1.04-4.53-.74-9.21-2.09-13.89-4.03-7.91-3.27-15.34-8.48-22.14-15.51l-.9,2.17c3.3,5.07,6.58,9.09,9.76,11.95,3.38,3.03,7.29,5.48,11.63,7.28,4.51,1.87,9.16,2.92,13.81,3.14h0v-.02Z"/>
      </g>
      <g id="_Radial_Repeat_-4" data-name=" Radial Repeat -4">
        <path class="cls-1" d="M331.16,1056.11c-4.85-1.2-9.43-3.25-13.76-6.14-4.18-2.79-7.72-6.12-10.63-10.01-2.91-3.89-5.61-9.06-8.1-15.53l4.36-6.52c5.54,9.6,12.23,17.01,20.05,22.23,4.06,2.71,8.16,4.84,12.29,6.4,4.87,1.82,10.54,3.27,17,4.34l-4.36,6.52c-6.39.33-12.01-.1-16.85-1.29h0Z"/>
        <path class="cls-1" d="M343.97,1060.14c-4.95,0-9.45-.49-13.44-1.47h0c-5.11-1.26-10.01-3.45-14.59-6.5-4.41-2.94-8.2-6.52-11.28-10.63-3.04-4.05-5.88-9.49-8.45-16.16l-.49-1.28,7.47-11.18,2.12,3.67c5.31,9.2,11.78,16.39,19.23,21.36,3.87,2.59,7.82,4.65,11.76,6.12,4.68,1.75,10.24,3.16,16.51,4.21l4.03.67-7.36,11.01-1.32.07c-1.43.08-2.82.11-4.18.11h0ZM331.79,1053.55c4.26,1.04,9.22,1.48,14.78,1.27l1.39-2.08c-5-1-9.54-2.26-13.51-3.74-4.31-1.62-8.63-3.86-12.83-6.67-7.12-4.76-13.4-11.32-18.69-19.53l-1.3,1.95c2.26,5.64,4.69,10.22,7.25,13.63,2.72,3.63,6.08,6.79,9.99,9.4,4.07,2.71,8.42,4.66,12.93,5.77h-.01Z"/>
      </g>
      <g id="_Radial_Repeat_-5" data-name=" Radial Repeat -5">
        <path class="cls-1" d="M249.21,992.34c-4.52-2.12-8.62-5.01-12.3-8.7-3.55-3.55-6.38-7.52-8.48-11.9-2.09-4.38-3.73-9.99-4.91-16.82l5.55-5.54c3.56,10.49,8.68,19.07,15.33,25.72,3.45,3.45,7.05,6.33,10.81,8.67,4.42,2.74,9.7,5.26,15.83,7.58l-5.55,5.54c-6.33-.91-11.76-2.43-16.28-4.55h0Z"/>
        <path class="cls-1" d="M266.42,999.68l-1.3-.19c-6.55-.94-12.28-2.55-17.02-4.77-4.79-2.25-9.18-5.35-13.05-9.22s-6.78-8-8.99-12.62c-2.18-4.57-3.91-10.46-5.13-17.51l-.23-1.34,9.51-9.51,1.36,4.01c3.41,10.05,8.35,18.36,14.69,24.71,3.29,3.29,6.76,6.08,10.34,8.29,4.23,2.62,9.4,5.09,15.38,7.35l3.82,1.45-9.37,9.35h-.01ZM226.36,955.82c1.12,5.96,2.61,10.94,4.45,14.79,1.95,4.08,4.63,7.84,7.96,11.17,3.43,3.44,7.32,6.19,11.56,8.17,3.96,1.86,8.74,3.25,14.24,4.13l1.77-1.77c-4.73-1.97-8.93-4.09-12.52-6.31-3.92-2.42-7.71-5.47-11.29-9.04-6.06-6.07-10.93-13.72-14.52-22.81l-1.65,1.66h0Z"/>
      </g>
      <g id="_Radial_Repeat_-6" data-name=" Radial Repeat -6">
        <path class="cls-1" d="M181.27,913.82c-4.02-2.96-7.47-6.61-10.37-10.94-2.79-4.17-4.79-8.61-5.99-13.32-1.2-4.7-1.71-10.52-1.54-17.45l6.53-4.35c1.45,10.99,4.79,20.39,10.01,28.21,2.71,4.06,5.68,7.6,8.91,10.61,3.8,3.55,8.49,7.05,14.04,10.52l-6.52,4.35c-6.04-2.13-11.06-4.68-15.08-7.64h.01Z"/>
        <path class="cls-1" d="M196.72,924.38l-1.25-.44c-6.23-2.2-11.53-4.89-15.76-8h0c-4.24-3.12-7.94-7.02-11-11.59-2.96-4.43-5.09-9.18-6.35-14.14-1.25-4.89-1.8-11-1.62-18.16l.03-1.36,11.19-7.46.55,4.19c1.39,10.53,4.62,19.65,9.59,27.09,2.59,3.88,5.46,7.3,8.52,10.15,3.65,3.4,8.24,6.84,13.64,10.21l3.46,2.16-11,7.35h0ZM182.83,911.7c3.54,2.6,7.96,4.89,13.16,6.82l2.07-1.38c-4.24-2.85-7.95-5.74-11.04-8.63-3.36-3.13-6.48-6.86-9.3-11.07-4.76-7.12-8.04-15.58-9.79-25.2l-1.95,1.3c-.07,6.08.43,11.24,1.49,15.37,1.11,4.38,3,8.59,5.62,12.52,2.72,4.06,6,7.52,9.74,10.28h0Z"/>
      </g>
      <g id="_Radial_Repeat_-7" data-name=" Radial Repeat -7">
        <path class="cls-1" d="M129.96,823.55c-3.37-3.69-6.04-7.94-8.04-12.75-1.92-4.64-3.01-9.39-3.27-14.23-.26-4.85.38-10.65,1.9-17.41l7.25-3c-.73,11.06.72,20.93,4.31,29.63,1.87,4.51,4.09,8.55,6.67,12.15,3.04,4.22,6.95,8.57,11.73,13.06l-7.25,3c-5.5-3.27-9.93-6.75-13.3-10.43v-.02Z"/>
        <path class="cls-1" d="M143.05,836.92l-1.13-.67c-5.69-3.38-10.37-7.06-13.9-10.92h0c-3.55-3.9-6.42-8.44-8.52-13.51-2.03-4.9-3.19-9.98-3.47-15.1-.27-5.07.39-11.17,1.96-18.14l.3-1.33,12.42-5.15-.28,4.23c-.69,10.59.69,20.16,4.12,28.44,1.78,4.29,3.92,8.2,6.38,11.61,2.93,4.06,6.76,8.33,11.39,12.68l2.98,2.79-12.24,5.06h-.01ZM131.91,821.77c2.95,3.23,6.84,6.34,11.57,9.26l2.31-.96c-3.6-3.61-6.67-7.17-9.15-10.62-2.69-3.75-5.03-8.01-6.97-12.68-3.28-7.92-4.85-16.86-4.68-26.62l-2.16.9c-1.25,5.93-1.77,11.1-1.55,15.37.24,4.52,1.28,9.02,3.07,13.36,1.87,4.51,4.41,8.54,7.55,11.98h0Z"/>
      </g>
      <g id="_Radial_Repeat_-8" data-name=" Radial Repeat -8">
        <path class="cls-1" d="M97.24,724.99c-2.58-4.27-4.38-8.96-5.4-14.07-.98-4.92-1.13-9.79-.43-14.6.69-4.81,2.44-10.38,5.25-16.71l7.69-1.53c-2.86,10.71-3.38,20.67-1.54,29.9.95,4.78,2.34,9.19,4.17,13.21,2.16,4.73,5.14,9.77,8.95,15.09l-7.69,1.53c-4.76-4.28-8.42-8.56-11-12.83h0Z"/>
        <path class="cls-1" d="M107.47,740.66l-.98-.89c-4.93-4.44-8.8-8.95-11.5-13.42-2.73-4.52-4.66-9.54-5.73-14.92-1.04-5.2-1.19-10.41-.46-15.49.72-5.02,2.55-10.87,5.45-17.4l.56-1.25,13.18-2.62-1.09,4.09c-2.74,10.27-3.25,19.93-1.5,28.71.91,4.56,2.25,8.82,3.98,12.63,2.09,4.57,5.01,9.51,8.69,14.65l2.37,3.32-12.98,2.59h.01ZM98.53,681.93c-2.39,5.58-3.91,10.54-4.51,14.77-.65,4.49-.51,9.1.41,13.71.95,4.78,2.66,9.23,5.07,13.22h0c2.25,3.74,5.46,7.55,9.54,11.35l2.45-.49c-2.82-4.23-5.13-8.32-6.9-12.2-1.9-4.19-3.37-8.83-4.35-13.79-1.67-8.4-1.47-17.48.59-27.03l-2.3.46h0Z"/>
      </g>
      <g id="_Radial_Repeat_-9" data-name=" Radial Repeat -9">
        <path class="cls-1" d="M84.76,622.06c-1.7-4.69-2.55-9.64-2.55-14.85s.81-9.82,2.42-14.4c1.62-4.58,4.42-9.71,8.41-15.37h7.84c-4.9,9.94-7.35,19.62-7.35,29.02,0,4.88.5,9.47,1.51,13.77,1.19,5.06,3.14,10.58,5.84,16.55h-7.84c-3.83-5.13-6.59-10.04-8.29-14.73h0Z"/>
        <path class="cls-1" d="M104.98,639.42h-13.24l-.79-1.06c-3.97-5.31-6.88-10.49-8.66-15.41-1.79-4.96-2.7-10.26-2.7-15.75s.87-10.44,2.57-15.27c1.69-4.8,4.63-10.18,8.75-16.01l.79-1.12h13.44l-1.87,3.8c-4.7,9.53-7.08,18.91-7.08,27.86,0,4.65.49,9.08,1.44,13.17,1.15,4.87,3.06,10.28,5.67,16.07l1.68,3.72h0ZM94.39,634.15h2.5c-1.95-4.71-3.42-9.18-4.39-13.31-1.05-4.48-1.58-9.31-1.58-14.37,0-8.56,1.97-17.43,5.86-26.39h-2.34c-3.42,5-5.88,9.57-7.31,13.61-1.51,4.28-2.27,8.83-2.27,13.52s.81,9.57,2.39,13.96c1.49,4.11,3.89,8.47,7.15,12.99h-.01Z"/>
      </g>
      <g id="_Radial_Repeat_-10" data-name=" Radial Repeat -10">
        <path class="cls-1" d="M91.87,518.4c-.75-4.94-.62-9.96.4-15.06.98-4.92,2.71-9.48,5.19-13.65,2.48-4.18,6.23-8.66,11.25-13.43l7.69,1.53c-6.74,8.79-11.03,17.81-12.87,27.03-.95,4.79-1.35,9.39-1.2,13.8.19,5.2,1.02,10.99,2.5,17.37l-7.69-1.53c-2.76-5.77-4.51-11.13-5.26-16.06h0Z"/>
        <path class="cls-1" d="M108.31,539.38l-12.99-2.58-.57-1.19c-2.86-5.99-4.71-11.64-5.49-16.8-.8-5.21-.65-10.59.42-15.97,1.03-5.19,2.88-10.06,5.5-14.48,2.59-4.36,6.53-9.07,11.7-14l.99-.94,13.19,2.63-2.58,3.36c-6.47,8.43-10.63,17.17-12.38,25.95-.91,4.56-1.3,9.01-1.16,13.2.18,5,1,10.67,2.43,16.86l.92,3.98.02-.02ZM98.95,532.14l2.45.49c-.99-5-1.56-9.67-1.71-13.91-.16-4.6.27-9.45,1.25-14.41,1.67-8.4,5.33-16.7,10.9-24.74l-2.3-.46c-4.34,4.24-7.64,8.25-9.82,11.92-2.32,3.91-3.96,8.22-4.87,12.82-.95,4.79-1.08,9.55-.38,14.15h0c.65,4.32,2.16,9.06,4.48,14.13h0Z"/>
      </g>
      <g id="_Radial_Repeat_-11" data-name=" Radial Repeat -11">
        <path class="cls-1" d="M119.42,418.28c.23-4.98,1.34-9.88,3.33-14.7,1.92-4.64,4.5-8.76,7.75-12.38,3.24-3.61,7.79-7.27,13.65-10.97l7.25,3c-8.33,7.31-14.3,15.31-17.89,24-1.87,4.51-3.16,8.94-3.87,13.3-.84,5.14-1.15,10.98-.95,17.52l-7.25-3c-1.57-6.2-2.25-11.8-2.02-16.78h0Z"/>
        <path class="cls-1" d="M131.45,442.06l-12.24-5.06-.32-1.28c-1.63-6.42-2.34-12.33-2.1-17.55h0c.24-5.26,1.43-10.51,3.53-15.59,2.03-4.89,4.79-9.31,8.22-13.13,3.4-3.78,8.17-7.63,14.2-11.43l1.16-.73,12.42,5.15-3.19,2.79c-7.99,7.01-13.77,14.76-17.2,23.03-1.78,4.31-3.03,8.58-3.7,12.72-.81,4.94-1.11,10.66-.91,17.02l.13,4.08v-.02ZM123.69,433.14l2.31.96c0-5.11.36-9.79,1.04-13.98.74-4.53,2.1-9.21,4.04-13.88,3.27-7.91,8.48-15.34,15.51-22.14l-2.16-.9c-5.07,3.3-9.09,6.59-11.95,9.77-3.03,3.38-5.48,7.29-7.28,11.63-1.87,4.51-2.93,9.16-3.14,13.81-.2,4.36.35,9.32,1.63,14.74h0Z"/>
      </g>
      <g id="_Radial_Repeat_-12" data-name=" Radial Repeat -12">
        <path class="cls-1" d="M165.97,325.46c1.2-4.85,3.24-9.43,6.14-13.76,2.79-4.18,6.13-7.72,10.01-10.63s9.07-5.61,15.53-8.1l6.52,4.36c-9.6,5.54-17.01,12.23-22.23,20.05-2.71,4.06-4.84,8.16-6.39,12.29-1.82,4.87-3.27,10.54-4.34,17l-6.52-4.36c-.34-6.39.1-12.01,1.29-16.85h-.01Z"/>
        <path class="cls-1" d="M173.14,351.14l-11.01-7.36-.07-1.32c-.35-6.6.11-12.54,1.36-17.62h0c1.26-5.12,3.45-10.02,6.5-14.59,2.95-4.41,6.52-8.2,10.63-11.28,4.06-3.04,9.49-5.88,16.17-8.45l1.28-.49,11.18,7.47-3.67,2.12c-9.19,5.31-16.38,11.78-21.36,19.23-2.59,3.88-4.65,7.84-6.12,11.76-1.75,4.69-3.17,10.25-4.21,16.51l-.67,4.03h-.01ZM167.26,340.87l2.08,1.39c1-5,2.26-9.53,3.75-13.5,1.61-4.3,3.86-8.62,6.67-12.83,4.76-7.13,11.32-13.4,19.53-18.69l-1.95-1.3c-5.64,2.26-10.22,4.7-13.63,7.26-3.63,2.72-6.79,6.08-9.4,9.98-2.71,4.07-4.65,8.41-5.77,12.93-1.04,4.25-1.47,9.22-1.27,14.77h0Z"/>
      </g>
      <g id="_Radial_Repeat_-13" data-name=" Radial Repeat -13">
        <path class="cls-1" d="M229.74,243.52c2.12-4.52,5.02-8.62,8.7-12.3s7.52-6.38,11.9-8.48c4.38-2.09,9.99-3.73,16.82-4.91l5.54,5.55c-10.49,3.56-19.07,8.68-25.72,15.33-3.45,3.45-6.33,7.05-8.67,10.81-2.74,4.42-5.26,9.7-7.58,15.83l-5.54-5.55c.91-6.33,2.43-11.76,4.55-16.28h0Z"/>
        <path class="cls-1" d="M231.75,270.09l-9.36-9.37.19-1.31c.94-6.55,2.55-12.27,4.77-17.02h0c2.24-4.79,5.35-9.18,9.22-13.05s8.01-6.78,12.63-8.99c4.57-2.18,10.46-3.91,17.5-5.13l1.35-.24,9.5,9.51-4.01,1.36c-10.05,3.41-18.36,8.35-24.7,14.69-3.29,3.29-6.08,6.77-8.29,10.34-2.62,4.23-5.09,9.4-7.35,15.37l-1.44,3.82v.02ZM227.99,258.87l1.77,1.77c1.97-4.73,4.08-8.92,6.31-12.52,2.42-3.91,5.47-7.7,9.04-11.29,6.06-6.06,13.72-10.93,22.81-14.52l-1.65-1.66c-5.97,1.12-10.94,2.61-14.79,4.46-4.08,1.95-7.84,4.63-11.17,7.96-3.44,3.44-6.19,7.33-8.18,11.55h0c-1.86,3.97-3.24,8.75-4.13,14.24h-.01Z"/>
      </g>
      <g id="_Radial_Repeat_-14" data-name=" Radial Repeat -14">
        <path class="cls-1" d="M308.26,175.58c2.96-4.02,6.61-7.47,10.94-10.37,4.18-2.79,8.61-4.79,13.32-5.99,4.71-1.2,10.52-1.71,17.45-1.54l4.36,6.53c-10.99,1.45-20.39,4.79-28.21,10.01-4.06,2.71-7.6,5.68-10.61,8.91-3.55,3.8-7.05,8.49-10.52,14.04l-4.36-6.52c2.13-6.04,4.68-11.06,7.64-15.08h-.01Z"/>
        <path class="cls-1" d="M305.06,202.03l-7.36-11.01.44-1.25c2.2-6.24,4.89-11.54,8-15.76h0c3.12-4.24,7.02-7.94,11.59-11,4.43-2.95,9.18-5.09,14.14-6.35,4.89-1.26,11.01-1.79,18.16-1.63l1.37.04,7.46,11.18-4.2.56c-10.54,1.39-19.65,4.62-27.09,9.59-3.88,2.59-7.29,5.45-10.15,8.52-3.41,3.66-6.85,8.24-10.21,13.64l-2.16,3.46h.01ZM303.55,190.3l1.39,2.07c2.84-4.24,5.73-7.94,8.63-11.04,3.14-3.36,6.86-6.48,11.07-9.3,7.12-4.76,15.58-8.04,25.2-9.79l-1.3-1.95c-6.15-.1-11.24.43-15.37,1.49-4.38,1.11-8.59,3-12.51,5.62-4.06,2.72-7.52,6-10.28,9.74-2.6,3.53-4.89,7.95-6.83,13.16Z"/>
      </g>
      <g id="_Radial_Repeat_-15" data-name=" Radial Repeat -15">
        <path class="cls-1" d="M398.53,124.27c3.69-3.37,7.94-6.04,12.75-8.04,4.64-1.92,9.38-3.01,14.24-3.27,4.85-.26,10.65.38,17.41,1.9l3,7.25c-11.06-.73-20.93.72-29.63,4.31-4.51,1.87-8.56,4.09-12.15,6.67-4.22,3.04-8.57,6.95-13.06,11.73l-3-7.25c3.27-5.5,6.75-9.93,10.43-13.3h.01Z"/>
        <path class="cls-1" d="M390.22,149.59l-5.07-12.24.67-1.14c3.38-5.69,7.06-10.36,10.92-13.89h0c3.89-3.55,8.43-6.42,13.51-8.53,4.89-2.03,9.98-3.19,15.1-3.47,5.06-.28,11.17.39,18.13,1.96l1.33.3,5.15,12.42-4.23-.28c-10.59-.7-20.16.69-28.45,4.12-4.3,1.78-8.21,3.93-11.62,6.38-4.06,2.92-8.32,6.75-12.67,11.39l-2.79,2.98h.02ZM391.04,137.79l.96,2.31c3.62-3.6,7.17-6.67,10.62-9.15,3.74-2.69,8-5.03,12.68-6.97,7.92-3.27,16.82-4.79,26.62-4.68l-.9-2.16c-5.93-1.26-11.11-1.77-15.36-1.55-4.53.25-9.03,1.28-13.37,3.08-4.51,1.87-8.54,4.41-11.98,7.55-3.23,2.95-6.34,6.84-9.27,11.57Z"/>
      </g>
      <g id="_Radial_Repeat_-16" data-name=" Radial Repeat -16">
        <path class="cls-1" d="M497.08,91.55c4.27-2.58,8.96-4.38,14.07-5.4,4.92-.98,9.79-1.13,14.6-.43,4.81.69,10.38,2.44,16.71,5.25l1.53,7.69c-10.71-2.86-20.67-3.38-29.9-1.54-4.78.95-9.19,2.34-13.21,4.17-4.73,2.16-9.76,5.14-15.09,8.95l-1.53-7.69c4.28-4.76,8.56-8.42,12.83-11h0Z"/>
        <path class="cls-1" d="M484,114.76l-2.59-12.99.89-.98c4.44-4.92,8.96-8.79,13.43-11.49,4.52-2.73,9.54-4.66,14.92-5.73,5.2-1.03,10.41-1.19,15.49-.46,5.01.72,10.87,2.56,17.4,5.45l1.25.56,2.62,13.18-4.09-1.09c-10.26-2.74-19.92-3.25-28.71-1.5-4.57.91-8.82,2.25-12.63,3.98-4.57,2.09-9.5,5.01-14.65,8.69l-3.32,2.38h0ZM487.1,103.34l.49,2.45c4.23-2.81,8.32-5.13,12.2-6.9,4.19-1.9,8.83-3.37,13.79-4.35,8.4-1.67,17.48-1.47,27.03.59l-.46-2.3c-5.58-2.39-10.54-3.9-14.77-4.51-4.49-.64-9.1-.51-13.71.41-4.78.95-9.23,2.66-13.22,5.07h0c-3.73,2.25-7.55,5.47-11.34,9.54h0Z"/>
      </g>
      <g id="_Radial_Repeat_-17" data-name=" Radial Repeat -17">
        <path class="cls-1" d="M600.11,78.69c4.69-1.7,9.64-2.55,14.85-2.55s9.82.81,14.4,2.42c4.58,1.62,9.7,4.42,15.36,8.41v7.84c-9.94-4.9-19.62-7.35-29.02-7.35-4.88,0-9.47.5-13.77,1.51-5.06,1.19-10.58,3.14-16.55,5.84v-7.84c5.13-3.83,10.04-6.59,14.73-8.29h0Z"/>
        <path class="cls-1" d="M647.37,99.06l-3.8-1.87c-9.53-4.69-18.9-7.08-27.86-7.08-4.65,0-9.09.48-13.17,1.44-4.87,1.15-10.28,3.06-16.07,5.68l-3.72,1.68v-13.25l1.06-.79c5.31-3.97,10.49-6.88,15.41-8.66,9.74-3.53,21.17-3.61,31.03-.13,4.79,1.69,10.17,4.63,16,8.75l1.12.79v13.44h0ZM588.02,88.31v2.5c4.71-1.95,9.18-3.42,13.31-4.39,12.07-2.84,26.5-1.91,40.77,4.28v-2.34c-5-3.43-9.57-5.89-13.6-7.31-8.72-3.07-18.87-3.01-27.48.11-4.11,1.49-8.47,3.89-12.99,7.15h-.01Z"/>
      </g>
      <g id="_Radial_Repeat_-18" data-name=" Radial Repeat -18">
        <path class="cls-1" d="M703.68,86.18c4.94-.75,9.96-.62,15.06.4,4.92.98,9.48,2.71,13.65,5.19,4.18,2.48,8.66,6.23,13.43,11.25l-1.53,7.69c-8.79-6.74-17.81-11.03-27.03-12.87-4.79-.95-9.39-1.35-13.8-1.2-5.2.19-10.99,1.02-17.37,2.5l1.53-7.69c5.77-2.76,11.13-4.51,16.06-5.26h0Z"/>
        <path class="cls-1" d="M746.05,115.37l-3.36-2.58c-8.43-6.46-17.16-10.63-25.94-12.38-4.57-.91-9.03-1.31-13.2-1.15-5,.17-10.68.99-16.86,2.43l-3.98.92,2.58-12.99,1.19-.57c5.99-2.86,11.64-4.7,16.8-5.49,5.21-.8,10.58-.66,15.97.42,5.19,1.03,10.06,2.88,14.48,5.51,4.36,2.59,9.07,6.53,14,11.7l.94.99-2.63,13.19h.01ZM705.24,93.96c4.03,0,8.24.43,12.53,1.29,8.4,1.67,16.7,5.33,24.74,10.89l.46-2.3c-4.24-4.34-8.25-7.64-11.92-9.82-3.91-2.32-8.22-3.95-12.82-4.87-4.79-.95-9.55-1.08-14.15-.38h0c-4.31.65-9.06,2.16-14.13,4.48l-.49,2.45c5-.99,9.67-1.56,13.91-1.72.62-.02,1.25-.03,1.88-.03h-.01Z"/>
      </g>
      <g id="_Radial_Repeat_-19" data-name=" Radial Repeat -19">
        <path class="cls-1" d="M803.8,113.72c4.98.23,9.88,1.34,14.7,3.33,4.64,1.92,8.76,4.5,12.38,7.75,3.61,3.24,7.27,7.79,10.97,13.65l-3,7.25c-7.31-8.33-15.31-14.3-24-17.89-4.51-1.87-8.94-3.16-13.3-3.87-5.14-.84-10.98-1.15-17.52-.95l3-7.25c6.2-1.57,11.8-2.25,16.78-2.02h0Z"/>
        <path class="cls-1" d="M839.65,150.62l-2.79-3.18c-7.01-7.99-14.76-13.78-23.03-17.2-4.3-1.79-8.58-3.03-12.72-3.71-4.94-.8-10.66-1.11-17.02-.91l-4.08.13,5.07-12.24,1.28-.32c6.43-1.63,12.33-2.34,17.55-2.1h0c5.27.24,10.51,1.43,15.59,3.53,4.89,2.02,9.31,4.79,13.13,8.22,3.78,3.4,7.63,8.17,11.43,14.2l.73,1.15-5.14,12.42h0ZM787.98,120.29c5.11.01,9.79.36,13.98,1.04,4.53.74,9.21,2.09,13.89,4.03,7.91,3.27,15.34,8.48,22.14,15.51l.9-2.17c-3.3-5.07-6.58-9.09-9.76-11.95-3.38-3.03-7.29-5.48-11.63-7.28-4.51-1.87-9.16-2.92-13.81-3.14-4.37-.19-9.32.36-14.74,1.63l-.96,2.31v.02Z"/>
      </g>
      <g id="_Radial_Repeat_-20" data-name=" Radial Repeat -20">
        <path class="cls-1" d="M896.62,160.28c4.85,1.2,9.43,3.25,13.76,6.14,4.18,2.79,7.72,6.12,10.63,10.01s5.61,9.06,8.1,15.53l-4.36,6.52c-5.54-9.6-12.23-17.01-20.05-22.24-4.06-2.71-8.16-4.84-12.29-6.39-4.87-1.82-10.54-3.27-17-4.34l4.36-6.52c6.39-.33,12.01.1,16.85,1.29h0Z"/>
        <path class="cls-1" d="M924.58,203.47l-2.12-3.67c-5.31-9.2-11.78-16.39-19.23-21.36-3.88-2.58-7.83-4.64-11.76-6.12-4.71-1.76-10.26-3.18-16.51-4.21l-4.03-.67,7.36-11.01,1.32-.07c6.61-.37,12.53.11,17.62,1.36h0c5.11,1.26,10.01,3.45,14.59,6.5,4.41,2.94,8.2,6.52,11.28,10.63,3.04,4.05,5.88,9.49,8.45,16.16l.49,1.28-7.47,11.18h.01ZM879.82,163.64c4.99,1,9.52,2.26,13.51,3.75,4.3,1.62,8.62,3.86,12.83,6.67,7.12,4.77,13.4,11.32,18.69,19.53l1.3-1.95c-2.26-5.64-4.69-10.22-7.25-13.63-2.72-3.63-6.08-6.79-9.99-9.4-4.07-2.71-8.42-4.66-12.93-5.77-4.25-1.04-9.22-1.46-14.78-1.27l-1.39,2.07h.01Z"/>
      </g>
      <g id="_Radial_Repeat_-21" data-name=" Radial Repeat -21">
        <path class="cls-1" d="M978.57,224.04c4.52,2.12,8.62,5.01,12.3,8.7,3.55,3.55,6.38,7.52,8.48,11.9,2.09,4.38,3.73,9.99,4.91,16.82l-5.55,5.54c-3.56-10.49-8.68-19.07-15.33-25.72-3.45-3.45-7.05-6.33-10.81-8.67-4.42-2.74-9.7-5.26-15.83-7.58l5.55-5.54c6.33.91,11.76,2.43,16.28,4.55h0Z"/>
        <path class="cls-1" d="M997.57,271.86l-1.36-4.01c-3.41-10.05-8.35-18.36-14.69-24.71-3.29-3.29-6.76-6.08-10.34-8.29-4.23-2.62-9.4-5.09-15.38-7.35l-3.82-1.45,9.37-9.35,1.3.19c6.55.94,12.28,2.55,17.02,4.77,4.79,2.25,9.18,5.35,13.05,9.22s6.78,8,8.99,12.62c2.18,4.57,3.91,10.46,5.13,17.51l.23,1.34-9.51,9.51h0ZM961.44,224.06c4.73,1.97,8.93,4.09,12.52,6.31,3.92,2.42,7.71,5.47,11.29,9.04,6.06,6.07,10.93,13.72,14.52,22.81l1.65-1.66c-1.12-5.96-2.61-10.94-4.45-14.79-1.95-4.08-4.63-7.84-7.96-11.17-3.43-3.44-7.32-6.19-11.56-8.17-3.96-1.86-8.74-3.25-14.24-4.13l-1.77,1.77h0Z"/>
      </g>
      <g id="_Radial_Repeat_-22" data-name=" Radial Repeat -22">
        <path class="cls-1" d="M1046.5,302.56c4.02,2.96,7.47,6.61,10.37,10.94,2.79,4.17,4.79,8.61,5.99,13.32,1.2,4.7,1.71,10.52,1.54,17.45l-6.53,4.36c-1.45-10.99-4.79-20.39-10.01-28.22-2.71-4.06-5.68-7.6-8.91-10.61-3.8-3.54-8.49-7.05-14.04-10.52l6.52-4.35c6.04,2.13,11.06,4.68,15.08,7.64h0Z"/>
        <path class="cls-1" d="M1055.82,353.17l-.55-4.2c-1.39-10.54-4.62-19.66-9.59-27.09-2.59-3.88-5.46-7.3-8.52-10.15-3.67-3.41-8.26-6.85-13.64-10.21l-3.46-2.16,11-7.35,1.25.44c6.23,2.2,11.53,4.89,15.76,8h0c4.24,3.13,7.94,7.03,10.99,11.6,2.95,4.42,5.09,9.18,6.35,14.14,1.25,4.89,1.8,11,1.62,18.16l-.03,1.36-11.19,7.47h.01ZM1029.71,299.24c4.23,2.84,7.94,5.73,11.04,8.63,3.36,3.14,6.48,6.87,9.3,11.07,4.76,7.12,8.04,15.58,9.79,25.2l1.95-1.3c.07-6.08-.43-11.24-1.49-15.37-1.11-4.38-3-8.59-5.62-12.51-2.71-4.06-5.99-7.51-9.74-10.28h0c-3.54-2.6-7.96-4.89-13.16-6.83l-2.07,1.38h0Z"/>
      </g>
      <g id="_Radial_Repeat_-23" data-name=" Radial Repeat -23">
        <path class="cls-1" d="M1097.81,392.83c3.37,3.69,6.04,7.94,8.04,12.75,1.92,4.64,3.01,9.39,3.27,14.23.26,4.85-.38,10.65-1.9,17.41l-7.25,3c.73-11.06-.72-20.93-4.31-29.63-1.87-4.51-4.09-8.55-6.67-12.15-3.04-4.22-6.95-8.57-11.73-13.06l7.25-3c5.5,3.27,9.93,6.75,13.3,10.43v.02Z"/>
        <path class="cls-1" d="M1097.07,444.28l.28-4.23c.69-10.59-.69-20.16-4.12-28.44-1.78-4.29-3.92-8.2-6.38-11.61-2.93-4.06-6.76-8.33-11.39-12.68l-2.98-2.79,12.24-5.06,1.13.67c5.69,3.38,10.37,7.06,13.9,10.92h0c3.55,3.9,6.42,8.44,8.52,13.51,2.03,4.9,3.19,9.98,3.47,15.1.27,5.07-.39,11.17-1.96,18.14l-.3,1.33-12.42,5.15h.01ZM1081.98,386.3c3.6,3.61,6.67,7.17,9.15,10.62,2.69,3.75,5.03,8.01,6.97,12.68,3.28,7.92,4.85,16.86,4.68,26.62l2.16-.9c1.25-5.93,1.77-11.1,1.55-15.37-.24-4.52-1.28-9.02-3.07-13.36-1.87-4.51-4.41-8.54-7.55-11.98-2.95-3.23-6.84-6.34-11.57-9.26l-2.31.96h-.01Z"/>
      </g>
      <g id="_Radial_Repeat_-24" data-name=" Radial Repeat -24">
        <path class="cls-1" d="M1130.53,491.39c2.58,4.27,4.38,8.96,5.4,14.07.98,4.92,1.13,9.79.43,14.6-.69,4.81-2.44,10.37-5.25,16.71l-7.69,1.53c2.86-10.71,3.38-20.68,1.54-29.9-.95-4.78-2.34-9.19-4.17-13.21-2.16-4.73-5.14-9.76-8.95-15.09l7.69-1.53c4.76,4.28,8.42,8.56,11,12.83h0Z"/>
        <path class="cls-1" d="M1119.78,541.71l1.09-4.09c2.74-10.27,3.25-19.93,1.5-28.71-.91-4.56-2.25-8.82-3.98-12.63-2.09-4.57-5.01-9.5-8.69-14.65l-2.37-3.32,12.98-2.59.98.89c4.93,4.44,8.8,8.95,11.5,13.42,2.73,4.52,4.66,9.54,5.73,14.92,1.04,5.2,1.19,10.41.46,15.49-.72,5.01-2.55,10.86-5.45,17.4l-.55,1.25-13.18,2.62h-.02ZM1116.28,481.89c2.82,4.23,5.13,8.32,6.9,12.19,1.9,4.19,3.37,8.83,4.36,13.79,1.67,8.4,1.47,17.47-.59,27.03l2.3-.46c2.39-5.58,3.91-10.55,4.51-14.77.65-4.49.51-9.1-.41-13.71-.95-4.78-2.66-9.23-5.07-13.22h0c-2.25-3.74-5.46-7.55-9.54-11.35l-2.45.49h-.01Z"/>
      </g>
      <g id="_Radial_Repeat_-25" data-name=" Radial Repeat -25">
        <path class="cls-1" d="M1143.01,594.32c1.7,4.69,2.55,9.64,2.55,14.85s-.81,9.82-2.42,14.4c-1.62,4.58-4.42,9.7-8.41,15.36h-7.84c4.9-9.94,7.35-19.62,7.35-29.02,0-4.88-.5-9.47-1.51-13.77-1.19-5.06-3.14-10.58-5.84-16.55h7.84c3.83,5.13,6.59,10.04,8.29,14.73h-.01Z"/>
        <path class="cls-1" d="M1136.09,641.57h-13.44l1.87-3.8c4.7-9.53,7.08-18.91,7.08-27.86,0-4.65-.49-9.08-1.44-13.17-1.15-4.87-3.06-10.28-5.67-16.07l-1.68-3.72h13.24l.79,1.06c3.97,5.31,6.88,10.49,8.66,15.41,1.79,4.96,2.7,10.26,2.7,15.75s-.87,10.44-2.57,15.28c-1.69,4.79-4.63,10.17-8.75,16l-.79,1.12h0ZM1131,636.3h2.34c3.43-5,5.88-9.57,7.31-13.6,1.51-4.28,2.27-8.83,2.27-13.53s-.81-9.57-2.39-13.96c-1.49-4.11-3.89-8.47-7.15-12.99h-2.5c1.95,4.71,3.42,9.18,4.39,13.31,1.05,4.48,1.58,9.31,1.58,14.37,0,8.56-1.97,17.43-5.86,26.39h.01Z"/>
      </g>
      <g id="_Radial_Repeat_-26" data-name=" Radial Repeat -26">
        <path class="cls-1" d="M1135.91,697.99c.75,4.93.62,9.95-.4,15.06-.98,4.93-2.71,9.48-5.19,13.66s-6.23,8.66-11.25,13.43l-7.69-1.53c6.74-8.8,11.03-17.81,12.87-27.04.95-4.79,1.35-9.39,1.2-13.8-.19-5.2-1.02-10.98-2.5-17.36l7.69,1.52c2.76,5.77,4.51,11.14,5.26,16.07h.01Z"/>
        <path class="cls-1" d="M1119.9,742.98l-13.18-2.63,2.57-3.36c6.47-8.44,10.63-17.17,12.38-25.95.91-4.56,1.3-9.01,1.16-13.2-.18-4.99-1-10.67-2.43-16.85l-.92-3.97,12.99,2.57.57,1.19c2.86,5.99,4.7,11.64,5.49,16.81.8,5.21.65,10.58-.42,15.97-1.03,5.18-2.88,10.06-5.5,14.49-2.59,4.36-6.53,9.07-11.7,14l-.99.94h-.02ZM1115.94,736.82l2.3.46c4.34-4.24,7.64-8.25,9.82-11.92,2.32-3.92,3.96-8.23,4.87-12.83.95-4.79,1.08-9.55.38-14.15h0c-.65-4.32-2.16-9.07-4.48-14.14l-2.45-.49c.99,5.01,1.56,9.67,1.71,13.91.16,4.6-.27,9.45-1.25,14.41-1.67,8.39-5.33,16.7-10.9,24.74h0Z"/>
      </g>
      <g id="_Radial_Repeat_-27" data-name=" Radial Repeat -27">
        <path class="cls-1" d="M1108.36,798.1c-.23,4.98-1.34,9.88-3.33,14.7-1.92,4.64-4.5,8.76-7.75,12.38-3.24,3.61-7.79,7.27-13.65,10.97l-7.25-3c8.33-7.31,14.3-15.31,17.89-24,1.87-4.51,3.16-8.94,3.87-13.3.84-5.14,1.15-10.98.95-17.52l7.25,3c1.57,6.2,2.25,11.8,2.02,16.78h0Z"/>
        <path class="cls-1" d="M1083.88,839.11l-12.42-5.15,3.19-2.79c7.99-7.01,13.77-14.76,17.2-23.03,1.78-4.31,3.03-8.58,3.7-12.72.81-4.94,1.11-10.66.91-17.02l-.13-4.08,12.24,5.06.32,1.28c1.63,6.42,2.34,12.33,2.1,17.55h0c-.24,5.26-1.43,10.51-3.53,15.59-2.03,4.89-4.79,9.31-8.22,13.13-3.4,3.78-8.17,7.63-14.2,11.43l-1.16.73v.02ZM1081.2,832.29l2.16.9c5.07-3.3,9.09-6.59,11.95-9.77,3.03-3.38,5.48-7.29,7.28-11.63,1.87-4.51,2.93-9.16,3.14-13.81.2-4.36-.35-9.32-1.63-14.74l-2.31-.96c0,5.11-.36,9.79-1.04,13.98-.74,4.53-2.1,9.21-4.04,13.88-3.27,7.91-8.48,15.34-15.51,22.14h0Z"/>
      </g>
      <g id="_Radial_Repeat_-28" data-name=" Radial Repeat -28">
        <path class="cls-1" d="M1061.81,890.92c-1.2,4.85-3.24,9.43-6.14,13.76-2.79,4.18-6.13,7.72-10.01,10.63-3.89,2.91-9.07,5.61-15.53,8.1l-6.52-4.35c9.6-5.55,17.01-12.23,22.23-20.05,2.71-4.07,4.84-8.16,6.39-12.3,1.82-4.87,3.27-10.54,4.34-17l6.52,4.36c.34,6.38-.1,12-1.29,16.85h.01Z"/>
        <path class="cls-1" d="M1029.79,926.36l-11.18-7.46,3.67-2.12c9.2-5.32,16.39-11.79,21.36-19.23,2.59-3.89,4.65-7.85,6.12-11.76,1.75-4.68,3.17-10.24,4.21-16.51l.67-4.03,11.01,7.37.07,1.32c.35,6.6-.11,12.53-1.36,17.62h0c-1.26,5.12-3.45,10.02-6.5,14.59-2.95,4.41-6.52,8.2-10.63,11.28-4.06,3.04-9.49,5.88-16.17,8.45l-1.27.49h0ZM1028.49,919.15l1.95,1.3c5.64-2.26,10.22-4.7,13.63-7.26,3.63-2.72,6.79-6.08,9.4-9.98,2.71-4.07,4.65-8.41,5.77-12.93,1.04-4.25,1.47-9.22,1.27-14.77l-2.08-1.39c-1,5-2.26,9.53-3.75,13.5-1.61,4.3-3.85,8.61-6.67,12.84-4.76,7.12-11.32,13.39-19.53,18.69h.01Z"/>
      </g>
      <g id="_Radial_Repeat_-29" data-name=" Radial Repeat -29">
        <path class="cls-1" d="M998.04,972.87c-2.12,4.52-5.02,8.62-8.7,12.3-3.55,3.55-7.52,6.38-11.9,8.48-4.38,2.09-9.99,3.73-16.82,4.91l-5.54-5.55c10.49-3.56,19.07-8.68,25.72-15.33,3.45-3.45,6.33-7.05,8.67-10.81,2.74-4.42,5.26-9.7,7.58-15.83l5.54,5.55c-.91,6.33-2.43,11.76-4.55,16.28h0Z"/>
        <path class="cls-1" d="M959.72,1001.39l-9.5-9.51,4.01-1.36c10.05-3.41,18.36-8.35,24.7-14.69,3.29-3.29,6.08-6.77,8.29-10.34,2.62-4.23,5.09-9.4,7.35-15.37l1.44-3.82,9.36,9.37-.19,1.31c-.94,6.55-2.55,12.27-4.77,17.02h0c-2.24,4.79-5.35,9.18-9.22,13.05s-8.01,6.78-12.63,8.99c-4.57,2.18-10.46,3.91-17.5,5.13l-1.35.24v-.02ZM959.86,994.07l1.65,1.66c5.97-1.12,10.94-2.61,14.79-4.46,4.08-1.95,7.84-4.63,11.17-7.96,3.44-3.44,6.19-7.33,8.18-11.55h0c1.86-3.97,3.24-8.75,4.13-14.24l-1.77-1.77c-1.97,4.73-4.08,8.92-6.31,12.52-2.42,3.91-5.47,7.7-9.04,11.29-6.06,6.06-13.72,10.93-22.81,14.52h.01Z"/>
      </g>
      <g id="_Radial_Repeat_-30" data-name=" Radial Repeat -30">
        <path class="cls-1" d="M919.51,1040.81c-2.96,4.02-6.61,7.47-10.94,10.37-4.18,2.79-8.61,4.79-13.32,5.98-4.71,1.2-10.52,1.72-17.45,1.54l-4.36-6.53c10.99-1.45,20.39-4.79,28.21-10.01,4.06-2.71,7.6-5.68,10.61-8.9,3.55-3.81,7.05-8.49,10.52-14.05l4.36,6.52c-2.13,6.04-4.68,11.06-7.64,15.08h0Z"/>
        <path class="cls-1" d="M880.35,1061.37c-.85,0-1.72-.01-2.61-.03l-1.37-.04-7.46-11.18,4.2-.56c10.54-1.39,19.65-4.62,27.09-9.59,3.86-2.58,7.28-5.44,10.15-8.51,3.41-3.66,6.85-8.25,10.21-13.64l2.16-3.46,7.36,11.01-.44,1.24c-2.21,6.24-4.9,11.55-8,15.76h0c-3.11,4.23-7.01,7.94-11.59,11-4.42,2.95-9.18,5.09-14.14,6.35-4.3,1.1-9.53,1.66-15.55,1.66h-.01ZM879.23,1056.09c6.04.07,11.22-.43,15.37-1.49,4.39-1.11,8.59-3.01,12.51-5.62,4.07-2.73,7.53-6.01,10.28-9.74h0c2.59-3.53,4.89-7.95,6.83-13.16l-1.39-2.07c-2.84,4.24-5.73,7.94-8.63,11.05-3.15,3.37-6.88,6.5-11.07,9.3-7.12,4.76-15.58,8.04-25.2,9.79l1.3,1.95h0Z"/>
      </g>
      <g id="_Radial_Repeat_-31" data-name=" Radial Repeat -31">
        <path class="cls-1" d="M829.24,1092.12c-3.69,3.37-7.94,6.04-12.75,8.04-4.64,1.92-9.38,3.01-14.24,3.27-4.85.26-10.65-.38-17.41-1.9l-3-7.25c11.06.73,20.93-.72,29.63-4.31,4.51-1.87,8.56-4.09,12.15-6.67,4.22-3.04,8.57-6.95,13.06-11.73l3,7.25c-3.27,5.5-6.75,9.93-10.43,13.3h-.01Z"/>
        <path class="cls-1" d="M800.13,1106.12c-4.59,0-9.91-.68-15.86-2.02l-1.33-.3-5.15-12.42,4.23.28c10.61.71,20.17-.68,28.45-4.12,4.3-1.78,8.21-3.93,11.62-6.38,4.06-2.92,8.32-6.75,12.67-11.39l2.79-2.98,5.07,12.24-.67,1.14c-3.38,5.69-7.06,10.36-10.92,13.89h0c-3.89,3.55-8.43,6.42-13.51,8.53-4.89,2.03-9.98,3.19-15.1,3.47-.74.04-1.49.06-2.27.06h-.02ZM786.76,1099.25c5.93,1.26,11.09,1.74,15.36,1.55,4.53-.25,9.03-1.28,13.37-3.08,4.51-1.87,8.54-4.41,11.98-7.55,3.23-2.95,6.34-6.84,9.27-11.57l-.96-2.31c-3.62,3.6-7.17,6.67-10.62,9.15-3.74,2.69-8,5.03-12.68,6.97-7.91,3.27-16.83,4.82-26.62,4.68l.9,2.16h0Z"/>
      </g>
      <g id="_Radial_Repeat_-32" data-name=" Radial Repeat -32">
        <path class="cls-1" d="M730.7,1124.83c-4.27,2.58-8.96,4.38-14.07,5.4-4.92.98-9.79,1.13-14.6.43-4.81-.69-10.38-2.44-16.71-5.25l-1.53-7.69c10.71,2.86,20.67,3.38,29.9,1.54,4.78-.95,9.19-2.34,13.21-4.17,4.73-2.16,9.76-5.14,15.09-8.95l1.53,7.69c-4.28,4.76-8.56,8.42-12.83,11h0Z"/>
        <path class="cls-1" d="M708.02,1133.72c-2.14,0-4.27-.15-6.37-.45-5.01-.72-10.87-2.56-17.4-5.45l-1.25-.56-2.62-13.18,4.09,1.09c10.26,2.75,19.92,3.25,28.71,1.5,4.57-.91,8.82-2.25,12.63-3.98,4.57-2.09,9.5-5.01,14.65-8.69l3.32-2.38,2.59,12.99-.89.98c-4.44,4.92-8.96,8.79-13.43,11.49-4.52,2.73-9.54,4.66-14.92,5.73-3.04.61-6.09.91-9.12.91h.01ZM687.64,1123.55c5.58,2.39,10.54,3.9,14.77,4.51,4.48.64,9.1.51,13.71-.41,4.78-.95,9.23-2.66,13.22-5.07h0c3.73-2.25,7.55-5.47,11.34-9.54l-.49-2.45c-4.23,2.81-8.32,5.13-12.2,6.9-4.19,1.9-8.83,3.37-13.79,4.35-8.4,1.67-17.47,1.48-27.03-.59l.46,2.3h.01Z"/>
      </g>
      <path class="cls-1" d="M629.71,345.73h0c-2.23-6.82-16.25-48.07-26.87-55.85-8.05-5.9-4.49,41.48,2.43,44.55-13.72-6.08-40.42-16.05-41.95-18.84-4.17-7.6-5.29-18.05-11.08-24.61-.19-.21-.51-.57-.91-.54-3.89.27-3.97,36.79-2.21,37.75,3.14,1.73,26.48,13.59,53.53,26.24-7.95,4.69-45.52,27.38-32.84,29.56,11.7,2.01,44.64-13.62,55.73-19.1,34.85,15.48,68.42,28.17,68.42,19.72,0-7.92-32.13-24.16-64.24-38.88h0Z"/>
      <path class="cls-1" d="M689.55,390.03c-6.56,0-22.23-3.75-63.95-22.23-16.53,8.13-44.71,20.77-56.24,18.79-3.59-.62-4.49-2.69-4.7-3.86-.35-1.91-1.39-7.59,32.38-28.02-24.97-11.77-45.99-22.44-49.2-24.21-4.22-2.33-1.92-32.46-.9-37.07.36-1.62,1.19-5.41,4.2-5.62,1.2-.05,2.19.41,3.08,1.44,3.81,4.32,5.71,9.96,7.54,15.41,1.18,3.51,2.3,6.82,3.86,9.66,1.55,1.48,15.11,7.05,25.02,11.12,2.9,1.19,5.78,2.37,8.48,3.5-2.95-9.27-3.47-23.07-3.48-23.27-.55-16.05,2.77-17.8,4.01-18.46.69-.37,2.55-1.05,4.74.55,10.97,8.02,24.1,45.93,27.46,56.06,56.86,26.15,64.73,35.07,64.73,40.8,0,1.75-.8,3.23-2.24,4.17-.8.52-1.92,1.25-4.81,1.25h.02ZM625.48,361.99l1.13.5c56.12,24.93,63.89,22.59,64.88,21.88-.17-2.07-6.28-10.28-62.87-36.24l-1.05-.48-.36-1.1c-5.16-15.78-16.94-46.85-25.31-54.05-1.08,2.87-1.61,11.88-.15,23.13,1.43,11.05,3.74,15.83,4.64,16.42l-2.18,4.79c-4.3-1.91-9.88-4.2-15.56-6.53-20.25-8.31-26.34-11.08-27.64-13.46-1.79-3.25-3.03-6.94-4.23-10.51-1.4-4.17-2.75-8.15-4.83-11.38-1.5,7.37-1.64,26.89-.74,31.37,5.33,2.82,27.36,13.94,52.57,25.73l4.52,2.12-4.3,2.54c-20.18,11.92-32.09,21.25-33.91,24.66.05.01.11.02.17.03,8.74,1.56,33.69-8.76,54.11-18.87l1.11-.55h0Z"/>
    </g>
  </g>
</svg>